<svg preserveAspectRatio="none" width="100%" height="100%" overflow="visible" style="display: block;" viewBox="0 0 339 352.609" fill="none" xmlns="http://www.w3.org/2000/svg">
<path id="Union" d="M160.221 0C195.34 0 225.161 22.6866 235.828 54.2041C243.22 51.9435 251.067 50.7266 259.199 50.7266C303.272 50.7267 339 86.4545 339 130.527C339 151.312 331.053 170.239 318.033 184.439C325.827 196.764 330.34 211.371 330.34 227.031C330.34 271.104 294.611 306.832 250.538 306.832C244.211 306.832 238.057 306.094 232.155 304.702C219.847 332.9 191.717 352.609 158.983 352.609C127.002 352.609 99.4156 333.796 86.6855 306.633C84.82 306.763 82.9368 306.832 81.0381 306.832C36.9653 306.832 1.23743 271.104 1.2373 227.031C1.2373 209.264 7.04384 192.854 16.8623 179.593C6.29623 166.058 0 149.028 0 130.527C1.44315e-05 86.4545 35.728 50.7267 79.8008 50.7266C81.8177 50.7266 83.8175 50.8012 85.7969 50.9482C97.3625 21.1363 126.323 4.12329e-05 160.221 0Z" fill="var(--fill-0, #F5F5F5)"/>
</svg>
