<svg width="432" height="480" viewBox="0 0 432 480" fill="none" xmlns="http://www.w3.org/2000/svg">
<path d="M24 227V0H108.766C133.716 0 154.507 5.11549 171.141 15.3465C187.987 25.3643 200.675 39.0056 209.205 56.2704C217.735 73.3221 222 92.292 222 113.18C222 136.2 217.309 156.236 207.926 173.287C198.543 190.339 185.321 203.554 168.262 212.932C151.415 222.311 131.583 227 108.766 227H24ZM168.582 113.18C168.582 99.9653 166.236 88.3488 161.544 78.331C156.853 68.1 150.029 60.2136 141.073 54.6718C132.116 48.9169 121.347 46.0394 108.766 46.0394H76.4588V180.961H108.766C121.561 180.961 132.33 178.083 141.073 172.328C150.029 166.36 156.853 158.261 161.544 148.03C166.236 137.585 168.582 125.969 168.582 113.18Z" fill="#454041"/>
<path d="M108.934 373.248V381.895L214.215 479.1L431.335 404.699V396.243L108.934 373.248Z" fill="#231F20"/>
<path d="M214.215 479.765C214.025 479.765 213.93 479.67 213.74 479.575L108.459 382.37C108.364 382.275 108.269 382.085 108.269 381.894V373.343C108.269 373.153 108.364 372.963 108.459 372.868C108.554 372.773 108.744 372.678 108.934 372.678L431.335 395.672C431.715 395.672 432 395.957 431.905 396.337V404.794C431.905 405.079 431.715 405.364 431.43 405.459L214.405 479.765C214.405 479.765 214.31 479.765 214.215 479.765ZM109.504 381.609L214.405 478.339L430.67 404.319V396.813L109.599 374.008V381.609H109.504Z" fill="#231F20"/>
<path d="M108.934 373.248L63.6094 217.891L286.905 171.997L318.737 308.73L108.934 373.248Z" fill="white"/>
<path d="M108.934 373.913C108.839 373.913 108.744 373.913 108.649 373.818C108.459 373.723 108.364 373.628 108.364 373.438L63.0394 218.081C62.9443 217.891 63.0394 217.701 63.1344 217.511C63.2294 217.321 63.4194 217.226 63.6095 217.226L286.905 171.331C287.285 171.236 287.57 171.521 287.665 171.806L319.497 308.54C319.592 308.92 319.402 309.205 319.022 309.3L109.124 373.818L108.934 373.913ZM64.4647 218.366L109.314 372.393L317.977 308.254L286.43 172.757L64.4647 218.366Z" fill="#231F20"/>
<path d="M318.737 308.73L108.934 373.248L214.405 467.982L431.335 396.243L318.737 308.73Z" fill="white"/>
<path d="M214.405 468.647C214.215 468.647 214.12 468.552 213.93 468.457L108.459 373.723C108.269 373.533 108.174 373.343 108.269 373.058C108.364 372.868 108.459 372.678 108.744 372.583L318.547 308.064C318.737 307.969 319.022 308.064 319.117 308.159L431.715 395.672C431.905 395.862 432 396.052 432 396.337C431.905 396.623 431.81 396.813 431.525 396.813L214.595 468.552C214.5 468.647 214.5 468.647 214.405 468.647ZM110.169 373.533L214.5 467.222L429.91 395.957L318.642 309.395L110.169 373.533Z" fill="#231F20"/>
<path d="M315.316 320.892L133.734 380.089L182.004 422.563L368.812 360.515L315.316 320.892Z" fill="white"/>
<path d="M182.004 423.228C181.814 423.228 181.719 423.133 181.529 423.038L133.259 380.564C132.974 380.279 132.974 379.899 133.164 379.614C133.259 379.519 133.354 379.424 133.449 379.424L315.031 320.322C315.221 320.227 315.411 320.322 315.601 320.417L369.192 360.04C369.382 360.23 369.477 360.42 369.477 360.705C369.477 360.99 369.287 361.18 369.002 361.18L182.194 423.228C182.194 423.133 182.099 423.133 182.004 423.228ZM135.064 380.279L182.194 421.708L367.387 360.23L315.126 321.652L135.064 380.279Z" fill="#D1D3D4"/>
<path d="M327.954 384.175L257.924 405.839L289.566 430.545L358.55 407.36L327.954 384.175Z" fill="white"/>
<path d="M289.566 431.21C289.376 431.21 289.281 431.115 289.186 431.115L257.449 406.41C257.259 406.22 257.164 406.029 257.164 405.744C257.164 405.459 257.354 405.269 257.639 405.269L327.764 383.605C327.954 383.51 328.144 383.605 328.334 383.7L358.835 406.885C359.025 407.075 359.12 407.265 359.12 407.55C359.12 407.835 358.93 408.025 358.645 408.025L289.756 431.21C289.756 431.21 289.661 431.21 289.566 431.21ZM259.35 406.125L289.756 429.879L357.125 407.17L327.859 384.935L259.35 406.125Z" fill="#D1D3D4"/>
<path d="M115.395 360.515L75.1068 226.348L278.924 182.829L308.19 303.978L115.395 360.515Z" fill="white"/>
<path d="M115.395 361.18C115.11 361.18 114.825 360.99 114.73 360.705L74.4417 226.538C74.3467 226.347 74.4417 226.157 74.5367 225.967C74.6317 225.777 74.8218 225.682 75.0118 225.682L278.829 182.163C279.209 182.068 279.494 182.353 279.589 182.639L308.855 303.788C308.95 304.168 308.76 304.453 308.38 304.548L115.585 361.085C115.49 361.18 115.49 361.18 115.395 361.18ZM75.962 226.823L115.87 359.66L307.429 303.503L278.449 183.589L75.962 226.823Z" fill="#231F20"/>
<path d="M79.0976 240.41C78.7176 240.41 78.4325 240.125 78.4325 239.745C78.4325 239.46 78.6225 239.175 78.9076 239.08L281.774 194.611C282.154 194.516 282.534 194.706 282.629 194.991C282.724 195.371 282.534 195.751 282.249 195.846H282.154L79.2877 240.41H79.0976Z" fill="#231F20"/>
<path d="M88.5996 233.094C90.069 233.094 91.2601 231.903 91.2601 230.433C91.2601 228.964 90.069 227.773 88.5996 227.773C87.1302 227.773 85.939 228.964 85.939 230.433C85.939 231.903 87.1302 233.094 88.5996 233.094Z" fill="#777777"/>
<path d="M98.1966 230.623C99.6659 230.623 100.857 229.432 100.857 227.963C100.857 226.493 99.6659 225.302 98.1966 225.302C96.7272 225.302 95.536 226.493 95.536 227.963C95.536 229.432 96.7272 230.623 98.1966 230.623Z" fill="#D1D3D4"/>
<path d="M107.413 228.533C108.883 228.533 110.074 227.342 110.074 225.872C110.074 224.403 108.883 223.212 107.413 223.212C105.944 223.212 104.753 224.403 104.753 225.872C104.753 227.342 105.944 228.533 107.413 228.533Z" fill="#D1D3D4"/>
<path d="M127.368 249.437L251.653 220.266C254.409 219.601 257.069 221.311 257.734 224.067L258.684 228.058C259.35 230.813 257.639 233.474 254.884 234.139L130.598 263.31C127.843 263.975 125.182 262.265 124.517 259.509L123.567 255.518C122.997 252.858 124.707 250.102 127.368 249.437Z" fill="#D1D3D4"/>
<path d="M275.883 290.391C275.883 290.391 218.871 312.816 165.09 299.513C111.309 286.21 79.1926 239.746 79.1926 239.746L107.984 335.81C107.984 335.81 128.413 348.448 178.868 347.783C243.291 347.023 286.715 314.906 286.715 314.906L271.987 289.726" fill="white"/>
<path d="M175.542 348.543C127.843 348.543 107.889 336.571 107.699 336.38C107.604 336.285 107.413 336.19 107.413 336L78.5276 239.936C78.4326 239.556 78.6226 239.176 79.0027 239.081C79.2877 238.986 79.5728 239.081 79.7628 239.366C80.0479 239.841 112.355 285.735 165.28 298.848C210.605 310.06 258.684 295.617 272.082 291.056L271.512 290.106C271.322 289.821 271.417 289.346 271.702 289.156C271.987 288.966 272.462 289.061 272.652 289.346L273.318 290.486C274.838 289.916 275.598 289.631 275.693 289.631C276.073 289.536 276.453 289.631 276.548 290.011C276.643 290.391 276.548 290.771 276.168 290.866C276.073 290.866 275.313 291.151 273.983 291.626L287.285 314.526C287.475 314.811 287.38 315.191 287.095 315.381C286.62 315.666 242.721 347.593 178.868 348.353L175.542 348.543ZM108.554 335.43C110.834 336.761 131.834 347.783 178.868 347.213C238.73 346.548 280.919 318.327 285.86 314.811L272.652 292.291C259.445 296.852 210.795 311.485 164.9 300.178C119.386 288.966 89.0747 253.714 80.9031 243.166L108.554 335.43Z" fill="#231F20"/>
<path d="M195.211 324.503C174.687 324.503 151.122 321.082 129.648 309.775C129.363 309.585 129.173 309.205 129.363 308.92C129.553 308.635 129.933 308.445 130.313 308.635C182.384 336.19 247.567 316.236 248.232 316.046C248.612 315.951 248.992 316.141 249.087 316.521C249.182 316.901 248.992 317.281 248.612 317.376C231.224 322.032 213.265 324.503 195.211 324.503Z" fill="#D1D3D4"/>
<path d="M183.714 337.141C140.86 337.141 112.925 317.281 112.544 317.091C112.259 316.901 112.164 316.426 112.354 316.141C112.544 315.856 113.02 315.761 113.305 315.951C113.685 316.236 152.263 343.507 208.134 333.625C208.514 333.53 208.799 333.815 208.894 334.1C208.989 334.48 208.704 334.765 208.324 334.86C200.247 336.38 191.981 337.141 183.714 337.141Z" fill="#D1D3D4"/>
<path d="M141.24 304.074C141.145 304.074 141.05 304.074 140.955 303.979C99.0517 284.975 88.8846 261.6 88.6945 261.315C88.5045 260.935 88.6945 260.555 89.0746 260.46C89.4547 260.27 89.8348 260.46 89.9298 260.84C89.9298 260.935 92.4003 266.636 100.002 274.713C106.938 282.124 119.861 293.051 141.43 302.838C141.81 303.028 141.905 303.408 141.81 303.694C141.715 303.884 141.525 304.074 141.24 304.074Z" fill="#D1D3D4"/>
<path d="M216.116 311.58C215.736 311.58 215.451 311.295 215.451 310.915C215.451 310.535 215.736 310.25 216.116 310.25C216.306 310.25 239.396 310.155 249.943 305.119C250.323 304.929 250.703 305.119 250.798 305.404C250.893 305.689 250.798 306.164 250.513 306.259C239.776 311.58 217.066 311.58 216.116 311.58Z" fill="#D1D3D4"/>
<path d="M261.63 293.907L279.399 321.462L294.887 316.236L272.747 282.029L261.63 293.907Z" fill="white"/>
<path d="M279.399 322.127C279.209 322.127 278.924 322.032 278.829 321.842L260.965 294.287C260.775 294.002 260.87 293.717 261.06 293.431L272.177 281.554C272.272 281.364 272.557 281.364 272.747 281.364C272.937 281.364 273.127 281.459 273.222 281.649L295.267 315.856C295.457 316.141 295.362 316.616 294.982 316.806H294.887L279.494 322.032C279.589 322.127 279.494 322.127 279.399 322.127ZM262.485 294.002L279.684 320.702L293.747 315.951L272.557 283.169L262.485 294.002Z" fill="#231F20"/>
<path d="M345.152 303.314C345.152 303.314 345.437 323.648 333.655 338.376C321.872 353.104 285.29 360.42 285.29 360.42L296.787 315.666L345.152 303.314Z" fill="#777777"/>
<path d="M285.29 361.18C285.1 361.18 284.91 361.085 284.815 360.99C284.625 360.8 284.625 360.61 284.625 360.325L296.122 315.571C296.217 315.381 296.407 315.191 296.597 315.096L344.962 302.743C345.152 302.743 345.342 302.743 345.532 302.838C345.722 302.933 345.817 303.123 345.817 303.409C345.817 303.599 346.007 324.123 334.13 338.851C322.252 353.579 286.905 360.895 285.385 361.18H285.29ZM297.357 316.331L286.145 359.66C292.226 358.33 322.633 351.013 333.085 337.996C343.252 325.263 344.392 308.16 344.487 304.264L297.357 316.331Z" fill="#231F20"/>
<path d="M304.769 240.791C304.769 240.791 286.43 232.144 268.091 236.895C249.753 241.646 228.088 271.862 228.088 271.862L273.603 279.749L304.769 240.791Z" fill="#777777"/>
<path d="M273.603 280.414H273.508L227.993 272.527C227.613 272.432 227.423 272.147 227.423 271.767C227.423 271.672 227.518 271.577 227.518 271.482C228.373 270.247 249.563 240.981 267.901 236.23C286.24 231.479 304.864 240.126 305.054 240.221C305.244 240.316 305.339 240.506 305.434 240.696C305.529 240.886 305.434 241.076 305.339 241.266L274.078 280.224C273.983 280.414 273.793 280.509 273.603 280.414ZM229.228 271.387L273.318 278.989L303.724 241.076C300.018 239.555 284.055 233.474 268.281 237.56C252.128 241.646 232.934 266.351 229.228 271.387Z" fill="#231F20"/>
<path d="M263.53 278.704C276.073 260.365 298.117 239.746 325.863 221.882C367.957 194.706 404.824 203.828 417.272 208.199C420.028 209.149 421.833 211.905 421.548 214.851C420.408 228.058 413.471 265.401 371.473 292.576C343.727 310.535 315.886 322.032 294.032 325.928C294.032 325.928 285.765 321.082 275.123 304.644C264.481 288.206 263.53 278.704 263.53 278.704Z" fill="#777777"/>
<path d="M294.032 326.688C293.937 326.688 293.842 326.688 293.652 326.593C293.272 326.403 285.195 321.462 274.553 305.119C263.91 288.776 262.865 279.274 262.77 278.894C262.77 278.704 262.77 278.609 262.865 278.419C275.883 259.415 298.688 238.605 325.388 221.407C367.197 194.421 403.684 202.783 417.367 207.724C420.408 208.769 422.403 211.81 422.118 215.136C420.883 229.674 413.566 266.351 371.758 293.337C345.057 310.535 316.741 322.793 294.032 326.879V326.688ZM264.196 278.894C264.481 280.414 266.191 289.631 275.693 304.359C285.195 319.087 292.796 324.503 294.127 325.358C316.646 321.272 344.677 309.205 371.092 292.101C412.426 265.401 419.647 229.198 420.883 214.946C421.073 212.285 419.552 209.815 416.987 208.959C403.399 204.208 367.482 195.847 326.148 222.547C299.828 239.556 277.213 260.08 264.196 278.894Z" fill="#231F20"/>
<path d="M421.548 214.946C419.932 231.289 414.136 246.967 404.824 260.555L368.812 204.684C384.965 201.738 401.689 202.973 417.272 208.199C420.028 209.244 421.833 212 421.548 214.946Z" fill="white"/>
<path d="M404.919 261.22C404.729 261.22 404.444 261.125 404.349 260.935L368.242 205.063C368.147 204.873 368.147 204.683 368.242 204.398C368.337 204.208 368.527 204.018 368.717 204.018C391.332 200.122 409.005 204.588 417.557 207.629C420.598 208.674 422.593 211.715 422.308 215.04C421.548 224.067 418.317 242.026 405.489 261.03C405.299 261.125 405.109 261.22 404.919 261.22ZM369.952 205.158L404.919 259.319C417.177 240.886 420.218 223.592 420.978 214.85C421.168 212.19 419.647 209.719 417.082 208.864C408.815 205.918 391.807 201.548 369.952 205.158Z" fill="#231F20"/>
<path d="M354.654 277.088C368.823 277.088 380.309 265.602 380.309 251.433C380.309 237.264 368.823 225.778 354.654 225.778C340.485 225.778 328.999 237.264 328.999 251.433C328.999 265.602 340.485 277.088 354.654 277.088Z" fill="white"/>
<path d="M354.749 277.753C340.211 277.753 328.429 265.971 328.429 251.433C328.429 236.895 340.211 225.113 354.749 225.113C369.287 225.113 381.069 236.895 381.069 251.433C381.069 260.365 376.509 268.726 369.002 273.572C364.726 276.233 359.785 277.753 354.749 277.753ZM354.654 226.443C340.781 226.443 329.569 237.655 329.569 251.528C329.569 265.401 340.781 276.613 354.654 276.613C368.527 276.613 379.739 265.401 379.739 251.528C379.739 239.746 371.473 229.578 359.975 227.013C358.17 226.633 356.459 226.443 354.654 226.443Z" fill="#231F20"/>
<path d="M354.654 267.301C363.418 267.301 370.522 260.196 370.522 251.432C370.522 242.669 363.418 235.564 354.654 235.564C345.89 235.564 338.786 242.669 338.786 251.432C338.786 260.196 345.89 267.301 354.654 267.301Z" fill="#231F20"/>
<path d="M354.749 267.966C345.627 267.966 338.216 260.555 338.216 251.528C338.216 242.406 345.627 234.995 354.654 234.995C363.776 234.995 371.188 242.406 371.188 251.433C371.188 257.039 368.337 262.265 363.586 265.306C361.021 267.016 357.885 267.871 354.749 267.966ZM354.654 236.23C351.709 236.23 348.858 237.085 346.483 238.7C339.451 243.261 337.361 252.668 341.922 259.7C346.483 266.731 355.889 268.822 362.921 264.261C369.952 259.7 372.043 250.293 367.482 243.261C364.631 238.89 359.88 236.23 354.654 236.23Z" fill="#231F20"/>
<path d="M365.296 245.257C365.011 245.257 364.821 245.162 364.726 244.877C364.536 244.496 359.595 235.945 349.333 240.696C349.048 240.886 348.573 240.696 348.478 240.411C348.288 240.126 348.478 239.65 348.763 239.555C360.165 234.329 365.771 244.211 365.866 244.306C366.056 244.591 365.961 245.067 365.581 245.162C365.486 245.162 365.391 245.162 365.296 245.257Z" fill="white"/>
<path d="M367.102 250.768C366.722 250.768 366.437 250.388 366.437 250.008C366.437 249.152 366.342 248.297 365.961 247.537C365.771 247.252 365.866 246.777 366.247 246.587C366.532 246.397 367.007 246.492 367.197 246.872V246.967C367.672 247.917 367.862 248.962 367.767 250.103C367.672 250.483 367.387 250.768 367.102 250.768Z" fill="white"/>
<path d="M271.607 277.943C271.417 277.943 271.322 277.848 271.227 277.848C270.942 277.658 270.847 277.183 271.132 276.898C280.634 265.496 290.801 254.664 301.538 244.497C301.823 244.211 302.203 244.211 302.488 244.497C302.774 244.782 302.774 245.162 302.488 245.447C291.751 255.614 281.679 266.351 272.177 277.753C271.987 277.753 271.797 277.848 271.607 277.943Z" fill="white"/>
<path d="M301.443 296.187C282.914 308.159 259.065 319.847 256.974 316.711C254.884 313.576 275.408 296.567 293.937 284.595C312.465 272.622 324.058 273.382 324.058 273.382C324.058 273.382 319.972 284.215 301.443 296.187Z" fill="#777777"/>
<path d="M258.494 317.757C257.734 317.852 256.974 317.567 256.404 316.996C255.929 316.331 254.599 314.146 267.331 303.314C275.693 296.282 284.435 289.821 293.652 283.93C312.18 271.957 323.678 272.622 324.153 272.622C324.343 272.622 324.533 272.717 324.628 272.907C324.723 273.097 324.723 273.288 324.723 273.478C324.533 273.953 320.352 284.69 301.823 296.662C289.566 304.644 265.906 317.852 258.494 317.757ZM323.108 274.048C319.972 274.143 309.425 275.378 294.412 285.165C285.29 291.056 276.548 297.517 268.281 304.454C258.97 312.436 257.259 315.761 257.639 316.331C259.16 318.612 280.539 309.015 301.253 295.617C316.266 285.925 321.682 276.803 323.108 274.048Z" fill="#231F20"/>
<path d="M186.945 287.73L183.619 284.31L178.868 284.975L181.244 280.794L179.058 276.518L183.809 277.468L187.23 274.047L187.8 278.798L191.981 280.984L187.705 283.074L186.945 287.73Z" fill="#777777"/>
<path d="M230.464 292.006L228.373 289.821L225.523 290.296L226.948 287.73L225.618 285.07L228.468 285.64L230.559 283.549L230.939 286.495L233.599 287.825L230.939 289.06L230.464 292.006Z" fill="#777777"/>
<path d="M210.7 374.198L203.763 370.112L196.447 373.533L198.157 365.646L192.646 359.755L200.723 358.9L204.618 351.869L207.849 359.28L215.736 360.8L209.749 366.121L210.7 374.198Z" fill="#777777"/>
<path d="M162.145 324.598L157.774 319.942L151.503 320.892L154.543 315.381L151.693 309.68L157.964 310.915L162.43 306.449L163.285 312.72L168.891 315.666L163.095 318.327L162.145 324.598Z" fill="#777777"/>
</svg>
