<svg width="400" height="343" viewBox="0 0 400 343" fill="none" xmlns="http://www.w3.org/2000/svg">
<path d="M297.276 82.6562L233.485 98.2068C231.782 99.3418 220.091 100.136 215.551 98.4338C211.011 96.7312 211.465 92.8719 212.373 90.2612C213.281 87.6506 223.61 86.9695 223.61 86.9695C223.61 86.9695 219.07 84.9264 219.297 82.8833C219.524 80.8401 227.583 85.7209 227.583 85.7209L288.423 67.2192L297.276 82.6562Z" fill="white"/>
<path d="M223.724 100.136C220.886 100.25 218.048 99.9093 215.324 99.1147C212.6 98.0932 209.762 95.7095 211.692 89.9206C212.373 87.764 217.594 86.7424 220.999 86.2884C219.637 85.3803 218.275 84.1318 218.502 82.6562C218.502 82.2021 218.843 81.8616 219.183 81.6346C220.772 80.9536 225.086 83.2237 227.696 84.6993L288.196 66.3111C288.536 66.1976 288.877 66.3111 289.104 66.6516L297.957 81.9751C298.071 82.2021 298.071 82.4292 297.957 82.6562C297.844 82.8832 297.617 83.1102 297.39 83.1102L233.712 98.6607C232.35 99.6823 228.037 100.136 223.724 100.136ZM219.978 83.2237C220.205 84.0183 222.135 85.3804 223.837 86.1749C224.178 86.2884 224.405 86.6289 224.291 87.083C224.178 87.4235 223.951 87.764 223.61 87.764C218.843 88.1045 213.508 89.2396 213.054 90.4882C211.805 94.2339 212.713 96.5041 215.778 97.6391C220.318 99.3418 231.669 98.3202 233.031 97.5256C233.145 97.5256 233.145 97.4121 233.258 97.4121L296.028 82.0886L288.082 68.2407L227.81 86.5154C227.583 86.6289 227.356 86.5154 227.129 86.4019C224.178 84.6993 221 83.2237 219.978 83.2237Z" fill="#231F20"/>
<path d="M223.61 86.9692C223.61 86.9692 221.794 92.4176 226.675 93.7797Z" fill="white"/>
<path d="M226.675 94.4616C226.561 94.4616 226.561 94.4616 226.448 94.4616C225.085 94.1211 223.837 93.213 223.156 91.9644C222.475 90.2618 222.361 88.4457 222.929 86.7431C223.156 86.2891 223.61 86.1756 223.95 86.4026C224.291 86.5161 224.518 86.9701 224.404 87.3106C223.95 88.6727 224.064 90.0348 224.518 91.2834C224.972 92.1914 225.88 92.759 226.902 92.986C227.356 93.0995 227.583 93.5535 227.469 93.894C227.242 94.3481 227.015 94.5751 226.675 94.4616Z" fill="#231F20"/>
<path d="M158.683 92.8176C159.478 93.2717 160.159 93.8392 160.726 94.5202C162.315 96.4499 162.883 98.947 162.315 101.331C161.521 104.849 157.094 105.984 154.143 107.574C150.624 109.503 147.105 111.206 143.473 112.908C136.095 116.314 128.604 119.492 120.999 122.443C114.756 124.827 108.513 127.21 102.156 129.253C100.113 129.935 95.573 132.205 93.3029 131.637C90.6922 130.956 85.3574 116.995 97.7297 114.838C100.113 114.384 102.61 113.022 104.881 112.114C110.67 109.957 116.458 107.687 122.134 105.417C128.831 102.693 135.641 99.9686 142.225 97.1309C146.992 95.0878 153.689 90.0934 158.683 92.8176Z" fill="white"/>
<path d="M94.2115 132.432C93.871 132.432 93.4169 132.432 93.0764 132.318C91.1468 131.751 88.8766 126.983 89.1036 122.67C89.2172 119.946 90.5792 115.179 97.6167 113.93C99.2058 113.59 100.795 113.022 102.384 112.227C103.179 111.887 103.973 111.546 104.654 111.206C110.557 108.936 116.459 106.666 121.907 104.509C129.966 101.331 136.209 98.72 141.998 96.2229C143.02 95.7689 144.155 95.2013 145.29 94.6338C149.603 92.4771 154.824 89.6394 159.138 92.1366C160.046 92.5906 160.727 93.2717 161.408 94.0663C163.11 96.1094 163.791 98.9471 163.11 101.558C162.429 104.736 159.251 106.098 156.527 107.347C155.846 107.687 155.165 108.028 154.484 108.368C151.306 110.071 147.787 111.887 143.701 113.703C136.89 116.881 129.512 120.059 121.226 123.238C114.075 125.962 108.059 128.118 102.27 130.048C101.816 130.162 101.135 130.502 100.454 130.729C98.5248 131.637 96.3681 132.205 94.2115 132.432ZM155.278 92.8177C152.327 92.8177 148.922 94.5203 145.971 96.1094C144.722 96.7904 143.587 97.358 142.566 97.812C136.777 100.309 130.534 102.806 122.475 106.098C116.913 108.255 111.124 110.525 105.222 112.795C104.541 113.022 103.746 113.362 103.065 113.703C101.476 114.498 99.7733 115.179 97.9572 115.519C92.2819 116.541 90.9198 119.946 90.8063 122.784C90.5792 126.87 92.8494 130.502 93.6439 130.729C95.1195 131.183 98.0707 129.935 100.114 129.14C100.908 128.799 101.476 128.572 102.043 128.459C107.719 126.643 113.735 124.486 120.886 121.649C129.172 118.47 136.436 115.406 143.247 112.227C147.219 110.411 150.738 108.595 153.916 106.893C154.597 106.552 155.278 106.212 156.073 105.871C158.57 104.736 161.181 103.601 161.748 101.217C162.202 99.0606 161.748 96.9039 160.386 95.0878C159.932 94.4068 159.251 93.9527 158.57 93.4987C157.435 92.9312 156.414 92.7042 155.278 92.8177Z" fill="#231F20"/>
<path d="M245.743 91.0017C244.835 92.3638 243.587 93.3854 241.998 93.8394C239.841 94.8609 237.571 95.769 235.301 96.6771C234.393 97.1311 233.712 97.9256 233.485 98.9472C232.917 101.331 232.577 103.715 232.009 106.098C231.442 108.255 232.123 110.525 233.825 111.887C235.528 113.476 237.117 115.065 238.706 116.654C240.295 118.243 240.295 119.265 239.274 121.081C237.571 124.032 235.755 126.87 233.825 129.708C232.123 132.205 231.101 132.432 228.15 131.41L227.923 131.297C225.766 130.389 223.496 129.594 221.339 128.686C219.977 128.005 218.388 128.119 217.14 129.027C214.983 130.389 212.94 131.864 210.783 133.226C209.762 133.907 209.194 134.929 209.081 136.178C208.967 136.859 208.967 137.653 208.967 138.334C208.967 140.718 208.967 142.988 208.967 145.372C208.967 146.62 208.173 147.755 207.037 148.096C206.583 148.323 206.129 148.55 205.675 148.663C202.043 149.458 198.524 150.139 194.892 150.82C193.871 151.047 192.849 150.593 192.395 149.685C191.827 148.89 191.26 147.982 190.806 146.961C190.011 145.145 189.33 143.215 188.536 141.399C187.968 139.81 186.606 138.788 185.017 138.448L180.023 137.313C175.709 136.405 175.028 136.632 171.964 139.696C170.602 141.172 169.126 142.648 167.65 144.01C166.515 145.258 164.586 145.485 163.224 144.464C160.272 142.534 157.208 140.604 154.37 138.675C152.327 137.313 151.986 136.178 152.894 133.794C153.802 131.41 154.597 129.367 155.619 127.211C156.413 125.508 156.3 123.465 155.165 121.989C154.03 120.287 152.781 118.697 151.646 116.881C150.738 115.065 148.695 113.93 146.652 114.157H146.084H138.933C137.684 114.157 136.549 113.476 136.209 112.228C135.982 111.774 135.755 111.206 135.641 110.752C134.96 107.347 134.279 103.942 133.598 100.536C133.258 99.0607 134.052 97.4716 135.414 96.9041C136.322 96.4501 137.344 95.996 138.365 95.542C139.955 94.8609 141.544 94.2934 143.133 93.6124C144.495 93.0448 145.516 91.9098 145.857 90.4342C146.425 87.8235 146.879 85.0993 147.333 82.3751C147.56 81.3536 147.219 80.332 146.538 79.5375C145.743 78.6294 144.949 77.7213 144.041 76.8133C142.792 75.5647 141.544 74.4296 140.409 73.181C138.706 71.3649 138.593 70.0028 139.955 67.8462C141.771 65.0085 143.7 62.0573 145.63 59.3331C146.538 57.744 148.581 57.063 150.284 57.9711C152.781 58.9926 155.165 60.0142 157.662 60.9222C159.137 61.6033 160.84 61.3763 162.089 60.3547C164.245 58.7656 166.402 57.4035 168.558 55.8144C169.58 55.1334 170.261 53.9983 170.261 52.7497C170.375 51.8417 170.375 50.8201 170.375 49.912C170.375 47.8689 170.261 45.8258 170.375 43.7826C170.375 42.307 171.396 40.945 172.872 40.6044C176.617 39.8099 180.363 39.1288 184.222 38.4478C185.698 38.1073 187.06 38.9018 187.628 40.2639C188.309 41.5125 188.876 42.8746 189.444 44.1232C190.125 45.5988 190.806 47.1879 191.487 48.6635C191.827 49.5715 192.622 50.2526 193.644 50.4796C196.254 51.0471 198.751 51.5011 201.362 52.0687C203.178 52.5227 205.108 51.9552 206.356 50.4796C208.059 48.6635 209.989 46.8473 211.805 45.0312C212.713 44.0096 214.188 43.7826 215.323 44.3502C219.296 46.1663 222.928 48.55 226.107 51.5011C226.561 52.0687 226.788 52.7497 226.788 53.4308C226.674 54.3388 226.447 55.3604 226.107 56.1549C225.199 58.4251 224.291 60.6952 223.383 62.9654C222.928 63.9869 222.928 65.2355 223.496 66.1436C225.199 68.7543 227.015 71.3649 228.944 73.7486C229.512 74.3161 230.193 74.6566 230.987 74.7702C232.009 74.8837 233.144 74.8837 234.166 74.8837C236.209 74.8837 238.138 74.7701 240.182 74.8837C241.884 74.9972 243.246 76.1322 243.587 77.8349C243.927 79.0834 244.154 80.4455 244.495 81.8076C244.949 84.3048 245.403 86.9154 245.857 89.4126L245.743 90.3207V91.0017ZM186.379 117.903C198.978 119.833 210.67 111.206 212.713 98.7202C214.869 84.9858 204.427 73.8621 193.757 72.1595C181.158 70.0028 169.239 78.6294 167.083 91.2287C167.083 91.3422 167.083 91.3422 167.083 91.4557C164.813 101.444 171.623 115.519 186.379 117.903Z" fill="white"/>
<path d="M194.78 151.841C193.644 151.841 192.736 151.274 192.055 150.366C191.374 149.457 190.92 148.549 190.466 147.528C189.899 146.279 189.445 145.031 188.877 143.782C188.65 143.215 188.423 142.534 188.196 141.966C187.742 140.717 186.607 139.696 185.245 139.469L183.088 139.015L180.251 138.447C176.278 137.539 175.824 137.766 172.986 140.604L172.192 141.398C171.057 142.534 169.808 143.782 168.559 144.917C167.197 146.393 164.814 146.62 163.225 145.485C159.933 143.442 156.982 141.512 154.257 139.696C151.987 138.107 151.533 136.631 152.441 133.907C153.349 131.637 154.257 129.367 155.165 127.324C155.847 125.848 155.733 124.145 154.711 122.897L153.69 121.421C152.895 120.286 151.987 119.038 151.193 117.789C150.398 116.2 148.696 115.292 146.879 115.405H146.312H143.928H139.161C137.572 115.405 136.21 114.497 135.642 113.022C135.415 112.454 135.188 111.887 134.961 111.319C134.28 107.914 133.599 104.509 132.918 101.103C132.464 99.2872 133.372 97.3576 135.075 96.563C136.096 95.9955 137.004 95.5415 138.026 95.201C138.934 94.8604 139.842 94.4064 140.864 94.0659L142.907 93.2713C144.042 92.8173 144.95 91.7957 145.177 90.6607C145.631 88.6175 145.971 86.4609 146.425 84.4178L146.766 82.7152C146.879 81.9206 146.652 81.126 146.198 80.5585C145.517 79.6504 144.609 78.8559 143.815 77.8343C143.361 77.3803 142.793 76.8128 142.339 76.3587C141.658 75.6777 140.864 74.9967 140.183 74.2021C138.253 72.0455 138.026 70.3429 139.615 67.9592C141.431 65.1215 143.361 62.1703 145.29 59.3326C146.425 57.403 148.809 56.722 150.852 57.7435C152.101 58.1976 153.349 58.7651 154.598 59.2191L158.23 60.6947C159.365 61.2623 160.841 61.0352 161.862 60.2407C163.452 58.9921 165.154 57.857 166.857 56.722L168.446 55.7004C169.24 55.1329 169.808 54.2248 169.808 53.2032C169.921 52.2952 169.921 51.2736 169.921 50.3656C169.921 49.6845 169.921 49.0035 169.921 48.3224C169.921 46.9603 169.808 45.5982 169.921 44.2361C169.921 42.42 171.17 40.7174 172.986 40.3769C176.278 39.6959 179.797 39.0148 184.337 38.2203C186.153 37.8797 187.856 38.7878 188.537 40.4904C189.104 41.6255 189.558 42.6471 190.126 43.7821L190.466 44.4632C190.693 45.0307 191.034 45.7117 191.261 46.2793C191.715 47.1873 192.055 48.0954 192.509 49.0035C192.736 49.6845 193.304 50.1385 194.099 50.3656L196.709 50.9331C198.412 51.2736 200.114 51.6141 201.704 51.9547C203.293 52.4087 204.882 51.8411 205.903 50.5926C207.038 49.344 208.287 48.2089 209.422 47.0738L211.352 45.1442C212.487 43.8956 214.303 43.5551 215.778 44.3497C219.751 46.1658 223.497 48.6629 226.789 51.6141C227.47 52.2952 227.81 53.2032 227.697 54.2248C227.583 55.2464 227.356 56.2679 226.902 57.176C226.448 58.4246 225.881 59.6732 225.427 61.0352C224.973 62.0568 224.632 63.0784 224.291 63.9864C223.951 64.781 223.951 65.689 224.405 66.4836C225.994 68.7537 227.81 71.4779 229.853 74.0886C230.307 74.5426 230.875 74.7696 231.442 74.8831C232.237 74.9966 232.918 74.9966 233.713 74.9966H236.55C237.799 74.9966 239.274 74.9966 240.523 74.9966C242.566 75.1102 244.269 76.5857 244.723 78.5154C245.063 79.7639 245.29 81.126 245.631 82.4881C245.971 84.3042 246.312 86.1204 246.539 87.9365L246.879 90.2066C246.879 90.3201 246.879 90.4336 246.879 90.4336L246.766 91.3417C246.766 91.4552 246.766 91.4552 246.652 91.5687C245.744 93.0443 244.269 94.1794 242.566 94.7469C241.204 95.3145 239.842 95.882 238.593 96.4495L235.869 97.5846C235.188 97.9251 234.621 98.4927 234.507 99.2872C234.28 100.195 234.167 101.103 233.94 102.011C233.599 103.487 233.372 104.963 233.032 106.552C232.464 108.368 233.145 110.411 234.621 111.546C236.21 112.908 237.685 114.497 239.615 116.427C241.545 118.356 241.545 119.719 240.296 121.875C238.139 125.394 236.437 128.118 234.848 130.502C232.918 133.226 231.556 133.68 228.264 132.545L228.037 132.431L225.994 131.637C224.405 131.069 222.929 130.388 221.34 129.707C220.205 129.14 218.957 129.253 217.935 129.934L217.027 130.502C215.211 131.75 213.395 132.999 211.579 134.134C210.784 134.702 210.33 135.496 210.33 136.518C210.217 137.312 210.217 137.993 210.217 138.561C210.217 139.809 210.217 141.171 210.217 142.42V145.598C210.217 147.187 209.309 148.549 207.833 149.117L207.606 149.23C207.152 149.457 206.698 149.571 206.244 149.684L198.525 151.274L195.461 151.841C195.234 151.841 195.007 151.955 194.78 151.955V151.841ZM177.186 136.404C178.321 136.404 179.456 136.631 180.591 136.858C181.499 137.085 182.407 137.312 183.429 137.426L185.585 137.88C187.515 138.22 188.991 139.469 189.785 141.285L190.58 143.101C191.034 144.35 191.601 145.598 192.055 146.733C192.509 147.641 192.963 148.549 193.531 149.344C193.872 150.025 194.553 150.252 195.234 150.139L198.298 149.571C200.909 149.003 203.52 148.549 206.017 147.982C206.357 147.868 206.698 147.755 207.038 147.528L207.265 147.414C208.173 147.074 208.741 146.279 208.741 145.371V142.193C208.741 140.944 208.741 139.582 208.741 138.334C208.741 137.539 208.741 136.858 208.854 136.064C208.968 134.588 209.649 133.339 210.898 132.545C212.714 131.296 214.53 130.161 216.346 128.913L217.254 128.345C218.73 127.324 220.546 127.21 222.135 127.891C223.61 128.572 225.2 129.14 226.675 129.707L228.605 130.502V131.296L228.832 130.502C231.442 131.41 232.01 131.183 233.486 129.026C235.075 126.642 236.777 124.032 238.934 120.513C239.842 119.037 239.728 118.356 238.48 116.994C236.664 115.065 235.075 113.589 233.599 112.227C231.669 110.638 230.875 108.141 231.442 105.644C231.783 104.168 232.123 102.692 232.351 101.217C232.578 100.309 232.691 99.4007 232.918 98.4927C233.145 97.2441 233.94 96.109 235.188 95.655L237.912 94.5199C239.274 93.9524 240.523 93.3848 241.885 92.8173C243.134 92.4768 244.382 91.6822 245.177 90.5472L245.29 89.8661L244.95 87.7095C244.609 85.8934 244.382 84.0772 244.042 82.2611C243.815 80.899 243.474 79.6505 243.134 78.4019C242.907 77.0398 241.772 76.0182 240.41 76.0182C239.161 75.9047 237.799 76.0182 236.55 76.0182H233.713C232.805 76.0182 232.01 76.0182 231.102 75.9047C230.08 75.7912 229.172 75.3372 228.605 74.5426C226.562 71.8184 224.632 69.2078 223.156 66.8241C222.362 65.6891 222.362 64.2135 222.929 62.8514C223.27 61.8298 223.724 60.8082 224.064 59.7867C224.519 58.5381 225.086 57.2895 225.54 55.9274C225.881 55.1329 226.108 54.2248 226.221 53.4303C226.221 52.9762 226.108 52.5222 225.881 52.1817C222.702 49.344 219.184 46.9603 215.211 45.1442C214.303 44.6902 213.168 44.9172 212.6 45.5982L210.671 47.5279C209.536 48.6629 208.287 49.798 207.152 51.0466C205.79 52.7492 203.52 53.4303 201.363 52.8627C199.774 52.5222 198.071 52.1817 196.369 51.8411L193.644 51.2736C192.396 51.0466 191.488 50.1385 190.92 49.0035C190.466 48.0954 190.126 47.1873 189.672 46.2793L188.877 44.4632L188.537 43.7821C188.083 42.6471 187.515 41.6255 187.061 40.6039C186.721 39.5823 185.585 39.0148 184.564 39.2418C180.024 40.0364 176.505 40.7174 173.327 41.3985C172.192 41.6255 171.397 42.6471 171.511 43.7821C171.397 45.0307 171.511 46.3928 171.511 47.7549C171.511 48.4359 171.511 49.117 171.511 49.798C171.511 50.7061 171.511 51.7276 171.397 52.7492C171.284 54.2248 170.602 55.5869 169.354 56.3814L167.765 57.403C166.176 58.5381 164.473 59.6732 162.884 60.8082C161.408 61.9433 159.479 62.1703 157.776 61.4893L154.144 60.0137C152.895 59.5597 151.647 58.9921 150.398 58.5381C149.15 57.857 147.447 58.3111 146.766 59.5596C144.836 62.3973 142.907 65.235 141.091 68.0727C139.956 69.8888 140.069 70.7969 141.545 72.386C142.226 73.067 142.907 73.7481 143.588 74.4291L145.063 75.9047C145.971 76.8128 146.766 77.7208 147.56 78.6289C148.355 79.5369 148.696 80.899 148.469 82.1476L148.128 83.8502C147.788 86.0069 147.333 88.05 146.879 90.2066C146.539 91.9092 145.29 93.3848 143.701 93.9524L141.658 94.7469L138.934 95.882C137.912 96.2225 137.004 96.6765 136.096 97.2441C134.961 97.6981 134.394 98.8332 134.621 100.082C135.302 103.487 135.983 106.892 136.664 110.297C136.777 110.751 136.891 111.092 137.118 111.546C137.345 112.454 138.253 113.135 139.274 113.135H144.042H146.425H146.879C149.263 112.908 151.533 114.157 152.668 116.2C153.349 117.448 154.257 118.583 155.052 119.719C155.392 120.173 155.733 120.74 156.187 121.194C157.436 122.897 157.663 125.28 156.755 127.21C155.847 129.253 154.938 131.523 154.144 133.68C153.349 135.723 153.576 136.404 155.279 137.653C157.89 139.469 160.841 141.398 164.133 143.442C165.154 144.236 166.63 144.123 167.538 143.101C168.786 141.966 169.921 140.831 171.057 139.582L171.851 138.788C174.008 137.312 175.143 136.404 177.186 136.404ZM189.899 118.924C188.65 118.924 187.402 118.81 186.267 118.697C179.683 117.675 173.781 114.043 170.035 108.595C166.516 103.6 165.154 97.3576 166.289 91.3417C168.219 78.4019 180.251 69.4348 193.304 71.3644C199.774 72.2725 205.449 75.9047 209.195 81.126C212.941 86.2339 214.53 92.5903 213.508 98.8332C211.579 110.297 201.59 118.924 189.899 118.924ZM186.494 117.108C198.639 118.924 209.99 110.638 211.919 98.4927C212.827 92.5903 211.352 86.6879 207.833 81.9206C200.795 71.9319 186.948 69.5483 176.959 76.5857C171.965 80.1045 168.673 85.4393 167.765 91.4552C166.743 97.1306 167.992 102.919 171.284 107.573C174.802 112.681 180.364 116.2 186.494 117.108Z" fill="#231F20"/>
<path d="M362.656 259.955C362.996 261.09 366.855 267.56 366.061 268.809C365.266 270.057 353.008 277.889 356.64 279.024C360.272 280.159 381.044 277.322 381.044 277.322L368.445 244.291L362.656 259.955Z" fill="#231F20"/>
<path d="M359.931 280.045C358.796 280.045 357.548 280.045 356.413 279.705C355.845 279.591 355.391 279.024 355.164 278.456C354.937 276.754 357.321 274.597 362.656 270.511C363.564 269.83 364.472 269.149 365.38 268.354C365.607 267.56 363.564 263.7 362.883 262.225C362.542 261.544 362.202 260.976 361.975 260.295C361.975 260.068 361.975 259.955 361.975 259.728L367.763 244.064C367.877 243.723 368.218 243.496 368.445 243.496C368.785 243.496 369.012 243.723 369.126 244.064L381.725 277.094C381.838 277.321 381.838 277.548 381.725 277.775C381.611 278.002 381.384 278.116 381.157 278.116C379.341 278.343 366.628 280.045 359.931 280.045ZM356.753 278.116H356.867C359.591 279.024 373.552 277.435 379.909 276.527L368.445 246.447L363.45 259.841C363.564 260.182 363.904 260.749 364.245 261.317C366.515 265.744 367.423 268.014 366.742 269.035C365.834 270.057 364.812 270.851 363.677 271.646C361.748 273.235 356.867 276.981 356.753 278.116Z" fill="#231F20"/>
<path d="M304.086 253.598C304.086 253.598 311.35 274.37 310.102 274.824C308.853 275.278 278.433 282.315 279.682 280.499C280.931 278.683 295.232 271.192 295.346 272.1C295.459 273.008 293.416 261.998 293.416 261.998L304.086 253.598Z" fill="#231F20"/>
<path d="M280.59 281.407C279.796 281.407 279.228 281.294 279.001 281.067C278.774 280.726 278.774 280.272 279.001 279.932C280.023 278.57 290.806 272.327 294.438 271.305C294.211 270.397 293.984 269.149 293.644 267.106L292.622 261.998C292.622 261.657 292.622 261.43 292.849 261.203L303.519 252.804C303.746 252.69 303.973 252.577 304.2 252.69C304.427 252.804 304.654 252.917 304.767 253.144C312.259 274.597 311.01 275.051 310.329 275.392C310.102 275.619 286.947 281.407 280.59 281.407ZM295.006 272.781C290.352 274.711 285.812 277.094 281.498 279.932C287.174 279.364 306.357 275.051 309.421 274.143C309.308 272.1 306.584 263.246 303.746 254.847L294.438 262.225C294.779 264.154 296.141 271.078 296.254 271.759C296.368 272.213 296.027 272.554 295.573 272.667C295.346 272.894 295.119 272.894 295.006 272.781ZM294.665 272.213C294.552 272.327 294.665 272.554 294.779 272.667C294.779 272.44 294.665 272.327 294.665 272.213Z" fill="#231F20"/>
<path d="M292.621 131.238C292.621 131.238 271.282 175.279 271.055 189.24C270.828 203.201 288.989 261.885 288.989 261.885L307.604 258.82C307.604 258.82 293.756 200.137 295.799 194.007C297.843 187.878 313.847 148.377 313.847 148.377C313.847 148.377 320.09 182.202 324.63 194.688C329.057 207.174 357.32 260.523 357.32 260.523L376.73 256.777C376.73 256.777 350.964 196.958 349.942 186.629C348.921 176.3 343.927 121.249 343.927 121.249L292.621 131.238Z" fill="#231F20"/>
<path d="M288.99 262.792C288.649 262.792 288.309 262.565 288.195 262.225C287.401 259.841 269.921 203.201 270.148 189.353C270.375 175.505 290.92 132.826 291.828 131.01C291.941 130.783 292.168 130.67 292.395 130.556L343.927 120.681C344.155 120.681 344.382 120.681 344.495 120.795C344.722 120.908 344.836 121.135 344.836 121.362C344.836 121.362 349.943 176.527 350.851 186.856C351.76 196.958 377.299 256.095 377.526 256.663C377.753 257.003 377.526 257.571 377.185 257.685C377.072 257.685 377.072 257.798 376.958 257.798L357.548 261.544C357.208 261.657 356.867 261.43 356.64 261.09C355.505 258.933 328.263 207.514 323.837 195.142C320.091 184.813 315.097 159.614 313.508 151.328C309.989 160.068 298.184 189.24 296.481 194.347C294.779 199.228 304.427 242.475 308.286 258.706C308.4 259.16 308.173 259.614 307.719 259.614L289.103 262.679L288.99 262.792ZM293.19 132.032C291.147 136.232 272.077 176.413 271.85 189.353C271.623 202.293 287.628 254.62 289.557 261.09L306.584 258.252C304.427 249.285 292.963 199.796 295.006 193.893C297.049 187.991 312.486 149.853 313.054 148.263C313.167 147.809 313.735 147.696 314.075 147.809C314.302 147.923 314.529 148.15 314.529 148.377C314.643 148.717 320.885 182.316 325.312 194.574C329.512 206.152 354.824 254.279 357.775 259.841L375.71 256.436C372.304 248.604 350.17 196.731 349.262 186.969C348.354 177.435 343.927 129.421 343.36 122.384L293.19 132.032Z" fill="#231F20"/>
<path d="M290.125 56.8901L265.267 69.83L269.92 95.2556L293.303 89.6938L290.125 56.8901Z" fill="#7A7A7A"/>
<path d="M290.124 56.89C291.6 54.8469 322.247 47.8095 331.555 55.528C340.862 63.2465 346.992 117.503 348.467 134.189L288.195 138.502C288.081 138.502 281.952 68.0138 290.124 56.89Z" fill="#7A7A7A"/>
<path d="M287.627 133.508C287.173 133.508 286.833 133.167 286.833 132.827C286.719 130.783 283.087 83.6779 285.698 71.9866C285.811 71.5326 286.265 71.3056 286.606 71.4191C286.946 71.5326 287.287 71.9866 287.173 72.3271C284.563 83.6778 288.308 132.145 288.308 132.6C288.422 133.054 288.081 133.394 287.627 133.508Z" fill="#231F20"/>
<path d="M307.719 45.3121C311.124 44.6311 314.189 43.042 316.686 40.6583C317.821 39.6367 318.729 38.2747 319.07 36.7991C319.41 35.21 318.729 33.6208 317.367 32.9398C318.843 32.0317 319.864 30.5562 319.978 28.8535C320.091 27.1509 319.864 25.4483 319.07 23.9727C318.162 21.9296 316.573 20 314.416 19.7729C315.324 18.1838 316.232 16.2542 315.665 14.4381C315.324 13.53 314.643 12.849 313.962 12.2815C312.6 11.0329 311.124 9.89781 309.535 8.98975C308.741 8.42221 307.605 7.96818 306.811 8.53572C306.13 4.90348 303.406 2.0658 299.887 1.15774C298.184 0.703708 296.368 0.703713 294.666 1.38476C293.077 2.40632 291.601 3.42789 290.239 4.67647C287.742 3.76841 283.655 4.10893 281.612 5.92505C279.796 7.51416 279.002 10.0113 279.569 12.2815C277.64 13.1895 275.937 14.4381 274.575 16.0272C273.213 17.6163 272.645 19.773 273.099 21.9296C273.553 24.0862 275.483 25.5618 277.64 25.5618C275.823 27.2644 275.483 30.1021 276.958 32.1453C278.548 34.0749 281.045 34.9829 283.542 34.3019C283.882 34.1884 284.223 34.1884 284.563 34.1884C284.904 34.3019 285.358 34.6424 285.585 34.8694C286.607 35.7775 287.969 35.5505 288.99 36.2315C290.466 37.2531 291.828 38.3882 293.19 39.6367C294.552 40.7718 295.914 41.6799 297.39 42.7014C298.979 43.723 300.455 45.3121 302.271 45.9932C303.86 46.5607 304.881 45.9932 306.47 45.6526L307.719 45.3121Z" fill="white"/>
<path d="M303.632 47.0149C303.064 47.0149 302.497 46.9014 302.043 46.6744C300.794 46.1069 299.545 45.4258 298.524 44.5178C297.956 44.1772 297.502 43.7232 296.935 43.3827C295.459 42.4746 293.984 41.453 292.621 40.318C292.167 39.9775 291.713 39.5234 291.259 39.1829C290.465 38.3883 289.557 37.5938 288.535 37.0263C288.081 36.7993 287.741 36.6857 287.287 36.5722C286.492 36.4587 285.698 36.1182 285.016 35.5507L284.789 35.3237C284.676 35.2101 284.562 35.0966 284.335 34.9831C284.108 34.9831 283.995 34.9831 283.768 35.0966C281.044 35.8912 277.979 34.9831 276.276 32.713C274.914 30.7834 274.914 28.2862 276.049 26.2431C274.233 25.562 272.758 24.0864 272.304 22.1568C271.85 19.8866 272.417 17.3895 274.006 15.5734C275.255 13.9843 276.844 12.7357 278.66 11.8276C278.32 9.33046 279.228 6.94681 281.044 5.2442C283.314 3.31458 287.287 2.97405 290.011 3.7686C291.373 2.63353 292.849 1.49845 294.324 0.590394C296.14 -0.0906501 298.183 -0.204154 299.999 0.363383C303.518 1.27144 306.242 3.99562 307.264 7.51435C308.172 7.51435 309.08 7.74136 309.875 8.3089C311.464 9.33046 313.053 10.4655 314.415 11.7141C315.209 12.3952 315.891 13.3032 316.345 14.2113C316.799 15.9139 316.572 17.73 315.55 19.2056C317.48 20.0002 318.955 21.7028 319.75 23.6324C320.544 25.335 320.885 27.1511 320.658 28.9672C320.431 30.5563 319.75 31.9184 318.615 32.94C319.636 34.0751 319.977 35.5507 319.75 36.9128C319.296 38.6154 318.388 40.091 317.139 41.226C314.528 43.6097 311.237 45.3123 307.831 45.9933L306.583 46.3339C306.242 46.4474 305.902 46.5609 305.561 46.5609C304.994 47.0149 304.313 47.1284 303.632 47.0149ZM284.222 33.394C284.335 33.394 284.449 33.394 284.562 33.394C285.016 33.5075 285.471 33.7346 285.811 34.1886L285.925 34.3021C286.379 34.6426 286.946 34.8696 287.514 34.9831C288.081 35.0966 288.649 35.3237 289.216 35.5507C290.351 36.2317 291.373 37.0263 292.281 37.9343C292.735 38.2748 293.189 38.7289 293.53 39.0694C294.892 40.091 296.254 41.1125 297.729 42.0206C298.297 42.3611 298.864 42.8151 299.432 43.2692C300.34 44.0637 301.362 44.7448 302.497 45.1988C303.291 45.5393 304.313 45.4258 305.107 45.0853C305.448 44.9718 305.788 44.8583 306.242 44.7448L307.377 44.5178C310.556 43.8367 313.62 42.3611 316.004 40.091C317.026 39.1829 317.82 38.0478 318.161 36.6857C318.388 35.5507 317.934 34.3021 316.912 33.621C316.572 33.394 316.345 32.94 316.572 32.5995C316.685 32.486 316.799 32.259 316.912 32.259C318.161 31.5779 319.069 30.2158 319.182 28.7402C319.296 27.1511 319.069 25.562 318.388 24.1999C317.934 23.1784 316.572 20.6812 314.415 20.4542C314.188 20.4542 313.961 20.2272 313.847 20.0002C313.734 19.7731 313.734 19.4326 313.847 19.2056C314.642 17.73 315.55 16.0274 314.982 14.5518C314.642 13.8708 314.188 13.1897 313.507 12.6222C312.145 11.3736 310.783 10.352 309.194 9.44397C308.626 9.10345 307.718 8.64942 307.264 8.98994C307.037 9.10345 306.696 9.10345 306.469 8.98994C306.242 8.87643 306.015 8.64942 306.015 8.4224C305.334 5.13069 302.837 2.52002 299.659 1.72547C298.07 1.27144 296.481 1.38495 295.005 1.95249C293.643 2.86055 292.281 3.88211 290.919 4.90368C290.692 5.2442 290.351 5.35771 289.897 5.2442C287.741 4.44965 283.995 4.67666 282.065 6.26576C280.476 7.74136 279.795 9.898 280.363 11.9411C280.476 12.2817 280.249 12.6222 279.909 12.8492C278.093 13.6437 276.503 14.8923 275.255 16.3679C274.006 17.8435 273.552 19.7731 273.893 21.5893C274.347 23.2919 275.822 24.5405 277.525 24.654C277.866 24.654 278.206 24.881 278.32 25.108C278.433 25.4485 278.32 25.789 278.093 26.016C276.503 27.4916 276.276 29.7618 277.525 31.5779C278.887 33.2805 281.157 33.9616 283.2 33.394C283.541 33.5075 283.881 33.394 284.222 33.394Z" fill="#231F20"/>
<path d="M284.45 35.5508C284.45 35.5508 281.499 43.6098 282.747 44.8584C283.996 46.107 286.947 44.4044 286.947 44.4044" fill="white"/>
<path d="M284.109 46.1068C283.428 46.1068 282.747 45.8798 282.293 45.4257C280.817 44.0636 282.633 38.5018 283.768 35.3236C283.995 34.8696 284.449 34.756 284.79 34.8696C285.131 34.9831 285.358 35.4371 285.244 35.8911C283.768 39.7504 282.974 43.7231 283.428 44.4042C284.109 44.9717 285.925 44.1772 286.72 43.8366C287.06 43.6096 287.628 43.7231 287.855 44.1772C288.082 44.5177 287.968 45.0852 287.514 45.3122C286.379 45.6528 285.244 45.9933 284.109 46.1068Z" fill="#231F20"/>
<path d="M282.407 19.8865C282.066 20.2271 281.726 20.6811 281.726 21.2486C281.385 23.0647 281.385 24.8809 281.612 26.697C282.066 30.3292 282.861 33.8479 283.769 37.2532C284.904 41.907 286.153 46.5608 287.401 51.1011C288.309 54.0523 295.914 52.2361 297.049 51.1011L298.638 63.0193C298.638 63.0193 302.498 63.1329 308.06 58.9331C313.621 54.7333 313.281 53.1442 313.281 53.1442L309.649 39.8638C309.649 39.8638 304.654 41.1124 300.228 35.7776C299.546 34.8695 298.979 33.5074 298.184 32.8264C297.163 32.0318 295.914 32.0318 295.006 30.8968C294.212 29.7617 293.985 28.3996 294.325 27.0375C294.439 26.8105 294.552 26.3565 294.325 26.1294C294.212 26.0159 293.985 25.9024 293.871 25.9024C291.828 25.3349 290.693 23.4053 291.147 21.3621C289.217 21.8162 287.515 20.2271 286.153 18.7515C286.607 19.2055 283.201 19.6595 283.088 19.6595C282.861 19.6595 282.634 19.773 282.407 19.8865Z" fill="white"/>
<path d="M298.639 63.8143C298.185 63.8143 297.844 63.4738 297.844 63.1333L296.482 52.4636C294.098 53.4852 291.601 53.7122 289.104 53.3717C287.969 53.2582 287.061 52.4636 286.72 51.442C285.358 46.9017 284.11 42.2479 282.975 37.5941L282.748 36.5726C281.839 33.3944 281.272 30.1027 280.818 26.8109C280.477 24.8813 280.477 22.9517 280.931 21.0221C281.045 20.341 281.385 19.7735 281.953 19.2059C282.18 18.9789 282.521 18.8654 282.861 18.7519H283.088C283.883 18.6384 284.564 18.5249 285.358 18.2979C285.358 18.1844 285.472 18.1844 285.585 18.0709C285.926 17.7303 286.38 17.8439 286.72 18.0709C287.855 19.433 289.444 20.795 290.92 20.4545C291.147 20.341 291.488 20.4545 291.715 20.6815C291.942 20.9086 291.942 21.1356 291.828 21.4761C291.374 23.0652 292.396 24.6543 293.871 24.9948C294.212 24.9948 294.552 25.2218 294.779 25.4489C295.12 25.9029 295.233 26.5839 295.006 27.038C294.666 28.173 294.893 29.3081 295.574 30.2162C295.914 30.6702 296.482 31.0107 297.049 31.1242C297.617 31.3512 298.185 31.5783 298.639 31.9188C299.206 32.4863 299.774 33.1674 300.114 33.8484C300.341 34.1889 300.568 34.6429 300.795 34.9835C304.768 39.7508 309.195 38.8427 309.422 38.8427C309.876 38.7292 310.216 38.9562 310.33 39.4103L313.962 52.6906C314.076 53.3717 313.735 55.1878 308.514 59.274C303.292 63.3603 299.32 63.9278 298.639 63.8143ZM297.049 50.4205C297.163 50.4205 297.163 50.4205 297.277 50.4205C297.617 50.534 297.731 50.761 297.844 51.1015L299.32 62.2252C302.384 61.6577 305.222 60.2956 307.492 58.2525C311.692 54.9608 312.259 53.4852 312.373 53.1447L308.968 40.6588C307.265 40.7723 303.179 40.6588 299.547 36.2321C299.206 35.778 298.979 35.324 298.639 34.87C298.298 34.3024 297.958 33.8484 297.503 33.3944C297.163 33.1674 296.822 32.9403 296.368 32.8268C295.574 32.5998 294.779 32.0323 294.212 31.3512C293.19 30.1027 292.963 28.4 293.417 26.8109V26.6974C292.282 26.4704 291.261 25.6759 290.693 24.6543C290.239 23.9733 290.012 23.0652 290.012 22.2706C288.423 21.9301 286.947 21.1356 285.926 19.887C285.018 20.114 284.11 20.341 283.202 20.4545C283.088 20.4545 282.861 20.568 282.748 20.6815C282.634 20.7951 282.521 21.0221 282.294 21.5896C281.953 23.2922 281.953 24.9948 282.294 26.8109C282.748 29.9892 283.315 33.1674 284.223 36.3456L284.45 37.3671C285.585 42.0209 286.834 46.6747 288.082 51.215C288.196 51.6691 288.65 51.8961 289.331 52.1231C291.715 52.6906 295.801 51.5555 296.368 50.8745C296.595 50.4205 296.822 50.4205 297.049 50.4205Z" fill="#231F20"/>
<path d="M296.481 34.0748C296.367 32.8262 296.481 31.6911 297.048 30.556C297.276 29.648 297.73 28.8534 298.184 28.0589C298.751 27.2643 299.546 26.8103 300.454 26.6968C301.248 26.6968 302.043 27.0373 302.61 27.7183C303.178 28.3994 303.518 29.0804 303.745 29.875C304.767 33.3937 303.745 37.1395 301.248 39.7501L301.475 39.4096" fill="white"/>
<path d="M301.249 40.545C301.022 40.545 300.908 40.4315 300.795 40.4315C300.454 40.2045 300.341 39.7505 300.568 39.4099L300.681 39.1829C302.951 36.7993 303.859 33.2805 302.951 30.1023C302.724 29.4213 302.497 28.7403 302.043 28.2862C301.703 27.8322 301.135 27.6052 300.454 27.4917C299.773 27.6052 299.092 27.9457 298.752 28.5132C298.297 29.1943 297.957 29.9888 297.616 30.7834C297.162 31.6914 296.935 32.8265 297.049 33.8481C297.162 34.3021 296.822 34.6426 296.481 34.7561C296.027 34.8697 295.687 34.6426 295.573 34.1886C295.346 32.8265 295.573 31.4644 296.141 30.2159C296.481 29.1943 296.822 28.2862 297.389 27.4917C298.07 26.4701 299.092 25.9026 300.341 25.7891C301.362 25.7891 302.384 26.2431 303.065 27.0376C303.632 27.7187 304.086 28.6267 304.313 29.5348C305.335 33.2805 304.313 37.3668 301.589 40.2045C301.703 40.4315 301.476 40.545 301.249 40.545Z" fill="#231F20"/>
<path d="M297.049 51.2142C297.049 51.2142 300.681 49.0576 301.93 45.8794C301.93 45.8794 303.292 53.0304 297.73 56.4356L297.049 51.2142Z" fill="#231F20"/>
<path d="M297.73 57.231C297.616 57.231 297.502 57.231 297.389 57.1175C297.162 57.004 296.935 56.7769 296.935 56.5499L296.254 51.2151C296.254 50.8746 296.367 50.534 296.594 50.4205C296.594 50.4205 300 48.3774 301.135 45.5397C301.248 45.1992 301.589 44.9722 301.929 45.0857C302.27 45.0857 302.61 45.4262 302.61 45.7667C302.61 46.1072 304.086 53.4852 298.07 57.231C298.07 57.231 297.957 57.231 297.73 57.231ZM297.957 51.5556L298.411 55.0743C300.227 53.3717 301.248 50.9881 301.362 48.6044C300.34 49.7395 299.205 50.7611 297.957 51.5556Z" fill="#231F20"/>
<path d="M287.402 32.5487C287.765 32.4494 287.858 31.6336 287.609 30.7266C287.361 29.8197 286.865 29.165 286.503 29.2644C286.14 29.3638 286.047 30.1796 286.296 31.0865C286.544 31.9934 287.039 32.6481 287.402 32.5487Z" fill="#231F20"/>
<path d="M288.309 47.9231C287.968 47.9231 287.628 47.9231 287.174 47.8096C286.72 47.6961 286.493 47.2421 286.606 46.788C286.72 46.334 287.174 46.107 287.628 46.2205C287.741 46.2205 290.238 46.9015 292.168 43.2693C292.395 42.9288 292.849 42.7018 293.19 42.9288C293.53 43.1558 293.757 43.6098 293.53 43.9504C292.054 47.1286 289.898 47.9231 288.309 47.9231Z" fill="#231F20"/>
<path d="M292.735 85.2671C292.735 85.2671 251.191 113.303 245.289 112.963C239.387 112.622 230.76 108.309 230.533 111.374C230.306 114.438 239.046 117.049 239.046 117.049C239.046 117.049 226.901 118.525 227.241 122.043C227.582 125.562 231.895 129.648 237.003 129.081C242.111 128.513 245.63 125.789 250.17 125.108C254.71 124.427 302.27 101.045 302.27 101.045L292.735 85.2671Z" fill="white"/>
<path d="M236.095 130.102C233.825 130.102 231.668 129.308 229.852 127.832C228.036 126.47 226.788 124.427 226.447 122.27C226.106 119.205 231.895 117.616 235.755 116.822C233.03 115.687 229.512 113.757 229.625 111.373C229.625 110.806 229.966 110.238 230.42 110.011C231.782 109.103 234.506 109.784 237.911 110.692C240.295 111.373 242.679 111.941 245.176 112.168H245.289C249.716 112.168 275.709 95.7094 292.168 84.5857C292.395 84.4722 292.622 84.4722 292.735 84.4722C292.962 84.4722 293.076 84.6992 293.303 84.8127L302.951 100.817C303.064 101.044 303.064 101.271 303.064 101.498C302.951 101.725 302.837 101.839 302.61 101.952C300.681 102.86 254.937 125.335 250.284 126.016C248.354 126.47 246.424 127.037 244.608 127.832C242.225 128.854 239.727 129.648 237.117 129.989C236.89 130.102 236.549 130.102 236.095 130.102ZM232.236 111.146C232.009 111.146 231.668 111.146 231.441 111.26C231.441 111.26 231.328 111.373 231.328 111.487C231.214 113.19 235.982 115.346 239.273 116.368C239.614 116.481 239.841 116.822 239.841 117.162C239.841 117.503 239.5 117.843 239.16 117.843C234.393 118.411 227.923 120.227 228.036 122.043C228.377 123.859 229.398 125.448 230.874 126.583C232.576 127.945 234.733 128.627 237.003 128.4C239.5 128.059 241.884 127.378 244.154 126.356C246.084 125.448 248.127 124.881 250.17 124.427C253.575 123.859 284.676 108.99 301.248 100.817L292.395 86.2883C285.811 90.7151 250.851 113.984 245.176 113.644C242.565 113.417 240.068 112.849 237.571 112.054C235.982 111.714 234.165 111.26 232.236 111.146Z" fill="#231F20"/>
<path d="M308.853 69.4893L291.486 82.2021L304.313 103.882L318.728 94.8014" fill="#7A7A7A"/>
<path d="M304.313 104.677C304.199 104.677 304.199 104.677 304.086 104.677C303.859 104.677 303.745 104.45 303.632 104.336L290.806 82.5429C290.579 82.2024 290.692 81.7484 291.033 81.5214L308.399 68.9221C308.74 68.695 309.307 68.6951 309.534 69.1491C309.761 69.4896 309.761 70.0571 309.421 70.2842L292.622 82.5429L304.654 102.974L318.274 94.3477C318.615 94.1207 319.182 94.2342 319.409 94.5747C319.636 94.9153 319.523 95.4828 319.182 95.7098L304.881 104.79C304.653 104.677 304.54 104.677 304.313 104.677Z" fill="#231F20"/>
<path d="M122 321.586H1V341.586H122V321.586Z" fill="white"/>
<path d="M122.204 342.586H0.795745C0.341032 342.586 0 342.434 0 342.231V321.942C0 321.739 0.341032 321.586 0.795745 321.586H122.204C122.659 321.586 123 321.739 123 321.942V342.231C123 342.434 122.659 342.586 122.204 342.586ZM1.59149 341.876H121.409V322.297H1.59149V341.876Z" fill="#231F20"/>
<path d="M260.613 289.479H139.387V342.072H260.613V289.479Z" fill="white"/>
<path d="M260.612 342.586H139.386C138.932 342.586 138.592 342.329 138.592 341.986V289.393C138.592 289.05 138.932 288.792 139.386 288.792H260.612C261.066 288.792 261.407 289.05 261.407 289.393V341.986C261.407 342.329 261.066 342.586 260.612 342.586ZM140.181 341.385H259.818V289.994H140.181V341.385Z" fill="#231F20"/>
<path d="M399 281H278V342H399V281Z" fill="white"/>
<path d="M399.204 343H277.796C277.341 343 277 342.789 277 342.507V281.493C277 281.211 277.341 281 277.796 281H399.204C399.659 281 400 281.211 400 281.493V342.507C400 342.789 399.659 343 399.204 343ZM278.591 342.015H398.408V281.985H278.591V342.015Z" fill="#231F20"/>
<path d="M100.682 211.249C100.682 211.249 99.7735 212.951 98.4114 215.562C92.509 226.913 88.5362 246.209 76.5044 257.446C72.0777 261.533 23.61 282.758 23.61 282.758L18.3887 268.343C18.3887 268.343 56.8677 244.052 60.0459 240.761C64.1321 236.561 81.6123 180.715 81.6123 180.715L100.682 211.249Z" fill="white"/>
<path d="M23.7235 283.553C23.61 283.553 23.4965 283.553 23.383 283.44C23.156 283.326 23.0424 283.213 22.9289 282.986L17.7076 268.684C17.5941 268.343 17.7076 267.889 18.0481 267.776C31.3285 259.376 57.0947 242.918 59.5918 240.307C62.8835 237.015 76.1639 196.039 81.0447 180.602C81.1582 180.262 81.3852 180.035 81.7258 180.035C82.0663 180.035 82.2933 180.148 82.5203 180.375L101.476 210.795C101.59 211.022 101.59 211.363 101.476 211.59C101.476 211.59 100.568 213.292 99.2059 215.903C97.2763 219.876 95.5737 223.962 93.9846 228.162C90.0118 238.491 85.585 250.069 77.1855 258.014C72.7587 262.214 26.1071 282.645 24.064 283.44C23.837 283.553 23.7235 283.553 23.7235 283.553ZM19.4102 268.797L24.1775 281.737C41.0901 274.359 72.6452 260.057 76.0504 256.879C84.2229 249.274 88.6497 237.81 92.509 227.708C94.0981 223.508 95.8007 219.308 97.7303 215.222C98.7519 213.292 99.4329 211.93 99.7734 211.249L81.9528 182.759C79.0016 192.18 64.4726 237.469 60.7269 241.442C57.5487 244.62 24.291 265.733 19.4102 268.797Z" fill="#231F20"/>
<path d="M18.3884 268.457C18.3884 268.457 6.5836 270.386 6.6971 272.202C6.81061 274.018 16.2317 303.757 19.7504 302.509C23.2692 301.26 23.7232 282.872 23.7232 282.872L18.3884 268.457Z" fill="#231F20"/>
<path d="M19.523 303.303C19.1825 303.303 18.7285 303.19 18.5015 302.963C13.9612 300.011 6.01566 273.564 6.01566 272.202C6.01566 271.634 5.90216 269.705 18.388 267.662C18.7285 267.548 19.1825 267.775 19.296 268.229L24.5174 282.531C24.5174 282.645 24.5174 282.758 24.5174 282.872C24.4039 287.299 23.8363 301.941 20.0906 303.303C19.8636 303.303 19.7501 303.303 19.523 303.303ZM7.49126 272.202C8.85335 277.423 10.556 282.531 12.4856 287.526C17.5934 301.26 19.4095 301.6 19.523 301.6C21.3392 300.919 22.7012 291.385 22.9283 282.758L17.9339 269.137C13.2801 270.159 8.28581 271.407 7.49126 272.202Z" fill="#231F20"/>
<path d="M114.868 202.282C114.868 202.282 115.436 204.098 116.344 206.936C120.203 219.194 130.192 251.431 130.419 256.311C130.873 262.327 108.626 306.141 108.626 306.141L93.5291 303.53C93.5291 303.53 106.923 256.425 106.923 251.885C106.923 245.982 79.9082 194.109 79.9082 194.109L114.868 202.282Z" fill="white"/>
<path d="M108.626 307.049H108.513L93.4163 304.439C93.1893 304.439 92.9623 304.325 92.8488 304.098C92.7353 303.871 92.7353 303.644 92.7353 303.417C97.3891 287.185 106.129 255.63 106.129 251.998C106.129 247.344 86.7194 208.979 79.2279 194.563C79.1144 194.336 79.1144 193.996 79.3414 193.655C79.5684 193.428 79.7954 193.315 80.1359 193.428L114.983 201.601C115.21 201.714 115.437 201.828 115.55 202.168L117.026 206.822C121.226 220.103 130.874 251.431 131.214 256.425C131.668 262.668 110.215 304.893 109.307 306.709C109.194 306.936 108.967 307.049 108.626 307.049ZM94.5514 302.963L108.172 305.347C114.529 292.861 129.966 261.192 129.625 256.425C129.285 251.544 118.728 217.492 115.55 207.276L114.188 202.963L81.3845 195.358C85.9248 204.212 107.605 246.436 107.718 251.998C107.832 256.311 96.481 296.379 94.5514 302.963Z" fill="#231F20"/>
<path d="M60.0451 73.905C56.8669 74.132 53.8022 75.0401 50.9645 76.4022C45.9702 78.7858 41.3164 82.7586 40.1813 88.0934C39.2732 92.5202 40.9759 96.947 43.1325 100.806C45.2891 104.665 47.7863 108.525 49.0349 112.725C50.2835 116.924 49.7159 122.146 46.3107 125.097C50.851 123.054 55.3913 121.011 59.0235 117.719C61.1802 115.789 62.9963 113.292 63.1098 110.341C63.1098 107.957 62.5423 105.687 61.4072 103.53C60.0451 100.352 58.5695 97.0605 58.3425 93.5418C58.1155 90.023 59.3641 86.1638 62.4288 84.4612C65.0394 82.8721 73.7795 83.0991 72.4174 78.2183C71.1688 74.4725 63.1098 73.7915 60.0451 73.905Z" fill="white"/>
<path d="M46.1978 125.891C45.7438 125.891 45.4032 125.551 45.4032 125.096C45.4032 124.869 45.5168 124.642 45.7438 124.529C49.149 121.578 49.2625 116.47 48.2409 112.951C47.2194 109.887 45.8573 106.935 44.1547 104.211C43.5871 103.19 43.0196 102.168 42.4521 101.146C39.6144 95.9251 38.7063 91.7253 39.5009 87.8661C40.8629 81.2827 47.1059 77.4234 50.7381 75.6073C53.6893 74.1317 56.8675 73.2236 60.1592 72.9966C63.3374 72.8831 71.8505 73.4507 73.099 77.8774C73.4396 78.899 73.3261 79.9206 72.872 80.8286C71.737 82.7583 68.7858 83.4393 66.1751 84.1204C65.04 84.3474 63.9049 84.6879 62.8834 85.1419C59.8187 86.958 59.0241 90.8173 59.1376 93.5415C59.3647 96.7197 60.7267 99.8979 61.9753 102.849L62.2023 103.303C63.3374 105.46 64.0185 107.957 64.0185 110.454C63.7914 113.178 62.3158 115.902 59.5917 118.286C55.8459 121.691 51.1921 123.848 46.7653 125.778C46.4248 125.891 46.3113 126.005 46.1978 125.891ZM60.0457 74.5857C56.981 74.8127 53.9163 75.6073 51.1921 77.0829C47.7869 78.672 42.1115 82.3042 40.863 88.2066C40.1819 91.6118 41.09 95.5846 43.7006 100.465C44.2682 101.487 44.8357 102.509 45.4032 103.417C47.2194 106.254 48.695 109.319 49.7165 112.497C50.7381 116.016 50.5111 119.648 48.922 122.94C52.3272 121.464 55.5054 119.535 58.3431 117.037C60.0457 115.562 61.9753 113.065 62.2023 110.227C62.2023 107.957 61.6348 105.8 60.6132 103.757L60.3862 103.303C58.7971 100.238 57.7756 96.8332 57.435 93.428C57.208 89.2282 58.9106 85.3689 61.9753 83.5528C63.1104 82.9853 64.4725 82.5312 65.7211 82.3042C67.8777 81.7367 70.6019 81.1692 71.3964 79.8071C71.6234 79.2395 71.737 78.672 71.5099 78.1045C70.6019 75.2668 63.2239 74.4722 60.0457 74.5857Z" fill="#231F20"/>
<path d="M63.9041 74.9262C62.8825 76.7424 62.4285 78.899 62.769 80.9421C62.8825 82.3042 63.3365 83.6663 64.2446 84.8014C65.3797 86.05 67.0823 86.731 68.7849 86.6175C69.5795 86.6175 70.2605 86.277 70.828 85.823C71.2821 85.3689 71.5091 84.6879 71.5091 84.1203C72.5307 79.5801 69.2389 66.4132 63.9041 74.9262Z" fill="#231F20"/>
<path d="M68.3303 87.4125C66.5142 87.4125 64.8116 86.6179 63.563 85.3694C62.6549 84.1208 61.9739 82.6452 61.9739 81.0561C61.6334 78.7859 62.0874 76.5158 63.2225 74.4727C65.3791 71.181 67.1952 71.0674 68.3303 71.5215C71.622 72.8836 73.0976 80.8291 72.3031 84.1208C72.1895 84.9153 71.849 85.5964 71.395 86.2774C70.7139 86.9585 69.8059 87.4125 68.7843 87.4125H68.3303ZM64.5846 75.3807C63.6765 77.0833 63.336 79.013 63.563 80.8291C63.6765 82.0777 64.1305 83.2127 64.8116 84.2343C65.8331 85.3694 67.1952 85.8234 68.6708 85.7099C69.2384 85.7099 69.8059 85.4829 70.1464 85.1424C70.4869 84.8018 70.6005 84.2343 70.714 83.7803C71.2815 80.8291 69.9194 73.7916 67.6492 72.8836C66.5142 72.543 65.3791 74.0186 64.5846 75.3807Z" fill="#231F20"/>
<path d="M92.3949 103.417C91.1463 104.892 89.2167 105.8 85.925 105.46C83.2008 105.119 80.7036 104.098 78.547 102.509C69.8069 96.3791 65.3801 85.9364 66.9693 75.3803C68.6719 64.9376 79.1145 54.6084 90.2383 58.5812C94.0975 59.9433 97.0487 63.008 98.4108 66.7537C99.9999 66.1862 101.703 66.6402 102.724 67.8888C105.675 70.7265 105.448 73.7912 103.973 77.3099C101.475 82.9853 98.2973 88.4336 96.0271 94.2225C94.7785 97.6277 94.3245 101.26 92.3949 103.417Z" fill="white"/>
<path d="M87.1731 106.368C86.7191 106.368 86.2651 106.368 85.811 106.254C82.9733 105.914 80.3627 104.779 78.0925 103.19C69.1255 96.9468 64.4717 86.1636 66.1743 75.2669C67.3093 68.6835 71.2821 62.8946 76.9575 59.2624C81.0437 56.7652 85.9245 56.1977 90.4648 57.9003C94.2106 59.2624 97.2753 62.1001 98.8644 65.8458C100.453 65.6188 102.156 66.1863 103.291 67.4349C107.037 71.1807 105.902 75.0399 104.653 77.7641C103.632 80.1478 102.497 82.4179 101.362 84.6881C99.7724 87.8663 98.0698 91.2715 96.8213 94.5632C96.3672 95.6983 96.0267 96.8333 95.6862 97.8549C95.2322 100.012 94.2106 102.168 92.962 103.984C91.5999 105.573 89.4433 106.481 87.1731 106.368ZM85.357 58.5814C82.7463 58.5814 80.1357 59.3759 77.8655 60.738C72.5307 64.0297 68.8984 69.4781 67.7634 75.6075C66.2878 85.8231 70.601 95.9253 79.0006 101.941C81.0437 103.417 83.4274 104.438 86.0381 104.779C88.7622 105.006 90.5783 104.552 91.8269 102.963C92.962 101.26 93.8701 99.444 94.2106 97.4009C94.5511 96.2658 94.8916 95.1307 95.3457 93.9957C96.7077 90.5904 98.4103 87.1852 99.9994 83.8935C101.135 81.6233 102.27 79.3532 103.291 76.9695C104.88 73.3373 104.54 70.8402 102.27 68.4565C101.362 67.4349 99.9995 67.0944 98.7509 67.5484C98.5239 67.6619 98.2968 67.6619 98.0698 67.5484C97.8428 67.4349 97.7293 67.3214 97.6158 67.0944C96.3672 63.4622 93.5295 60.6245 89.8973 59.3759C88.5352 58.9219 86.9461 58.5814 85.357 58.5814Z" fill="#231F20"/>
<path d="M100.682 79.4668C100.682 79.4668 107.492 85.2557 106.925 86.9583C106.357 88.6609 102.838 88.6609 102.838 88.6609" fill="white"/>
<path d="M102.837 89.4558C102.383 89.4558 102.042 89.1153 102.042 88.6613C102.042 88.2073 102.383 87.8667 102.723 87.8667H102.837C103.745 87.8667 105.901 87.6397 106.128 86.7317C106.242 85.9371 103.404 82.8724 100.113 80.0347C99.772 79.6942 99.772 79.2402 99.999 78.8997C100.226 78.5591 100.794 78.5591 101.134 78.7861C103.858 81.0563 108.172 85.1426 107.604 87.1857C107.037 89.3423 103.518 89.4558 102.837 89.4558Z" fill="#231F20"/>
<path d="M104.427 118.286C96.8218 118.854 83.882 111.249 83.7685 111.022C82.4064 106.141 81.2713 101.147 80.3633 96.0389C80.3633 96.0389 85.4711 94.5633 86.7197 87.6393C87.9683 80.7154 94.4382 79.5803 96.9353 70.3862C100.681 71.9753 101.249 77.4237 102.157 80.7154C103.519 85.4827 104.767 90.25 105.789 95.0173C106.47 98.082 98.7515 100.352 97.1624 99.8981C98.4109 102.849 100.795 108.979 104.427 118.286Z" fill="white"/>
<path d="M103.632 119.08C95.914 119.08 83.3147 112.27 83.0876 111.248C81.7256 106.254 80.5905 101.26 79.6824 96.152C79.5689 95.698 79.9094 95.3574 80.25 95.2439C80.477 95.1304 84.9038 93.7683 86.0388 87.4119C86.7199 83.7797 88.6495 81.7365 90.6926 79.4664C93.3033 76.8557 95.2329 73.6775 96.2545 70.1588C96.368 69.9318 96.4815 69.7048 96.7085 69.7048C96.9355 69.5913 97.1626 69.5913 97.3896 69.7048C100.795 71.1804 101.816 75.3801 102.611 78.7853C102.724 79.4664 102.951 80.0339 103.065 80.6015C104.427 85.3688 105.676 90.1361 106.697 94.9034C106.924 96.0385 106.47 97.1735 105.562 97.8546C103.519 99.4437 101.022 100.465 98.4111 100.806C99.7732 104.325 100.227 105.46 105.222 118.172C105.335 118.399 105.335 118.626 105.108 118.853C104.995 119.08 104.768 119.194 104.541 119.194C104.314 119.08 103.973 119.08 103.632 119.08ZM84.4497 110.454C85.8118 111.362 96.2545 117.378 103.292 117.491C98.2976 104.665 98.1841 104.552 96.4815 100.125C96.368 99.7842 96.4815 99.5572 96.595 99.3302C96.822 99.1032 97.1626 98.9897 97.3896 99.1032C98.2976 99.3302 102.497 98.4221 104.314 96.606C104.881 96.152 105.108 95.5845 104.995 95.1304C103.859 90.3631 102.611 85.5958 101.362 80.8285C101.249 80.2609 101.022 79.5799 100.908 78.8989C100.227 76.1747 99.4327 72.883 97.3896 71.4074C96.2545 74.8126 94.3249 77.9908 91.7142 80.488C89.7846 82.6446 88.082 84.4607 87.5144 87.6389C86.4929 93.5413 82.7471 95.698 81.2715 96.4925C81.612 98.7627 83.0876 106.368 84.4497 110.454Z" fill="#231F20"/>
<path d="M104.767 91.4985C104.767 91.4985 101.816 94.7902 98.751 91.612Z" fill="white"/>
<path d="M101.588 93.7689C100.226 93.7689 99.0912 93.0878 98.1831 92.0662C97.8426 91.7257 97.8426 91.2717 98.1831 90.9312C98.5236 90.5907 98.9777 90.5907 99.3182 90.9312C99.8857 91.6122 100.68 92.0662 101.588 92.0662C102.61 91.9527 103.518 91.4987 104.199 90.8177C104.54 90.5906 105.107 90.7041 105.334 91.0447C105.561 91.2717 105.561 91.6122 105.334 91.9527C104.313 92.9743 102.95 93.6553 101.588 93.7689Z" fill="#231F20"/>
<path d="M97.276 99.7842C97.276 99.7842 93.1898 100.806 90.5791 98.5356C90.5791 98.5356 92.9628 105.687 99.6597 106.027L97.276 99.7842Z" fill="#231F20"/>
<path d="M99.6596 106.822C92.3951 106.481 89.8979 99.1034 89.7844 98.7629C89.6709 98.3089 89.8979 97.8549 90.2384 97.7414C90.4655 97.6278 90.806 97.7413 91.033 97.8549C93.4167 99.7845 97.0489 98.9899 97.0489 98.9899C97.3894 98.8764 97.8434 99.1034 97.957 99.444L100.341 105.687C100.568 106.027 100.341 106.595 100 106.708C100 106.935 99.7731 106.935 99.6596 106.822ZM92.2816 100.352C93.5302 102.736 95.8003 104.438 98.411 105.006L96.7084 100.579C95.2328 100.92 93.7572 100.806 92.2816 100.352Z" fill="#231F20"/>
<path d="M98.7957 79.4221C99.1633 79.3428 99.29 78.4837 99.0785 77.5033C98.8671 76.5228 98.3977 75.7923 98.03 75.8716C97.6623 75.9509 97.5357 76.8099 97.7471 77.7904C97.9585 78.7708 98.428 79.5014 98.7957 79.4221Z" fill="#231F20"/>
<path d="M91.7143 84.6882C91.2602 83.5531 90.4657 82.5316 89.4441 81.8505C88.7631 81.1695 87.9685 80.6019 87.0605 80.2614C86.1524 79.8074 85.1308 79.8074 84.3363 80.2614C83.5417 80.7155 83.0877 81.3965 82.8607 82.3046C82.7472 83.0991 82.7472 84.0072 82.9742 84.8017C83.8823 88.434 86.6064 91.3851 90.2387 92.4067L89.8981 92.1797" fill="white"/>
<path d="M90.3516 93.0878C90.2381 93.0878 90.2381 93.0878 90.1246 93.0878C86.2653 91.9527 83.2006 88.7745 82.2926 84.9153C82.0655 84.0072 82.0655 82.9857 82.179 82.0776C82.4061 81.056 83.0871 80.0345 83.9952 79.5804C85.1302 79.0129 86.3788 79.0129 87.5139 79.5804C88.4219 80.0345 89.33 80.602 90.0111 81.3965C91.1461 82.1911 92.0542 83.3262 92.5082 84.5748C92.6217 85.0288 92.3947 85.4828 92.0542 85.5963C91.6002 85.7098 91.1461 85.4828 91.0326 85.0288C90.5786 84.0072 89.8975 83.2127 88.9895 82.5316C88.3084 81.9641 87.6274 81.3965 86.8329 81.056C86.1518 80.7155 85.4708 80.7155 84.7897 80.9425C84.2222 81.283 83.8817 81.8506 83.7682 82.4181C83.6547 83.0992 83.6546 83.8937 83.8817 84.5748C84.6762 87.753 86.9464 90.2501 89.8976 91.3852C90.1246 91.3852 90.2381 91.3852 90.4651 91.4987L90.8056 91.7257C91.1461 91.9527 91.2596 92.4068 91.0326 92.8608C90.8056 92.8608 90.5786 93.0878 90.3516 93.0878Z" fill="#231F20"/>
<path d="M110.329 115.221C110.329 115.221 88.1955 103.984 80.25 111.476C72.3045 118.967 72.7585 143.371 72.418 184.12L120.318 180.829C120.318 180.829 121.113 121.124 110.329 115.221Z" fill="#7A7A7A"/>
<path d="M129.285 130.999C132.577 131.113 163.678 134.972 166.969 131.907C170.261 128.843 176.958 124.416 177.412 125.551C177.866 126.686 173.326 132.248 173.326 132.248C173.326 132.248 183.314 129.07 184.904 130.545C186.493 132.021 182.52 139.172 180.136 141.215C179.455 141.783 172.872 143.145 168.899 144.28C151.419 149.274 127.809 149.274 121.226 144.62C112.032 138.264 86.2656 125.892 84.79 123.735C83.3144 121.578 87.7412 107.39 98.7514 113.406C98.7514 113.519 125.993 130.886 129.285 130.999Z" fill="white"/>
<path d="M140.521 148.933C131.668 148.933 124.176 147.798 120.771 145.301C116.117 142.009 107.15 137.242 99.2047 133.042C90.1241 128.161 85.0163 125.437 84.1082 124.302C82.9731 122.713 84.2217 117.605 87.0594 114.314C88.8755 112.27 92.8483 109.433 99.0912 112.838C109.647 119.535 127.014 130.205 129.284 130.318C129.852 130.318 131.441 130.545 133.484 130.659C140.975 131.34 163.904 133.61 166.288 131.34C168.671 129.07 175.368 124.189 177.184 124.643C177.525 124.756 177.865 124.983 177.979 125.324C178.319 126.232 177.411 128.048 175.255 130.886C178.887 129.864 183.881 128.842 185.243 130.205C185.697 130.659 185.924 131.34 185.811 131.907C185.697 134.858 182.406 140.193 180.476 141.896C180.022 142.35 178.433 142.69 174.347 143.712C172.53 144.166 170.487 144.62 169.012 145.074C159.818 147.571 150.283 148.933 140.521 148.933ZM93.6428 112.838C91.5997 112.838 89.6701 113.746 88.308 115.335C85.5838 118.4 85.0163 122.6 85.4703 123.281C86.1514 124.189 93.5293 128.161 99.9992 131.567C107.945 135.88 117.025 140.647 121.793 143.939C127.809 148.139 150.624 148.706 168.785 143.485C170.374 143.031 172.303 142.577 174.233 142.123C176.049 141.782 177.979 141.215 179.795 140.534C181.611 138.945 184.449 133.95 184.562 131.68C184.562 131.453 184.562 131.226 184.449 131.113C183.768 130.545 178.773 131.34 173.666 132.929C173.325 133.042 172.984 132.929 172.757 132.588C172.53 132.248 172.53 131.907 172.757 131.68C174.12 129.978 175.368 128.161 176.503 126.232C173.211 127.821 170.26 129.978 167.536 132.361C164.925 134.745 149.602 133.723 133.484 132.134C131.441 131.907 129.852 131.794 129.284 131.794C125.879 131.68 101.134 115.903 98.4101 114.087C96.821 113.292 95.2319 112.838 93.6428 112.838Z" fill="#231F20"/>
<path d="M72.4173 184.121L49.7158 240.08C49.7158 240.08 108.059 260.057 134.846 255.403L120.317 180.715L72.4173 184.121Z" fill="#231F20"/>
<path d="M125.539 256.992C96.9354 256.992 51.646 241.668 49.4894 240.874C49.2623 240.76 49.1488 240.647 49.0353 240.42C48.9218 240.193 48.9218 239.966 49.0353 239.852L71.7368 183.893C71.8503 183.666 72.0773 183.439 72.4179 183.439L120.318 180.147C120.772 180.147 121.113 180.374 121.113 180.829L135.641 255.516C135.641 255.743 135.641 255.97 135.528 256.084C135.414 256.311 135.187 256.424 134.96 256.424C131.896 256.878 128.717 257.105 125.539 256.992ZM50.7379 239.625C57.7754 242.009 108.967 258.581 133.825 254.835L119.637 181.623L72.9854 184.915L50.7379 239.625Z" fill="#231F20"/>
<path d="M93.5294 303.644C93.5294 303.644 89.3296 314.881 90.9187 315.676C92.5078 316.47 123.041 323.281 123.722 319.535C124.403 315.789 108.626 306.255 108.626 306.255L93.5294 303.644Z" fill="#231F20"/>
<path d="M119.637 321.351C110.67 321.351 91.4871 316.81 90.4656 316.243C89.898 316.016 88.3089 315.108 92.7357 303.19C92.8492 302.849 93.1897 302.622 93.6438 302.736L108.74 305.346C108.854 305.346 108.967 305.346 108.967 305.46C112.827 307.73 125.085 315.675 124.404 319.535C124.291 320.102 123.95 320.556 123.383 320.783C122.248 321.237 120.999 321.464 119.637 321.351ZM91.3736 314.994C96.595 316.356 101.816 317.492 107.151 318.4C121.567 320.897 122.815 319.421 122.929 319.421C123.269 317.492 115.664 311.589 108.286 307.049L93.9843 304.552C92.3952 308.865 91.0331 313.859 91.3736 314.994Z" fill="#231F20"/>
<path d="M165.721 89.1153C164.132 89.9098 163.11 91.499 162.997 93.2016C162.883 93.7691 162.997 94.3366 163.337 94.7907C163.678 95.2447 164.359 95.3582 164.813 95.0177C163.451 96.1527 163.337 98.0824 164.359 99.331C164.359 99.331 164.359 99.331 164.472 99.4445C165.721 100.693 167.537 101.034 169.126 100.466C170.715 99.785 171.964 98.7634 172.872 97.2878C175.028 93.9961 176.731 86.3911 172.077 84.348C170.148 83.4399 167.65 84.2345 166.061 85.3695C165.153 85.9371 163.678 86.7316 163.791 87.9802C163.678 88.7748 164.813 90.1369 165.721 89.1153Z" fill="white"/>
<path d="M167.536 103.487C166.174 103.487 164.812 102.92 163.904 102.012C163.11 101.104 162.769 99.9686 162.996 98.8335C162.996 98.493 163.11 98.039 163.337 97.6985C163.11 97.5849 162.996 97.4714 162.883 97.2444C162.429 96.6769 162.315 95.8823 162.429 95.0878C162.542 93.8392 163.11 92.5906 164.018 91.569C163.564 91.115 163.223 90.434 163.223 89.7529C163.11 88.1638 164.585 87.2558 165.607 86.6882L165.947 86.4612C167.65 85.3261 170.488 84.4181 172.758 85.4397C174.347 86.1207 175.482 87.4828 175.936 89.1854C176.958 92.5906 175.595 97.0174 173.893 99.6281C172.985 101.217 171.509 102.466 169.693 103.147C168.785 103.374 168.104 103.487 167.536 103.487ZM165.153 97.8119C164.812 98.1525 164.585 98.6065 164.472 99.0605C164.358 99.7416 164.585 100.423 165.039 100.99C166.061 102.012 167.536 102.239 168.785 101.785C170.147 101.217 171.396 100.196 172.077 98.947C173.552 96.6769 174.687 92.5906 173.893 89.8664C173.552 88.6179 172.758 87.7098 171.623 87.1423C169.92 86.3477 167.65 87.1423 166.288 88.0503L165.947 88.2773C165.266 88.7314 164.358 89.2989 164.358 89.9799C164.358 90.3205 164.585 90.661 164.812 90.7745L165.266 90.5475C165.607 90.3205 166.174 90.5475 166.288 90.888C166.401 91.2285 166.401 91.5691 166.174 91.7961C165.947 92.0231 165.72 92.2501 165.38 92.3636C164.358 93.1582 163.791 94.2932 163.564 95.5418C163.45 95.8823 163.564 96.2229 163.677 96.5634C163.791 96.6769 163.904 96.6769 163.904 96.6769H164.018C164.358 96.4499 164.812 96.5634 165.039 96.7904C165.38 97.1309 165.266 97.5849 164.926 97.9255C164.926 97.9255 164.812 98.039 164.699 98.039L165.153 97.8119Z" fill="#231F20"/>
</svg>
