<svg width="380" height="314" viewBox="0 0 380 314" fill="none" xmlns="http://www.w3.org/2000/svg">
<path d="M93.1837 283.017C93.1837 283.017 102.084 310.317 103.684 309.817C105.284 309.317 137.084 290.917 135.984 287.717C134.884 284.517 112.884 291.117 112.884 291.117L107.884 276.417" fill="white"/>
<path d="M103.684 310.517C103.584 310.517 103.384 310.517 103.284 310.417C101.284 309.417 95.1837 291.017 92.5837 283.217C92.4837 282.817 92.6837 282.417 93.0837 282.317C93.3837 282.217 93.7837 282.417 93.8837 282.717C97.6837 294.317 102.384 307.217 103.784 308.917C108.084 307.017 135.184 290.517 135.384 287.817C134.984 286.717 125.384 288.117 113.184 291.717C112.784 291.817 112.484 291.617 112.284 291.217L107.284 276.517C107.184 276.117 107.384 275.717 107.684 275.617C108.084 275.517 108.484 275.717 108.584 276.017L113.384 290.117C133.284 284.217 136.384 286.217 136.684 287.317C136.984 288.117 137.584 289.817 121.184 300.117C113.184 305.117 104.784 309.917 103.884 310.217C103.884 310.517 103.784 310.517 103.684 310.517Z" fill="#231F20"/>
<path d="M55.3837 237.317C55.3837 237.317 36.9837 237.617 36.4837 239.117C35.9837 240.617 30.4837 269.917 35.4837 267.517C40.4837 265.117 48.5837 248.617 48.5837 248.617L57.7837 247.217L55.3837 237.317Z" fill="white"/>
<path d="M34.8837 268.417C34.4837 268.417 34.1837 268.217 33.8837 268.017C30.4837 265.017 35.4837 240.017 35.8837 239.017C36.0837 238.517 36.5837 237.017 55.4837 236.717C55.7837 236.717 56.0837 236.917 56.1837 237.217L58.5837 247.117C58.5837 247.317 58.5837 247.517 58.4837 247.617C58.3837 247.817 58.1837 247.917 57.9837 247.917L49.1837 249.317C47.9837 251.717 40.6837 265.917 35.8837 268.217C35.4837 268.317 35.1837 268.417 34.8837 268.417ZM37.0837 239.517C36.3837 242.117 32.3837 264.817 34.7837 266.917C34.7837 266.917 34.8837 267.017 35.0837 266.917C38.9837 265.017 45.6837 252.917 47.8837 248.317C47.9837 248.117 48.1837 247.917 48.3837 247.917L56.8837 246.617L54.7837 238.017C46.8837 238.117 38.2837 238.717 37.0837 239.517Z" fill="#231F20"/>
<path d="M160.084 22.0165L167.984 17.5165C167.984 17.5165 170.184 10.4165 172.384 8.71652C174.584 7.01652 177.684 9.31652 177.684 9.31652C177.684 9.31652 185.784 2.51652 187.784 2.71652C189.784 2.91652 187.184 6.41652 185.184 8.11652L180.984 11.8165C180.984 11.8165 184.684 19.3165 182.584 22.3165C180.484 25.3165 163.284 34.4165 163.284 34.4165L160.084 22.0165Z" fill="white"/>
<path d="M163.184 35.1165C163.084 35.1165 162.984 35.1165 162.884 35.0165C162.684 34.9165 162.584 34.7165 162.484 34.5165L159.384 22.1165C159.284 21.8165 159.484 21.5165 159.684 21.3165L167.284 16.9165C167.784 15.5165 169.684 9.71653 171.884 8.01653C174.084 6.31653 176.484 7.71652 177.584 8.31652C179.884 6.41652 185.784 1.71653 187.784 1.91653C188.384 1.91653 188.884 2.31652 188.984 2.81652C189.484 4.51652 186.584 7.61653 185.484 8.51653L181.684 11.8165C182.584 13.7165 184.984 19.6165 182.984 22.5165C180.784 25.5165 165.284 33.8165 163.484 34.8165C163.384 35.1165 163.284 35.1165 163.184 35.1165ZM160.884 22.3165L163.684 33.3165C168.884 30.5165 180.284 24.1165 181.884 21.9165C183.484 19.7165 181.284 14.1165 180.284 12.1165C180.184 11.8165 180.184 11.5165 180.484 11.3165C180.484 11.3165 182.684 9.41653 184.684 7.61653C186.684 5.81653 187.884 3.81652 187.784 3.31652C186.684 3.21652 181.984 6.61652 178.184 9.71652C177.884 9.91652 177.584 9.91652 177.284 9.71652C177.284 9.71652 174.584 7.71653 172.884 9.11653C171.184 10.5165 169.284 15.7165 168.684 17.6165C168.584 17.8165 168.484 17.9165 168.384 18.0165L160.884 22.3165Z" fill="#231F20"/>
<path d="M64.7837 68.1165C70.9837 71.5165 159.784 19.7165 159.784 19.7165L172.984 33.4165L83.0837 98.6165L64.7837 68.1165Z" fill="#777777"/>
<path d="M94.6837 67.2165C94.6837 67.2165 41.8837 67.2165 28.1837 78.1165C18.0837 86.1165 16.1837 142.217 16.1837 142.217L117.084 134.317C117.084 134.317 122.884 75.2165 94.6837 67.2165Z" fill="#777777"/>
<path d="M102.384 100.017C101.984 100.017 101.784 99.7165 101.784 99.4165V71.9165C101.784 71.5165 102.084 71.3165 102.384 71.3165C102.784 71.3165 102.984 71.6165 102.984 71.9165V99.4165C102.984 99.7165 102.684 100.017 102.384 100.017Z" fill="#231F20"/>
<path d="M115.084 171.517C115.084 171.517 130.984 236.717 120.484 241.317C109.984 245.917 50.2837 254.517 50.2837 254.517L47.5837 235.717C47.5837 235.717 93.4837 225.717 95.9837 223.417C98.4837 221.117 80.5837 165.717 80.1837 165.217C79.7837 164.717 115.084 171.517 115.084 171.517Z" fill="#231F20"/>
<path d="M50.3837 255.217C50.1837 255.217 50.0837 255.217 49.9837 255.117C49.8837 255.017 49.7837 254.817 49.6837 254.617L46.9837 235.817C46.8837 235.417 47.1837 235.116 47.4837 235.016C65.1837 231.116 93.8837 224.417 95.5837 222.817C96.9837 219.817 81.1837 168.716 79.6837 165.516C79.5837 165.316 79.5837 165.017 79.6837 164.817C79.9837 164.217 80.0837 164.017 115.284 170.717C115.584 170.817 115.784 171.017 115.884 171.217C117.484 177.917 131.584 237.117 120.884 241.817C110.384 246.317 52.9837 254.717 50.5837 255.117L50.3837 255.217ZM48.4837 236.217L50.9837 253.717C57.6837 252.717 110.584 244.817 120.284 240.617C122.584 239.617 125.684 233.717 121.084 204.817C118.684 189.717 115.184 174.817 114.584 172.117C102.784 169.817 85.7837 166.716 81.3837 166.016C84.4837 174.016 97.1837 215.616 97.0837 222.416C97.1837 222.916 96.9837 223.516 96.5837 223.916C94.0837 226.116 55.3837 234.717 48.4837 236.217Z" fill="#231F20"/>
<path d="M41.8837 169.317L91.4837 286.617L112.884 282.517L80.3837 158.617L41.8837 169.317Z" fill="#231F20"/>
<path d="M91.4837 287.317C91.1837 287.317 90.9837 287.117 90.8837 286.917L41.1837 169.517C41.0837 169.317 41.0837 169.117 41.1837 168.917C41.2837 168.717 41.3837 168.617 41.5837 168.517L80.1837 157.917C80.3837 157.917 80.5837 157.917 80.6837 158.017C80.8837 158.117 80.9837 158.217 80.9837 158.417L113.484 282.317C113.584 282.517 113.484 282.717 113.384 282.817C113.284 283.017 113.084 283.117 112.884 283.117L91.4837 287.217V287.317ZM42.7837 169.717L91.8837 285.817L111.984 281.917L79.8837 159.417L42.7837 169.717Z" fill="#231F20"/>
<path d="M59.3837 15.4165C52.0837 10.2165 42.1837 10.4165 35.0837 16.0165C29.8837 20.1165 27.0837 27.3165 28.6837 33.7165C30.2837 40.1165 36.4837 44.8165 43.1837 45.2165C49.5837 45.5165 56.3837 40.0165 59.7837 35.0165C63.8837 28.9165 66.6837 20.4165 59.3837 15.4165Z" fill="white"/>
<path d="M43.7837 45.9165C43.5837 45.9165 43.3837 45.9165 43.1837 45.9165C36.0837 45.6165 29.8837 40.8165 27.9837 33.9165C26.3837 27.4165 29.0837 19.8165 34.6837 15.4165C41.9837 9.71653 52.1837 9.51652 59.7837 14.8165C68.6837 20.9165 63.1837 31.2165 60.3837 35.3165C56.9837 40.5165 50.2837 45.9165 43.7837 45.9165ZM47.4837 12.3165C43.0837 12.3165 38.8837 13.7165 35.4837 16.5165C30.3837 20.6165 27.7837 27.6165 29.2837 33.5165C30.9837 39.8165 36.6837 44.2165 43.1837 44.5165C49.0837 44.8165 55.6837 39.7165 59.1837 34.6165C61.7837 30.8165 66.8837 21.4165 58.9837 16.0165C55.5837 13.6165 51.5837 12.4165 47.4837 12.3165Z" fill="#231F20"/>
<path d="M46.4837 26.0165C41.7837 30.1165 39.5837 36.4165 40.5837 42.6165C40.7837 44.3165 41.5837 45.9165 42.7837 47.0165C45.2837 49.0165 48.9837 47.8165 51.6837 46.1165C55.9837 43.1165 59.4837 39.2165 61.9837 34.6165C63.8837 31.4165 66.6837 24.0165 61.5837 22.2165C56.7837 20.5165 50.1837 22.9165 46.4837 26.0165Z" fill="#231F20"/>
<path d="M45.9837 48.8165C44.6837 48.8165 43.3837 48.4165 42.3837 47.6165C40.9837 46.3165 40.0837 44.6165 39.9837 42.8165C38.8837 36.4165 41.1837 29.8165 46.0837 25.5165C49.8837 22.2165 56.7837 19.7165 61.9837 21.5165C63.3837 21.9165 64.4837 23.0165 64.8837 24.3165C66.3837 28.3165 63.0837 34.2165 62.6837 34.8165C60.0837 39.5165 56.4837 43.6165 52.0837 46.6165C50.2837 48.0165 48.1837 48.7165 45.9837 48.8165ZM58.0837 22.3165C53.9837 22.5165 50.0837 24.0165 46.8837 26.6165C42.3837 30.6165 40.1837 36.6165 41.2837 42.5165C41.4837 44.0165 42.1837 45.4165 43.2837 46.5165C45.4837 48.3165 48.8837 47.2165 51.3837 45.5165C55.5837 42.6165 59.0837 38.7165 61.4837 34.2165C62.7837 32.0165 64.5837 27.6165 63.5837 24.9165C63.2837 23.9165 62.4837 23.2165 61.4837 22.9165C60.3837 22.5165 59.2837 22.3165 58.0837 22.3165Z" fill="#231F20"/>
<path d="M72.3837 65.8165C71.2837 66.9165 70.0837 67.9165 68.8837 68.8165C63.9837 71.7165 57.8837 71.8165 52.8837 69.2165C41.0837 63.1165 41.2837 49.3165 43.7837 38.0165C44.7837 33.4165 48.0837 23.9165 54.2837 28.6165C52.4837 27.2165 59.9837 22.6165 60.9837 22.1165C68.8837 18.9165 77.1837 23.4165 81.7837 29.9165C84.4837 33.6165 86.7837 37.5165 88.6837 41.7165C90.4837 46.3165 88.4837 52.6165 85.8837 56.5165C83.8837 59.5165 81.0837 61.9165 77.7837 63.5165C76.2837 64.2165 74.2837 64.4165 72.8837 65.3165C72.7837 65.5165 72.5837 65.6165 72.3837 65.8165Z" fill="white"/>
<path d="M60.6837 71.8165C57.8837 71.8165 55.0837 71.1165 52.5837 69.9165C42.7837 64.9165 39.5837 54.1165 43.0837 38.0165C43.5837 35.8165 45.3837 28.6165 49.5837 27.1165C50.8837 26.6165 52.3837 26.8165 53.5837 27.5165C54.6837 25.1165 60.3837 21.9165 60.7837 21.7165C69.2837 18.2165 77.9837 23.4165 82.4837 29.7165C85.2837 33.4165 87.5837 37.4165 89.4837 41.6165C91.3837 46.4165 89.3837 53.0165 86.6837 57.0165C84.5837 60.1165 81.6837 62.7165 78.2837 64.3165C77.5837 64.6165 76.7837 64.9165 75.9837 65.1165C75.0837 65.3165 74.1838 65.6165 73.3838 66.1165C73.1838 66.2165 72.9838 66.3165 72.8838 66.5165C72.4838 66.9165 71.9837 67.3165 71.5837 67.7165C70.8837 68.4165 70.1838 69.0165 69.3838 69.6165C66.7838 71.0165 63.7837 71.8165 60.6837 71.8165ZM51.0837 28.1165C50.7837 28.1165 50.3837 28.2165 50.0837 28.3165C47.2837 29.3165 45.3837 34.3165 44.4837 38.2165C41.0837 53.7165 44.0837 63.9165 53.2837 68.6165C58.0837 71.1165 63.8837 71.0165 68.5837 68.2165C69.2837 67.7165 69.9837 67.2165 70.5837 66.5165C71.0837 66.0165 71.4837 65.6165 71.9837 65.2165C72.1837 65.0165 72.3837 64.9165 72.5837 64.7165C73.4837 64.2165 74.4837 63.8165 75.4837 63.6165C76.1837 63.4165 76.8837 63.2165 77.5837 62.9165C80.7837 61.4165 83.4837 59.1165 85.4837 56.1165C87.9837 52.3165 89.8837 46.3165 88.1837 41.9165C86.3837 37.8165 84.0838 33.9165 81.3838 30.3165C77.1838 24.4165 69.1837 19.6165 61.3837 22.7165C59.9837 23.3165 54.7837 26.9165 54.7837 27.9165C55.0837 28.1165 55.1837 28.6165 54.8837 28.9165C54.6837 29.2165 54.1837 29.3165 53.8837 29.0165C53.1837 28.5165 52.1837 28.1165 51.0837 28.1165Z" fill="#231F20"/>
<path d="M81.1837 39.3165C81.1837 39.3165 85.7837 49.4165 84.6837 57.5165C84.1837 62.1165 80.9837 66.0165 76.5837 67.3165L77.7837 81.3165C77.7837 81.3165 78.4837 88.5165 69.5837 88.1165C64.3837 87.9165 59.5837 85.0165 56.9837 80.4165L53.7837 54.7165C53.7837 54.7165 63.2837 48.1165 61.5837 38.9165C61.5837 39.0165 73.8837 43.7165 81.1837 39.3165Z" fill="white"/>
<path d="M70.1837 88.8165H69.5837C64.0837 88.6165 59.0837 85.6165 56.3837 80.8165C56.3837 80.7165 56.2837 80.7165 56.2837 80.6165L53.0837 54.9165C53.0837 54.6165 53.1837 54.4165 53.3837 54.2165C53.4837 54.1165 62.4837 47.7165 60.8837 39.1165C60.8837 38.9165 60.8837 38.6165 61.0837 38.4165C61.2837 38.2165 61.5837 38.2165 61.7837 38.3165C61.8837 38.3165 73.8837 42.8165 80.7837 38.7165C80.9837 38.6165 81.1837 38.6165 81.3837 38.6165C81.5837 38.7165 81.6837 38.8165 81.7837 39.0165C81.9837 39.4165 86.4837 49.4165 85.3837 57.6165C84.7837 62.3165 81.6837 66.2165 77.2837 67.8165L78.4837 81.3165C78.5837 83.2165 77.9837 85.1165 76.6837 86.6165C75.1837 88.1165 73.0837 88.9165 70.1837 88.8165ZM57.6837 80.2165C60.1837 84.5165 64.6837 87.2165 69.5837 87.4165C72.2837 87.5165 74.3837 86.9165 75.5837 85.6165C76.5837 84.4165 77.0837 82.9165 77.0837 81.4165L75.8837 67.4165C75.8837 67.1165 76.0837 66.7165 76.3837 66.7165C80.5837 65.4165 83.5837 61.8165 83.9837 57.5165C84.8837 50.9165 81.7837 42.8165 80.7837 40.4165C74.4837 43.6165 65.4837 41.2165 62.3837 40.2165C63.0837 48.2165 56.1837 54.0165 54.4837 55.3165L57.6837 80.2165Z" fill="#231F20"/>
<path d="M58.4837 52.5165C58.4837 52.5165 53.2837 43.1165 48.9837 49.7165C44.6837 56.3165 52.3837 62.4165 56.5837 61.4165" fill="white"/>
<path d="M55.5837 62.2165C52.6837 62.0165 49.9837 60.5165 48.3837 58.0165C46.4837 55.4165 46.4837 51.9165 48.3837 49.3165C49.5837 47.5165 50.9837 46.6165 52.5837 46.7165C56.0837 46.8165 58.9837 52.0165 59.0837 52.2165C59.2837 52.5165 59.1837 53.0165 58.8837 53.2165C58.5837 53.4165 58.0837 53.3165 57.8837 53.0165V52.9165C57.1837 51.6165 54.7837 48.2165 52.4837 48.1165C51.4837 48.1165 50.4837 48.7165 49.4837 50.1165C47.8837 52.2165 47.8837 55.1165 49.4837 57.2165C51.1837 59.6165 54.1837 61.2165 56.3837 60.7165C56.7837 60.6165 57.1837 60.9165 57.1837 61.2165C57.1837 61.5165 56.9837 62.0165 56.6837 62.0165C56.3837 62.2165 55.9837 62.2165 55.5837 62.2165Z" fill="#231F20"/>
<path d="M76.5837 58.7165C75.8837 58.7165 75.2837 58.6165 74.5837 58.5165C74.1837 58.4165 73.9837 58.1165 73.9837 57.7165C74.0837 57.3165 74.3837 57.1165 74.7837 57.1165C76.0837 57.4165 77.3837 57.3165 78.6837 56.8165C78.6837 56.0165 76.5837 53.0165 74.0837 50.2165C73.7837 50.0165 73.6837 49.5165 73.8837 49.2165C74.0837 48.9165 74.5837 48.8165 74.8837 49.0165C74.9837 49.1165 74.9837 49.1165 75.0837 49.2165C76.2837 50.6165 80.2837 55.1165 79.9837 57.0165C79.9837 57.4165 79.7837 57.7165 79.3837 57.9165C78.6837 58.5165 77.5837 58.7165 76.5837 58.7165Z" fill="#231F20"/>
<path d="M73.6837 63.3165C73.1837 63.3165 72.7837 63.3165 72.2837 63.2165C69.7837 62.8165 67.4837 61.5165 65.8837 59.6165C65.6837 59.3165 65.7837 58.9165 66.0837 58.6165C66.0837 58.6165 66.0837 58.6165 66.1837 58.6165C66.4837 58.4165 66.9837 58.5165 67.1837 58.8165C67.1837 58.8165 67.1837 58.8165 67.1837 58.9165C68.6837 60.5165 70.6837 61.6165 72.8837 61.8165C75.5837 62.1165 78.2837 61.0165 80.8837 58.5165C81.1837 58.2165 81.5837 58.2165 81.8837 58.5165C82.1837 58.8165 82.1837 59.2165 81.8837 59.5165C79.1837 62.0165 76.4837 63.3165 73.6837 63.3165Z" fill="#231F20"/>
<path d="M76.5837 67.2165C76.5837 67.2165 69.1837 68.8165 64.7837 68.1165C64.7837 68.1165 70.4837 78.7165 77.5837 78.0165L76.5837 67.2165Z" fill="#231F20"/>
<path d="M76.8837 78.8165C69.7837 78.8165 64.3837 68.9165 64.1837 68.4165C64.0837 68.2165 64.0837 67.9165 64.2837 67.7165C64.4837 67.5165 64.6837 67.4165 64.9837 67.4165C69.1837 68.1165 76.4837 66.5165 76.4837 66.5165C76.6837 66.5165 76.8837 66.5165 77.0837 66.6165C77.2837 66.7165 77.3837 66.9165 77.3837 67.1165L78.3837 77.9165C78.3837 78.3165 78.1837 78.6165 77.7837 78.7165L76.8837 78.8165ZM66.0837 69.0165C67.6837 71.6165 71.8837 77.4165 76.7837 77.4165L75.9837 68.1165C72.6837 68.7165 69.3837 69.0165 66.0837 69.0165Z" fill="#231F20"/>
<path d="M70.0501 50.5879C70.6516 50.5022 71.0191 49.5906 70.871 48.5517C70.723 47.5129 70.1154 46.7402 69.5139 46.8259C68.9125 46.9116 68.545 47.8233 68.693 48.8621C68.8411 49.901 69.4487 50.6736 70.0501 50.5879Z" fill="#231F20"/>
<path d="M80.0564 49.1994C80.6578 49.1137 81.0254 48.2021 80.8773 47.1632C80.7293 46.1244 80.1217 45.3517 79.5202 45.4374C78.9188 45.5232 78.5512 46.4348 78.6993 47.4736C78.8474 48.5125 79.455 49.2852 80.0564 49.1994Z" fill="#231F20"/>
<path d="M174.484 21.5165C174.284 21.5165 174.084 21.4165 173.984 21.2165C173.784 20.9165 173.884 20.5165 174.184 20.3165C175.184 19.6165 175.784 18.4165 175.584 17.2165C175.184 16.3165 174.884 15.4165 174.684 14.4165C174.584 14.1165 174.784 13.7165 175.184 13.6165C175.484 13.5165 175.784 13.7165 175.884 13.9165C176.384 14.8165 176.784 15.8165 176.884 16.8165C177.084 17.2165 177.284 17.5165 177.684 17.7165C177.884 17.8165 178.184 17.8165 178.384 17.6165C179.684 16.8165 178.384 12.4165 177.184 9.61652C177.084 9.31652 177.184 8.91652 177.484 8.81652C177.784 8.71652 178.184 8.81652 178.284 9.11652C178.884 10.4165 181.684 17.1165 178.984 18.8165C178.484 19.2165 177.684 19.2165 177.084 19.0165C176.984 18.9165 176.884 18.9165 176.784 18.8165C176.584 19.9165 175.884 20.9165 174.884 21.5165C174.684 21.5165 174.584 21.5165 174.484 21.5165Z" fill="#231F20"/>
<path d="M102.384 242.917C102.084 242.917 101.884 242.717 101.784 242.417L89.2837 195.717C89.1837 195.417 89.4837 195.017 89.7837 195.017C90.0837 195.017 90.3837 195.117 90.4837 195.417L102.984 242.117C103.084 242.417 102.884 242.817 102.584 242.917C102.484 242.917 102.384 242.917 102.384 242.917Z" fill="white"/>
<path d="M216.784 215.317C215.884 214.617 184.584 211.417 182.684 212.017C180.784 212.617 172.884 238.517 172.984 240.717C173.284 245.117 190.584 227.417 190.584 227.417L216.784 232.617" fill="white"/>
<path d="M173.584 242.117C173.484 242.117 173.284 242.117 173.184 242.017C172.684 241.817 172.284 241.317 172.384 240.717C172.284 239.017 179.784 212.117 182.484 211.317C184.484 210.717 216.084 213.817 217.284 214.717C217.584 215.017 217.584 215.417 217.384 215.717C217.184 216.017 216.784 216.016 216.484 215.916C214.284 215.116 184.684 212.217 182.884 212.717C181.184 214.017 173.584 238.517 173.684 240.717C175.084 241.117 183.284 233.916 190.084 226.916C190.284 226.716 190.484 226.717 190.684 226.717L216.884 231.916C217.284 231.916 217.584 232.317 217.484 232.717C217.484 233.117 217.084 233.417 216.684 233.317H216.584L190.684 228.117C186.384 232.717 176.784 242.117 173.584 242.117Z" fill="#231F20"/>
<path d="M332.884 277.717C332.984 278.617 341.384 306.017 343.884 306.417C346.384 306.817 381.484 295.817 378.584 293.817C375.684 291.817 359.784 293.317 359.784 293.317L351.384 270.617" fill="white"/>
<path d="M343.884 307.117C340.484 306.517 332.184 278.017 332.184 277.717C332.184 277.317 332.484 277.017 332.784 277.017C333.184 277.017 333.484 277.317 333.584 277.617C333.984 280.117 342.084 304.617 344.084 305.717C344.984 305.817 352.384 303.817 361.484 300.817C371.284 297.517 376.684 295.217 377.884 294.117C375.284 293.017 365.884 293.317 359.884 293.917C359.584 293.917 359.284 293.717 359.184 293.417L350.684 270.717C350.584 270.317 350.684 269.917 351.084 269.817C351.484 269.717 351.884 269.817 351.984 270.217L360.284 292.417C363.384 292.117 376.184 291.217 378.984 293.117C379.384 293.417 379.584 293.917 379.384 294.317C377.984 297.917 346.884 307.117 343.884 307.117Z" fill="#231F20"/>
<path d="M295.884 146.917C295.884 146.917 282.084 250.617 267.884 247.517C253.684 244.417 196.984 232.317 196.984 232.317L202.084 209.917C202.084 209.917 242.384 214.217 247.784 214.617C253.184 215.017 249.384 142.217 249.384 142.217L295.884 146.917Z" fill="#231F20"/>
<path d="M268.484 248.317C268.184 248.317 267.984 248.317 267.684 248.217C253.684 245.117 197.384 233.117 196.784 233.017C196.584 233.017 196.484 232.817 196.384 232.717C196.284 232.517 196.284 232.417 196.284 232.217L201.384 209.817C201.484 209.517 201.784 209.217 202.184 209.317C202.584 209.317 242.584 213.617 247.884 214.017C250.684 212.617 250.484 176.517 248.784 142.417C248.784 142.217 248.884 142.017 248.984 141.917C249.084 141.817 249.284 141.717 249.484 141.717L295.984 146.417C296.184 146.417 296.384 146.517 296.484 146.717C296.584 146.817 296.684 147.017 296.584 147.217C296.084 150.917 284.284 238.317 270.984 247.617C270.284 247.917 269.384 248.217 268.484 248.317ZM197.884 231.717C204.384 233.117 254.884 243.817 268.084 246.817C268.884 246.917 269.684 246.717 270.284 246.217C282.484 237.717 293.984 156.017 295.184 147.517L250.284 142.917C250.784 152.817 253.484 210.317 248.984 214.817C248.684 215.117 248.284 215.217 247.884 215.217C242.884 214.817 207.884 211.117 202.784 210.617L197.884 231.717Z" fill="#231F20"/>
<path d="M283.284 155.017L331.984 292.717L359.284 278.017L317.384 146.917L283.284 155.017Z" fill="#231F20"/>
<path d="M331.984 293.417C331.884 293.417 331.784 293.417 331.784 293.417C331.584 293.317 331.484 293.217 331.384 293.017L282.684 155.317C282.584 155.117 282.584 154.917 282.684 154.717C282.784 154.517 282.984 154.417 283.184 154.317L317.284 146.217C317.684 146.117 317.984 146.317 318.084 146.717L359.984 277.817C360.084 278.117 359.984 278.517 359.684 278.617L332.284 293.317C332.184 293.417 332.084 293.417 331.984 293.417ZM284.184 155.517L332.284 291.717L358.384 277.717L316.784 147.717L284.184 155.517Z" fill="#231F20"/>
<path d="M323.284 92.1165L340.284 86.5165C339.484 85.4165 330.884 58.9165 320.784 53.9165C311.884 48.0165 295.384 49.1165 276.784 50.4165C270.784 50.7165 264.884 51.9165 259.284 54.0165C238.284 62.4165 235.284 90.0165 235.284 90.0165L254.584 96.7165C254.584 96.7165 251.484 134.317 248.484 154.017C248.484 154.017 272.084 163.017 324.984 154.217C324.984 154.317 323.384 97.6165 323.284 92.1165Z" fill="#777777"/>
<path d="M301.184 61.1165L282.284 104.217L277.684 62.6165L301.184 61.1165Z" fill="#231F20"/>
<path d="M282.284 104.917H282.184C281.884 104.817 281.684 104.617 281.584 104.317L276.984 62.7165C276.984 62.5165 276.984 62.3165 277.184 62.2165C277.284 62.1165 277.484 62.0165 277.684 62.0165L301.184 60.5165C301.384 60.5165 301.684 60.6165 301.784 60.8165C301.884 61.0165 301.984 61.3165 301.884 61.5165L282.884 104.617C282.784 104.917 282.584 105.017 282.284 104.917ZM278.384 63.2165L282.684 101.617L300.084 61.9165L278.384 63.2165Z" fill="#231F20"/>
<path d="M311.084 6.81651C306.284 1.41651 298.684 -0.683485 291.784 1.51652C285.784 3.41651 280.284 6.81651 274.284 8.71651C268.284 10.6165 261.184 10.9165 256.184 7.01652C255.984 12.8165 262.184 18.0165 267.884 16.8165C267.684 18.2165 265.784 18.4165 264.384 18.1165C262.984 17.8165 261.284 17.5165 260.484 18.6165C260.084 19.4165 259.984 20.3165 260.284 21.1165C261.284 24.5165 264.384 26.7165 267.284 28.7165C271.484 31.6165 275.784 32.2165 279.984 34.2165C284.484 36.3165 287.884 39.3165 293.084 40.1165C297.784 40.7165 302.584 39.5165 306.584 36.8165C309.084 35.0165 313.984 32.7165 313.084 29.0165C312.584 27.2165 315.684 23.9165 315.984 21.3165C316.384 15.9165 314.584 10.7165 311.084 6.81651Z" fill="white"/>
<path d="M295.584 40.9165C294.684 40.9165 293.884 40.8165 292.984 40.7165C289.284 40.2165 286.484 38.6165 283.584 36.9165C282.284 36.2165 280.984 35.4165 279.584 34.8165C278.084 34.1165 276.484 33.5165 274.884 33.0165C272.084 32.1165 269.284 30.9165 266.884 29.3165C263.684 27.1165 260.684 24.8165 259.584 21.3165C259.184 20.3165 259.284 19.1165 259.884 18.2165C260.684 17.3165 261.984 16.9165 263.084 17.2165C261.684 16.8165 260.384 16.0165 259.284 15.1165C256.784 13.1165 255.384 10.1165 255.384 7.01652C255.384 6.71652 255.584 6.51652 255.784 6.41652C255.984 6.31652 256.284 6.31652 256.484 6.51652C262.384 11.1165 270.584 9.11652 273.884 8.11652C276.884 7.11652 279.784 5.91652 282.584 4.51652C285.384 3.11652 288.384 1.91652 291.384 0.916522C298.584 -1.38348 306.384 0.716523 311.384 6.41652C315.084 10.5165 316.884 15.9165 316.384 21.4165C316.084 22.9165 315.584 24.3165 314.684 25.6165C314.084 26.8165 313.284 28.2165 313.484 28.8165C314.484 32.4165 310.784 34.8165 308.084 36.5165C307.584 36.8165 307.184 37.1165 306.784 37.4165C303.584 39.7165 299.684 40.9165 295.584 40.9165ZM262.384 18.5165C261.884 18.4165 261.384 18.6165 261.084 19.0165C260.784 19.6165 260.784 20.3165 260.984 20.9165C261.884 23.9165 264.684 26.1165 267.684 28.2165C270.084 29.7165 272.684 30.9165 275.384 31.8165C277.084 32.3165 278.684 33.0165 280.284 33.7165C281.684 34.4165 283.084 35.1165 284.284 35.9165C287.084 37.5165 289.684 39.0165 293.184 39.5165C297.784 40.1165 302.384 39.0165 306.084 36.3165C306.484 36.0165 306.984 35.7165 307.484 35.4165C309.884 33.8165 312.984 31.9165 312.284 29.2165C311.984 28.0165 312.784 26.6165 313.584 24.9165C314.284 23.8165 314.784 22.5165 315.084 21.2165C315.584 16.1165 313.884 11.1165 310.384 7.31652C305.784 2.11652 298.484 0.116518 291.884 2.21652C288.984 3.21652 286.084 4.41652 283.284 5.81652C280.384 7.21652 277.484 8.41652 274.384 9.41652C267.584 11.6165 261.384 11.2165 256.884 8.41652C257.284 10.6165 258.484 12.6165 260.184 14.0165C262.184 15.8165 264.984 16.6165 267.684 16.1165C267.884 16.1165 268.184 16.1165 268.284 16.3165C268.484 16.5165 268.484 16.7165 268.484 16.9165C268.384 17.5165 268.084 18.0165 267.584 18.3165C266.584 18.9165 265.284 19.0165 264.184 18.7165C263.684 18.6165 263.084 18.5165 262.384 18.5165Z" fill="#231F20"/>
<path d="M280.984 49.4165L277.584 62.6165C277.584 62.6165 281.384 71.3165 290.384 69.6165C299.384 67.9165 301.184 61.2165 301.184 61.1165C301.684 56.3165 302.184 51.6165 302.684 46.8165L303.584 38.0165C303.784 37.1165 303.884 36.2165 303.884 35.3165C303.284 33.3165 300.784 32.2165 300.084 30.1165C298.684 25.9165 298.784 21.4165 300.584 17.4165C296.784 20.4165 292.484 23.5165 287.684 23.2165C288.684 22.2165 289.584 21.1165 290.284 19.9165L280.884 23.3165C279.684 23.7165 278.384 24.0165 277.084 24.2165C275.684 24.5165 276.184 23.6165 275.184 25.3165C272.584 29.6165 272.184 36.7165 272.684 41.6165C273.684 48.4165 280.984 49.4165 280.984 49.4165Z" fill="white"/>
<path d="M288.084 70.5165C280.384 70.5165 277.084 63.0165 276.984 62.9165C276.984 62.8165 276.984 62.6165 276.984 62.5165L280.184 50.0165C278.184 49.5165 272.884 47.6165 272.184 41.6165C271.684 36.7165 271.984 29.4165 274.784 24.9165L274.884 24.8165C275.484 23.7165 275.784 23.4165 276.484 23.5165C276.684 23.5165 276.884 23.5165 277.184 23.5165C278.384 23.3165 279.584 23.1165 280.784 22.7165L290.184 19.3165C290.484 19.2165 290.784 19.3165 290.984 19.5165C291.184 19.7165 291.184 20.1165 290.984 20.3165C290.484 21.1165 289.984 21.8165 289.384 22.5165C293.384 22.1165 297.084 19.5165 300.284 16.9165C300.584 16.7165 300.884 16.7165 301.184 16.9165C301.484 17.1165 301.484 17.4165 301.384 17.7165C299.684 21.5165 299.484 25.9165 300.884 29.9165C301.284 30.8165 301.884 31.6165 302.684 32.2165C303.584 33.0165 304.284 34.0165 304.784 35.1165C304.884 35.9165 304.884 36.6165 304.684 37.3165C304.684 37.6165 304.584 37.8165 304.584 38.0165L302.084 61.1165C302.084 61.1165 300.284 68.3165 290.684 70.2165C289.684 70.5165 288.884 70.6165 288.084 70.5165ZM278.384 62.5165C278.984 63.8165 282.584 70.3165 290.284 68.8165C298.784 67.2165 300.484 60.9165 300.484 60.8165L302.884 37.8165C302.884 37.5165 302.984 37.2165 302.984 36.9165C303.084 36.4165 303.184 35.8165 303.184 35.3165C302.784 34.4165 302.184 33.6165 301.484 33.0165C300.584 32.2165 299.884 31.3165 299.384 30.2165C298.184 26.7165 298.084 22.9165 299.084 19.3165C295.784 21.8165 291.884 24.0165 287.684 23.7165C287.284 23.7165 286.984 23.3165 286.984 23.0165C286.984 22.8165 287.084 22.7165 287.184 22.5165C287.584 22.1165 288.084 21.6165 288.384 21.1165L281.084 23.7165C279.884 24.1165 278.584 24.4165 277.284 24.6165C276.884 24.7165 276.584 24.7165 276.184 24.7165L275.784 25.3165L275.684 25.4165C273.284 29.3165 272.784 36.2165 273.284 41.2165C273.984 47.5165 280.484 48.4165 280.784 48.5165C280.984 48.5165 281.184 48.6165 281.284 48.8165C281.384 49.0165 281.384 49.2165 281.384 49.4165L278.384 62.5165Z" fill="#231F20"/>
<path d="M279.284 56.3165C282.384 57.0165 285.584 56.2165 287.984 54.1165C292.084 50.5165 291.884 47.3165 291.884 47.3165C291.884 47.3165 286.884 50.7165 281.084 49.3165L279.284 56.3165Z" fill="#231F20"/>
<path d="M281.484 57.3165C280.684 57.3165 279.784 57.2165 278.984 57.0165C278.584 56.9165 278.384 56.5165 278.484 56.2165L280.284 49.2165C280.384 48.8165 280.784 48.6165 281.084 48.7165C286.484 50.0165 291.284 46.8165 291.384 46.8165C291.684 46.6165 292.184 46.7165 292.384 47.0165C292.484 47.1165 292.484 47.2165 292.484 47.4165C292.484 47.5165 292.584 51.0165 288.284 54.7165C286.484 56.3165 283.984 57.3165 281.484 57.3165ZM280.084 55.8165C282.784 56.2165 285.484 55.4165 287.484 53.6165C289.084 52.3165 290.284 50.6165 290.984 48.7165C288.084 50.2165 284.784 50.7165 281.584 50.2165L280.084 55.8165Z" fill="#231F20"/>
<path d="M286.584 28.4165C286.584 28.4165 281.384 35.0165 282.384 36.3165C283.384 37.6165 286.584 37.1165 286.584 37.1165" fill="white"/>
<path d="M285.084 37.8165C283.884 37.9165 282.684 37.5165 281.784 36.7165C280.684 35.3165 283.484 31.2165 285.984 28.0165C286.184 27.7165 286.584 27.6165 286.984 27.8165C287.384 28.0165 287.384 28.4165 287.184 28.8165C287.184 28.8165 287.184 28.9165 287.084 28.9165C284.684 32.0165 282.684 35.2165 282.884 35.9165C283.384 36.6165 285.484 36.5165 286.384 36.3165C286.784 36.2165 287.084 36.5165 287.184 36.9165C287.284 37.3165 286.984 37.6165 286.584 37.7165C286.084 37.7165 285.584 37.8165 285.084 37.8165Z" fill="#231F20"/>
<path d="M292.194 30.0177C292.801 30.0151 293.291 29.2967 293.287 28.4131C293.283 27.5294 292.788 26.8151 292.18 26.8177C291.573 26.8202 291.083 27.5386 291.087 28.4223C291.091 29.306 291.586 30.0202 292.194 30.0177Z" fill="#231F20"/>
<path d="M282.476 27.8614C282.733 27.0159 282.427 26.1743 281.793 25.9818C281.159 25.7892 280.436 26.3187 280.18 27.1642C279.923 28.0098 280.229 28.8513 280.863 29.0439C281.497 29.2364 282.22 28.707 282.476 27.8614Z" fill="#231F20"/>
<path d="M285.584 43.0165C282.084 42.8165 278.784 41.7165 275.984 39.6165C275.684 39.3165 275.684 38.9165 275.984 38.6165C276.184 38.3165 276.584 38.3165 276.884 38.5165C277.184 38.7165 284.884 44.6165 291.484 39.6165C291.784 39.4165 292.184 39.4165 292.484 39.7165C292.684 40.0165 292.684 40.4165 292.384 40.7165C290.384 42.2165 287.984 43.0165 285.584 43.0165Z" fill="#231F20"/>
<path d="M300.084 34.1165C301.184 33.1165 302.584 32.5165 304.084 32.5165C305.584 32.6165 306.984 33.5165 307.484 34.9165C307.884 36.6165 307.384 38.3165 306.184 39.5165C304.484 41.5165 301.984 42.6165 299.384 42.6165" fill="white"/>
<path d="M299.484 43.4165C299.084 43.4165 298.784 43.1165 298.784 42.7165C298.784 42.3165 299.084 42.0165 299.484 42.0165C301.884 42.0165 304.184 40.9165 305.684 39.1165C306.684 38.1165 307.184 36.5165 306.784 35.1165C306.284 33.9165 305.184 33.2165 303.984 33.1165C302.684 33.1165 301.384 33.6165 300.484 34.5165C300.184 34.7165 299.684 34.6165 299.484 34.3165C299.284 34.1165 299.284 33.7165 299.484 33.5165C300.684 32.3165 302.384 31.7165 304.084 31.7165C305.884 31.8165 307.484 32.9165 308.084 34.6165C308.584 36.5165 308.084 38.5165 306.684 39.9165C304.984 42.1165 302.284 43.4165 299.484 43.4165Z" fill="#231F20"/>
<path d="M320.584 93.2165C320.284 93.2165 319.984 93.0165 319.884 92.7165L313.484 65.9165C313.384 65.5165 313.584 65.1165 313.984 65.0165C314.384 64.9165 314.784 65.1165 314.884 65.5165V65.6165L321.284 92.4165C321.384 92.8165 321.184 93.2165 320.784 93.2165H320.584Z" fill="#231F20"/>
<path d="M96.0837 313.317C124.471 313.317 147.484 310.227 147.484 306.417C147.484 302.606 124.471 299.517 96.0837 299.517C67.6963 299.517 44.6837 302.606 44.6837 306.417C44.6837 310.227 67.6963 313.317 96.0837 313.317Z" fill="#D1D3D4"/>
<path d="M319.284 313.317C347.671 313.317 370.684 310.227 370.684 306.417C370.684 302.606 347.671 299.517 319.284 299.517C290.896 299.517 267.884 302.606 267.884 306.417C267.884 310.227 290.896 313.317 319.284 313.317Z" fill="#D1D3D4"/>
<path d="M315.784 91.7165L201.184 31.7165C197.984 30.0165 193.984 31.3165 192.284 34.5165C191.584 35.8165 191.384 37.3165 191.684 38.7165L196.184 63.9165L4.1837 98.0165C1.9837 98.4165 0.483694 100.517 0.883694 102.717L18.1837 200.017C18.5837 202.217 20.6837 203.717 22.8837 203.317L214.784 169.117L219.284 194.317C219.884 197.917 223.284 200.217 226.884 199.617C228.284 199.317 229.584 198.617 230.584 197.517L317.584 101.817C319.984 99.1165 319.784 95.0165 317.084 92.5165C316.684 92.3165 316.284 91.9165 315.784 91.7165Z" fill="white"/>
<path d="M22.0837 204.017C19.7837 204.017 17.7837 202.317 17.3837 200.117L0.0837027 102.817C-0.416297 100.217 1.3837 97.7165 3.8837 97.3165L195.084 63.4165L190.684 38.9165C189.984 35.0165 192.584 31.2165 196.584 30.5165C198.184 30.2165 199.784 30.5165 201.184 31.2165L315.784 91.2165C319.384 93.1165 320.684 97.5165 318.884 101.017C318.584 101.517 318.284 102.017 317.784 102.517L230.784 198.217C228.084 201.217 223.484 201.417 220.484 198.717C219.284 197.617 218.484 196.217 218.184 194.617L213.784 170.117L22.9837 203.917C22.6837 204.017 22.3837 204.017 22.0837 204.017ZM198.184 31.7165C194.884 31.7165 192.284 34.4165 192.384 37.6165C192.384 37.9165 192.384 38.2165 192.484 38.6165L196.884 63.8165C196.984 64.2165 196.684 64.5165 196.284 64.6165L4.2837 98.6165C2.4837 98.9165 1.2837 100.717 1.5837 102.517L18.8837 199.817C19.1837 201.617 20.9837 202.817 22.7837 202.517L214.684 168.417C215.084 168.317 215.384 168.617 215.484 169.017L219.984 194.217C220.584 197.417 223.584 199.517 226.784 199.017C228.084 198.817 229.184 198.117 230.084 197.217L317.084 101.517C319.284 99.1165 319.084 95.4165 316.684 93.2165C316.284 92.9165 315.884 92.6165 315.484 92.4165L200.784 32.4165C199.984 31.9165 198.984 31.7165 198.184 31.7165Z" fill="#231F20"/>
<path d="M21.9837 106.917C22.3837 106.917 22.6837 106.817 23.0837 106.717C26.6837 105.117 26.1837 98.5165 26.4837 95.3165C26.6837 93.5165 26.5837 91.3165 25.0837 90.4165C21.5837 88.3165 16.8837 89.2165 13.6837 91.5165C10.4837 93.8165 9.88367 98.1165 10.1837 101.917C10.2837 103.417 10.3837 106.717 11.7837 107.617C13.5837 108.817 15.6837 105.417 15.6837 103.817V105.017C15.6837 105.617 15.7837 106.217 15.8837 106.717C16.0837 107.317 16.4837 107.717 17.0837 107.817C17.9837 108.017 18.7837 107.217 19.1837 106.417C19.4837 105.517 19.7837 104.717 20.0837 103.817C19.4837 104.617 19.6837 105.717 20.3837 106.317C20.7837 106.817 21.3837 106.917 21.9837 106.917Z" fill="white"/>
<path d="M17.3837 108.617C17.2837 108.617 17.0836 108.617 16.9836 108.617C16.1836 108.417 15.4837 107.817 15.2837 107.017V106.917C14.8837 107.517 14.3837 107.917 13.7837 108.317C13.0837 108.717 12.1836 108.717 11.4836 108.217C9.98365 107.217 9.78365 104.417 9.68365 102.517V102.017C9.38365 98.5165 9.78365 93.7165 13.4836 91.0165C16.5836 88.8165 21.5837 87.4165 25.5837 89.9165C27.4837 91.1165 27.4837 93.7165 27.3837 95.5165C27.2837 96.1165 27.2837 96.8165 27.2837 97.5165C27.0837 101.117 26.8837 106.017 23.5837 107.417C23.1837 107.617 22.6837 107.717 22.2837 107.717C21.5837 107.717 20.8837 107.517 20.2837 107.017C20.1837 107.017 20.1837 106.917 20.0837 106.817C19.4837 107.817 18.4837 108.517 17.3837 108.617ZM16.3837 103.817V105.017C16.3837 105.517 16.3837 106.017 16.5837 106.517C16.6837 106.817 16.9837 107.117 17.2837 107.217C17.7837 107.317 18.2837 106.817 18.5837 106.217C18.6837 105.917 18.7837 105.517 18.8837 105.217C18.9837 105.017 18.9837 104.717 19.0837 104.517C19.1837 104.117 19.2837 103.817 19.5837 103.517C19.8837 103.217 20.2837 103.217 20.5837 103.417C20.8837 103.617 20.8837 104.017 20.7837 104.317C20.6837 104.517 20.5837 104.717 20.4837 104.917V105.117C20.4837 105.417 20.6837 105.717 20.8837 105.917C21.1837 106.217 21.5837 106.317 21.9837 106.317C22.2837 106.317 22.5837 106.217 22.7837 106.117C25.2837 105.017 25.4837 100.617 25.5837 97.4165C25.5837 96.6165 25.6837 95.9165 25.6837 95.3165C25.8837 93.0165 25.5837 91.6165 24.5837 91.1165C21.2837 89.1165 16.7836 90.1165 13.9836 92.2165C10.7836 94.5165 10.4837 98.8165 10.7837 101.917V102.417C10.8837 103.717 11.0836 106.417 11.9836 107.117C12.2836 107.317 12.5837 107.317 12.8837 107.117C13.8837 106.417 14.5837 105.217 14.7837 103.917C14.7837 103.517 15.0836 103.217 15.4836 103.217C15.9836 103.117 16.2837 103.417 16.3837 103.817Z" fill="#231F20"/>
<path d="M195.784 55.6165C194.284 55.1165 192.684 54.6166 191.084 54.2166C190.084 53.9166 189.084 53.8165 188.084 54.1165C186.584 54.7165 185.984 56.3165 185.484 57.8165C184.684 60.0165 183.984 62.5166 184.584 64.7166C185.484 68.0166 189.084 69.9165 192.384 70.8165C193.984 71.3165 195.784 71.5165 197.484 71.3165C207.384 69.5165 202.384 57.8165 195.784 55.6165Z" fill="white"/>
<path d="M196.084 72.1165C194.784 72.1165 193.484 71.9165 192.184 71.5165C189.584 70.8165 184.984 69.0165 183.884 64.9165C183.184 62.3165 184.084 59.7165 184.784 57.5165C185.384 55.9165 186.084 54.0165 187.784 53.4165C188.884 53.1165 190.084 53.1165 191.184 53.5165C192.784 53.9165 194.384 54.4165 195.884 54.9165C200.284 56.4165 203.884 61.7165 203.584 66.0165C203.484 67.8165 202.484 71.0165 197.484 71.9165C197.084 72.1165 196.584 72.2165 196.084 72.1165ZM189.184 54.7165C188.884 54.7165 188.584 54.7165 188.284 54.8165C187.084 55.2165 186.484 56.7165 186.084 58.0165C185.284 60.4165 184.684 62.5165 185.184 64.5165C186.084 67.9165 190.184 69.4165 192.484 70.1165C193.984 70.6165 195.684 70.7165 197.184 70.5165C200.284 69.9165 201.984 68.4165 202.184 65.9165C202.484 62.2165 199.184 57.5165 195.384 56.2165C193.884 55.7165 192.284 55.2165 190.784 54.8165C190.384 54.8165 189.784 54.7165 189.184 54.7165Z" fill="#231F20"/>
<path d="M337.584 87.0165C337.584 87.0165 346.184 128.317 335.984 131.017C322.184 134.717 264.784 120.617 264.784 120.617C264.784 120.617 249.784 124.317 247.184 120.317C244.584 116.317 247.184 110.817 248.484 110.617C249.784 110.417 261.084 109.517 261.084 109.517C261.084 109.517 251.884 102.717 254.784 102.217C257.684 101.717 267.884 105.117 267.884 105.117C267.884 105.117 324.084 109.317 323.584 106.417C323.084 103.517 320.484 92.6165 320.484 92.6165" fill="white"/>
<path d="M329.584 132.317C310.184 132.317 268.384 122.217 264.784 121.317C262.584 121.817 249.284 124.817 246.584 120.717C244.384 117.417 245.684 113.617 246.084 112.517C246.284 111.917 247.184 110.117 248.284 109.917C249.384 109.717 255.884 109.217 259.184 108.917C256.484 106.817 253.184 103.917 253.584 102.417C253.684 101.917 254.184 101.517 254.684 101.517C257.584 101.017 266.684 103.917 268.084 104.417C287.784 105.917 319.484 107.617 322.884 106.217C322.284 103.017 319.884 92.8165 319.884 92.7165C319.784 92.3165 320.084 92.0165 320.484 91.9165C320.784 91.8165 321.184 92.0165 321.284 92.4165C321.384 92.8165 323.884 103.417 324.384 106.317C324.484 106.617 324.384 106.917 324.184 107.117C321.884 109.617 280.584 106.817 267.984 105.817C267.884 105.817 267.884 105.817 267.784 105.817C264.984 104.917 257.384 102.617 255.084 102.917C255.484 103.817 258.284 106.517 261.584 108.917C261.784 109.117 261.884 109.417 261.884 109.717C261.784 110.017 261.584 110.217 261.284 110.217C258.184 110.417 249.784 111.117 248.784 111.317C248.084 111.917 247.584 112.717 247.384 113.617C246.584 115.717 246.784 118.017 247.884 119.917C249.584 122.517 259.084 121.317 264.784 119.917C264.884 119.917 264.984 119.917 265.084 119.917C265.684 120.017 322.384 133.817 335.984 130.317C343.784 128.217 339.384 98.4165 337.084 87.1165C336.984 86.7165 337.284 86.4165 337.584 86.3165C337.984 86.2165 338.284 86.5165 338.384 86.8165C339.284 91.1165 346.784 128.817 336.284 131.617C334.084 132.117 331.884 132.317 329.584 132.317Z" fill="#231F20"/>
</svg>
