<svg width="432" height="480" viewBox="0 0 432 480" fill="none" xmlns="http://www.w3.org/2000/svg">
<g clip-path="url(#clip0_129_765)">
<path d="M102.356 0H158.964L232.5 216L203.5 222.5L178 211L165.68 176.165H95L77.7297 227H24L102.356 0ZM157.045 140.037L130.5 52.7535L103.315 140.037H157.045Z" fill="#454041"/>
<path d="M173.499 395.562L158.218 420.011L192.709 443.85L228.772 410.057C228.772 410.057 209.737 360.459 204.41 356.879C199.084 353.299 173.499 395.562 173.499 395.562Z" fill="white"/>
<path d="M192.709 444.548C192.622 444.548 192.447 444.548 192.36 444.461L157.869 420.623C157.607 420.448 157.519 420.099 157.694 419.749L172.975 395.3C173.935 393.728 195.678 357.927 203.013 356.268C203.624 356.093 204.148 356.18 204.672 356.53C210.173 360.197 228.51 407.961 229.296 409.969C229.384 410.231 229.296 410.493 229.122 410.668L193.059 444.461C193.059 444.461 192.884 444.548 192.709 444.548ZM159.091 419.924L192.709 443.151L228.074 409.969C222.66 395.998 208.252 360.284 204.061 357.49C203.799 357.316 203.537 357.316 203.362 357.403C197.686 358.713 180.31 385.607 174.11 395.911L159.091 419.924Z" fill="#231F20"/>
<path d="M155.249 327.365C155.249 327.365 153.153 343.519 160.052 350.766C166.95 358.014 190.352 360.022 191.749 362.467C193.146 364.912 218.643 429.267 222.398 433.022C226.153 436.777 241.696 430.926 253.397 419.924C253.397 419.924 226.677 360.372 225.803 355.22C224.93 350.068 233.488 328.063 233.488 318.021L155.249 327.365Z" fill="white"/>
<path d="M226.065 434.768C224.581 434.856 223.097 434.419 221.874 433.459C219.342 430.926 208.427 404.556 197.425 377.749C194.106 369.715 191.487 363.428 191.137 362.73C190.788 362.031 186.422 360.983 182.58 360.11C174.721 358.276 163.981 355.744 159.528 351.116C152.542 343.781 154.463 327.889 154.55 327.19C154.55 326.928 154.812 326.666 155.074 326.666L233.226 317.411C233.575 317.411 233.837 317.585 233.924 317.934C233.924 317.934 233.924 317.934 233.924 318.022C233.924 323.261 231.567 331.818 229.471 339.415C227.55 346.313 225.803 352.775 226.24 355.133C227.113 360.197 253.571 419.138 253.833 419.662C253.92 419.924 253.92 420.186 253.659 420.361C244.752 428.918 232.876 434.768 226.065 434.768ZM155.773 327.889C155.511 330.596 154.55 344.043 160.488 350.33C164.68 354.696 175.158 357.141 182.929 358.975C188.78 360.372 191.661 361.07 192.273 362.118C192.709 362.817 194.718 367.794 198.647 377.312C206.157 395.736 220.302 429.966 222.835 432.585C226.24 435.991 241.259 430.402 252.611 419.749C250.078 414.074 226.065 360.285 225.105 355.307C224.581 352.688 226.327 346.401 228.336 339.066C230.257 331.906 232.527 323.872 232.702 318.72L155.773 327.889Z" fill="#231F20"/>
<path d="M244.141 424.639C243.879 424.639 243.704 424.465 243.617 424.29L215.5 353.124C215.412 352.775 215.5 352.426 215.849 352.338C216.198 352.251 216.548 352.338 216.635 352.688L244.752 423.853C244.839 424.203 244.752 424.552 244.403 424.639C244.228 424.639 244.228 424.727 244.141 424.639Z" fill="#D1D3D4"/>
<path d="M223.708 328.5C221.263 331.644 219.778 335.398 219.516 339.415C219.255 345.615 226.939 358.8 226.939 358.8L244.752 347.623L236.107 326.754L223.708 328.5Z" fill="#231F20"/>
<path d="M226.939 359.411H226.764C226.589 359.411 226.502 359.237 226.415 359.149C226.065 358.625 218.643 345.702 218.905 339.415C219.167 335.311 220.652 331.381 223.184 328.151C223.271 328.063 223.446 327.976 223.533 327.976L235.845 326.23C236.107 326.23 236.369 326.317 236.544 326.579L245.188 347.448C245.276 347.71 245.188 348.06 244.927 348.234L227.113 359.411C227.201 359.411 227.026 359.411 226.939 359.411ZM224.057 329.111C221.787 332.08 220.39 335.747 220.128 339.415C219.953 344.654 225.716 355.394 227.113 357.927L243.966 347.361L235.671 327.365L224.057 329.111Z" fill="#231F20"/>
<path d="M246.236 403.944C246.236 403.944 258.548 393.379 251.65 387.79C251.65 387.79 256.103 377.574 244.752 376.089C244.752 376.089 248.419 364.825 239.513 362.118C230.606 359.411 213.055 373.994 211.221 379.32C209.387 384.647 217.159 385.52 222.922 382.988C222.922 382.988 214.539 387.878 216.024 391.37C218.119 396.522 225.192 393.99 230.693 392.418C230.693 392.418 220.652 397.919 227.288 403.071C232.352 407.001 244.228 399.142 244.228 399.142L246.236 403.944Z" fill="white"/>
<path d="M230.868 404.817C229.384 404.905 227.986 404.468 226.764 403.595C225.018 402.198 224.144 400.626 224.319 398.967C224.494 397.046 225.891 395.3 227.288 394.077C222.398 395.387 217.159 396.26 215.325 391.719C214.365 389.362 216.897 386.655 219.254 384.821C216.024 385.345 212.967 384.909 211.483 383.511C210.697 382.726 209.911 381.416 210.697 379.233C212.618 373.732 230.519 358.8 239.687 361.681C241.958 362.293 243.879 363.864 245.014 365.96C246.848 369.54 246.062 374.081 245.538 375.827C248.769 376.351 250.952 377.748 252.174 379.844C253.92 382.9 252.873 386.655 252.349 387.877C253.571 388.925 254.27 390.497 254.357 392.156C254.444 397.832 246.935 404.381 246.673 404.643C246.498 404.73 246.324 404.817 246.149 404.73C245.974 404.643 245.8 404.556 245.712 404.381L243.879 400.277C241.87 401.237 235.845 404.817 230.868 404.817ZM230.606 391.807C230.955 391.807 231.217 392.069 231.217 392.418C231.217 392.68 231.13 392.855 230.868 392.942C230.781 392.942 225.716 395.824 225.542 399.054C225.454 400.277 226.153 401.499 227.55 402.634C232.265 406.302 243.617 398.705 243.791 398.705C243.966 398.618 244.141 398.618 244.315 398.618C244.49 398.705 244.665 398.792 244.665 398.967L246.411 402.984C248.157 401.325 253.135 396.173 253.047 391.981C253.047 390.584 252.349 389.187 251.214 388.401C251.039 388.227 250.952 387.965 251.039 387.703C251.039 387.703 252.785 383.511 251.039 380.368C249.991 378.447 247.808 377.312 244.665 376.875C244.315 376.875 244.141 376.526 244.141 376.177V376.089C244.141 376.002 245.887 370.501 243.791 366.484C242.831 364.65 241.172 363.341 239.251 362.817C230.781 360.197 213.579 374.517 211.832 379.669C211.396 380.63 211.57 381.852 212.356 382.638C214.19 384.297 218.905 384.21 222.66 382.551C222.922 382.376 223.271 382.551 223.446 382.813C223.62 383.075 223.533 383.424 223.184 383.599C221.088 384.821 215.5 388.751 216.46 391.196C218.207 395.474 224.057 393.728 229.209 392.243L230.344 391.894L230.606 391.807Z" fill="#231F20"/>
<path d="M236.456 343.432C236.456 343.432 236.806 333.128 228.074 336.97C219.342 340.812 206.156 349.893 213.055 355.918C219.953 361.943 234.361 351.29 236.456 343.432Z" fill="white"/>
<path d="M217.945 358.363C215.936 358.451 214.103 357.752 212.531 356.442C210.959 355.22 210.173 353.299 210.522 351.378C211.483 345.178 222.223 338.891 227.724 336.446C230.344 335.311 232.527 335.224 234.186 336.359C237.155 338.367 236.98 343.257 236.98 343.519C236.98 343.606 236.98 343.606 236.98 343.694C235.496 349.195 228.423 355.831 221.787 357.839C220.652 358.189 219.342 358.363 217.945 358.363ZM231.479 336.795C230.344 336.795 229.296 337.145 228.248 337.581C222.049 340.288 212.531 346.313 211.745 351.552C211.483 353.124 212.182 354.609 213.404 355.569C215.849 357.752 219.167 357.316 221.525 356.617C227.637 354.783 234.448 348.496 235.845 343.432C235.845 342.908 235.758 338.891 233.575 337.407C232.964 336.97 232.265 336.795 231.479 336.795Z" fill="#231F20"/>
<path d="M170.879 399.753C170.879 399.753 180.659 372.597 182.842 367.969C186.509 360.197 195.241 349.806 202.751 351.989C210.261 354.172 225.978 361.42 219.604 366.397C213.753 370.937 200.306 364.126 200.306 364.126C200.306 364.126 203.712 378.534 196.901 386.568" fill="white"/>
<path d="M170.879 400.364C170.792 400.364 170.705 400.364 170.705 400.364C170.355 400.277 170.268 399.928 170.355 399.578C170.792 398.443 180.135 372.335 182.318 367.707C186.16 359.586 195.067 349.108 202.926 351.378C208.339 352.95 220.652 358.101 221.612 363.166C221.874 364.65 221.176 366.048 219.953 366.833C214.801 370.85 204.497 366.746 201.092 365.174C201.79 368.842 203.1 380.019 197.25 386.917C197.075 387.179 196.639 387.179 196.377 387.004C196.115 386.742 196.115 386.393 196.289 386.131C202.838 378.36 199.608 364.388 199.608 364.214C199.52 363.952 199.608 363.777 199.782 363.603C199.957 363.428 200.219 363.428 200.393 363.515C200.481 363.603 213.666 370.064 219.08 365.873C219.953 365.349 220.39 364.388 220.302 363.341C219.516 359.499 209.3 354.434 202.489 352.513C195.416 350.505 186.859 360.634 183.279 368.143C181.096 372.684 171.403 399.578 171.316 399.84C171.316 400.19 171.141 400.364 170.879 400.364Z" fill="#231F20"/>
<path d="M321.157 366.309C321.157 366.309 271.297 328.413 241.783 327.714C234.361 327.627 226.851 328.063 219.516 328.937C202.14 330.945 184.588 334.525 172.451 335.049C148.351 335.922 130.363 328.238 130.276 303.09C130.276 281.609 140.405 277.592 161.885 271.742C172.538 268.773 192.971 265.804 212.356 260.39C224.144 257.072 235.583 252.968 244.053 247.38C266.582 232.71 283.347 199.179 283.347 199.179L321.157 366.309Z" fill="white"/>
<path d="M321.157 366.921C320.982 366.921 320.895 366.921 320.807 366.833C320.284 366.484 270.686 329.024 241.783 328.325C234.361 328.238 226.939 328.674 219.604 329.548C212.444 330.334 205.283 331.469 198.472 332.517C188.78 334.001 179.699 335.398 172.538 335.66C156.821 336.271 145.295 333.128 138.222 326.317C132.546 320.903 129.752 313.132 129.664 303.09C129.664 280.998 140.667 276.894 161.711 271.131C166.164 269.908 172.451 268.686 179.611 267.201C189.653 265.193 200.917 262.923 212.182 259.779C225.978 255.937 236.282 251.746 243.704 246.856C265.796 232.448 282.561 199.266 282.736 198.917C282.823 198.655 283.085 198.568 283.347 198.568C283.609 198.568 283.784 198.83 283.871 199.004L321.681 366.047C321.768 366.309 321.681 366.571 321.419 366.746C321.419 366.921 321.244 366.921 321.157 366.921ZM239.163 327.103C240.037 327.103 240.997 327.103 241.783 327.103C254.095 327.365 271.297 334.001 292.778 346.75C305.788 354.434 316.529 362.118 320.109 364.825L283.085 201.013C279.505 207.649 264.05 235.068 244.403 247.904C236.893 252.794 226.415 257.072 212.531 261.002C201.267 264.145 189.915 266.415 179.873 268.424C172.713 269.821 166.513 271.131 162.06 272.353C141.016 278.116 130.887 281.871 130.887 303.177C130.887 312.87 133.681 320.379 139.008 325.531C145.818 332.08 157.083 335.136 172.364 334.525C179.437 334.263 188.605 332.866 198.21 331.381C205.109 330.334 212.269 329.286 219.429 328.413C225.978 327.539 232.614 327.103 239.163 327.103Z" fill="#231F20"/>
<path d="M223.708 328.5C206.244 330.508 184.588 333.914 172.451 335.049C144.771 337.581 131.935 331.644 130.276 306.583C128.616 280.736 140.405 277.593 161.885 271.742C172.538 268.773 192.971 265.804 212.356 260.391C212.356 260.391 205.109 273.925 208.252 297.763C209.824 309.377 215.325 320.205 223.708 328.5Z" fill="#231F20"/>
<path d="M161.973 336.184C151.145 336.184 143.723 334.176 138.746 329.81C133.244 325.094 130.363 317.759 129.664 306.582C128.005 280.387 139.881 277.068 161.449 271.131L161.711 271.043C166.164 269.821 172.451 268.598 179.611 267.114C189.653 265.106 200.917 262.835 212.182 259.692C212.444 259.604 212.705 259.692 212.793 259.866C212.967 260.041 212.967 260.303 212.88 260.565C212.793 260.652 205.72 274.187 208.863 297.589C210.435 309.115 215.849 319.768 224.144 327.976C224.406 328.238 224.406 328.587 224.232 328.849C224.144 328.936 223.97 329.024 223.882 329.024C215.849 329.984 206.942 331.119 198.385 332.342C188.518 333.739 179.087 334.961 172.626 335.573C168.696 336.009 165.203 336.184 161.973 336.184ZM211.221 261.351C200.393 264.32 189.566 266.503 179.873 268.424C172.713 269.821 166.513 271.131 162.06 272.353L161.798 272.44C140.841 278.204 129.228 281.434 130.887 306.582C131.585 317.41 134.38 324.483 139.531 328.936C145.731 334.263 155.86 336.009 172.364 334.438C178.825 333.826 188.169 332.604 198.123 331.207C206.244 330.072 214.627 328.936 222.311 328.063C214.365 319.768 209.213 309.202 207.641 297.851C205.021 278.116 209.562 265.193 211.221 261.351Z" fill="#231F20"/>
<path d="M338.708 370.85C320.196 374.256 299.414 349.195 287.015 311.647C283.871 302.042 281.339 292.262 279.593 282.308C277.846 272.528 276.711 262.661 276.187 252.706C274.441 212.889 285.094 181.977 303.693 178.572C326.658 174.38 353.203 214.024 362.896 267.114C372.588 320.205 361.673 366.659 338.708 370.85Z" fill="#777777"/>
<path d="M307.011 178.222C329.19 178.222 353.64 216.556 362.808 267.114C372.501 320.205 361.673 366.659 338.708 370.85C337.573 371.025 336.438 371.112 335.303 371.199C317.664 371.199 298.628 347.012 286.927 311.735C283.784 302.129 281.252 292.35 279.505 282.308C277.759 272.528 276.624 262.661 276.1 252.706C274.353 212.888 285.006 181.977 303.606 178.572C304.741 178.31 305.876 178.222 307.011 178.222ZM307.011 177C305.789 177 304.566 177.087 303.431 177.349C284.57 180.755 273.131 211.055 274.965 252.794C275.925 272.965 279.593 292.961 285.88 312.084C298.017 348.758 317.489 372.422 335.39 372.422C336.612 372.422 337.835 372.335 338.97 372.073C350.584 369.977 359.578 357.665 364.293 337.581C368.921 317.847 368.833 292.699 364.118 266.852C359.665 242.315 351.369 219.699 340.891 203.021C330.238 186.256 318.188 177 307.011 177Z" fill="#231F20"/>
<path d="M324.475 298.113L286.927 311.647C283.784 302.042 281.252 292.262 279.505 282.308C277.759 272.528 276.624 262.661 276.1 252.706H318.363L324.475 298.113Z" fill="white"/>
<path d="M324.454 298.177C330.283 297.376 333.613 286.579 331.892 274.061C330.171 261.544 324.051 252.046 318.222 252.847C312.393 253.648 309.063 264.446 310.784 276.963C312.505 289.481 318.625 298.979 324.454 298.177Z" fill="#D1D3D4"/>
<path d="M230.606 393.029C230.344 393.029 230.169 392.942 230.082 392.68C229.908 392.418 229.995 391.982 230.344 391.894C230.606 391.72 236.718 388.576 242.394 387.703C242.744 387.616 243.005 387.878 243.093 388.227C243.18 388.576 242.918 388.838 242.569 388.925C237.068 389.799 230.955 392.942 230.868 393.029C230.868 393.029 230.693 393.029 230.606 393.029Z" fill="#231F20"/>
<path d="M222.922 383.599C222.747 383.599 222.66 383.512 222.485 383.424C222.223 383.162 222.223 382.813 222.485 382.551C226.24 378.971 231.043 376.788 236.282 376.264C236.631 376.264 236.893 376.439 236.98 376.788C236.98 377.137 236.806 377.399 236.456 377.487C231.567 377.923 227.026 380.019 223.446 383.337C223.271 383.512 223.097 383.599 222.922 383.599Z" fill="#231F20"/>
<path d="M244.141 399.753C243.879 399.753 243.704 399.578 243.617 399.404C243.442 399.055 243.617 398.705 243.966 398.618L248.07 396.871C248.419 396.697 248.769 396.872 248.856 397.221C249.031 397.57 248.856 397.919 248.507 398.007L244.403 399.753C244.315 399.753 244.228 399.753 244.141 399.753Z" fill="#231F20"/>
<path d="M194.892 446.295C194.892 446.295 202.926 440.007 203.1 439.309C203.275 438.61 165.203 402.547 165.203 402.547L143.635 416.169L194.892 446.295Z" fill="#231F20"/>
<path d="M194.892 446.906C194.805 446.906 194.718 446.906 194.543 446.818L143.286 416.693C143.024 416.518 142.937 416.169 143.112 415.82C143.199 415.733 143.199 415.645 143.286 415.645L164.854 402.023C165.116 401.849 165.378 401.936 165.64 402.111C203.974 438.436 203.799 438.96 203.712 439.484C203.624 439.658 203.45 440.357 195.329 446.731C195.154 446.818 195.067 446.906 194.892 446.906ZM144.771 416.169L194.805 445.509C198.036 442.976 201.354 440.182 202.314 439.309C199.869 436.515 179.262 416.693 165.116 403.333L144.771 416.169Z" fill="#231F20"/>
<path d="M197.163 446.906L149.399 406.913L41.6926 480H167.823L197.163 446.906Z" fill="#777777"/>
<path d="M147.652 331.032C147.39 331.032 147.128 330.858 147.041 330.683C139.619 311.56 138.92 293.572 144.945 279.95C145.033 279.688 145.12 279.513 145.207 279.426C145.207 279.164 145.469 278.902 145.731 278.902C145.731 278.902 145.731 278.902 145.818 278.902C146.168 278.902 146.43 279.252 146.43 279.601C146.43 279.95 146.255 280.212 146.08 280.561C140.143 293.921 140.929 311.56 148.176 330.334C148.263 330.683 148.176 331.032 147.827 331.12C147.827 331.032 147.739 331.032 147.652 331.032Z" fill="white"/>
<path d="M171.054 275.322C170.705 275.322 170.443 275.06 170.443 274.711C170.443 274.362 170.617 274.1 170.967 274.1L197.861 268.861C198.21 268.773 198.472 268.948 198.56 269.297C198.647 269.647 198.385 269.908 198.123 269.996L171.229 275.235L171.054 275.322Z" fill="white"/>
<path d="M171.054 280.561C170.792 280.561 170.53 280.387 170.443 280.037C170.355 279.688 170.617 279.426 170.967 279.339L197.861 274.012C198.21 273.925 198.56 274.1 198.647 274.449C198.734 274.798 198.56 275.148 198.21 275.235H198.123L171.229 280.561H171.054Z" fill="white"/>
<path d="M171.054 286.674C170.792 286.674 170.53 286.499 170.443 286.15C170.355 285.8 170.617 285.538 170.967 285.451L197.861 280.125C198.21 280.037 198.56 280.212 198.647 280.561C198.734 280.911 198.56 281.26 198.21 281.347H198.123L171.229 286.674H171.054Z" fill="white"/>
<path d="M119.774 396.085C119.774 396.368 119.641 396.63 119.483 396.82C119.318 397.017 119.079 397.195 118.783 397.269L118.724 397.284H118.662C118.103 397.284 117.58 396.869 117.553 396.305L117.489 395.689C116.015 382.806 105.38 373.29 95.6603 368.771L95.6574 368.77C89.3184 365.774 80.0317 362.489 70.5129 360.292C60.9867 358.092 51.2935 356.997 44.1066 358.328C43.5379 358.483 43.0952 358.077 42.8889 357.767L42.8517 357.711L42.8303 357.648C42.7517 357.412 42.7581 357.163 42.8068 356.952C42.8551 356.743 42.9572 356.52 43.1262 356.351L43.1564 356.321L43.1906 356.296L46.7668 353.766C54.1541 348.433 61.993 342.808 68.2736 336.104C74.5469 329.408 79.2368 321.666 80.3557 312.113C82.0848 296.848 76.6796 282.265 70.7756 271.435C67.8262 266.025 64.7594 261.565 62.4142 258.442C61.242 256.881 60.2506 255.654 59.5451 254.811C59.1925 254.39 58.9114 254.064 58.715 253.84C58.6168 253.729 58.5394 253.642 58.4855 253.583C58.4349 253.526 58.4111 253.501 58.4074 253.497C58.2019 253.291 58.1301 253.018 58.1301 252.783C58.1301 252.543 58.2025 252.293 58.3449 252.08C58.4794 251.878 58.6788 251.696 58.9455 251.624C59.205 251.553 59.4638 251.603 59.6867 251.736C59.7089 251.745 59.8318 251.8 60.0715 251.894C60.3281 251.995 60.7009 252.136 61.1818 252.308C62.1441 252.652 63.5396 253.116 65.3049 253.613C68.8357 254.606 73.8458 255.732 79.841 256.301C91.833 257.441 107.748 256.354 123.659 247.553C154.905 230.242 153.876 195.959 153.876 195.599C153.876 195.411 153.908 195.211 154.015 195.018C154.12 194.828 154.275 194.687 154.447 194.572L154.503 194.535L154.567 194.513C154.889 194.406 155.389 194.346 155.766 194.711C156.443 195.275 164.307 202.038 174.886 208.578C180.343 211.951 186.504 215.252 192.744 217.594C198.989 219.938 205.28 221.31 211.007 220.86C225.804 219.692 236.116 213.292 242.742 207.152C246.057 204.081 248.448 201.075 250.016 198.823C250.799 197.697 251.376 196.76 251.759 196.099C251.95 195.769 252.093 195.508 252.188 195.328C252.235 195.237 252.271 195.167 252.294 195.12C252.306 195.095 252.313 195.08 252.317 195.073L252.332 195.028L252.369 194.972C252.509 194.763 252.719 194.584 252.966 194.489C253.188 194.403 253.469 194.379 253.736 194.507L253.849 194.572L253.999 194.689C254.142 194.819 254.261 194.983 254.332 195.168C254.425 195.411 254.444 195.722 254.273 196.009C254.259 196.039 254.247 196.069 254.237 196.088C254.209 196.146 254.169 196.226 254.116 196.325C254.012 196.522 253.859 196.802 253.655 197.152C253.249 197.852 252.641 198.836 251.819 200.015C250.174 202.373 247.671 205.515 244.207 208.725C237.277 215.148 226.501 221.846 211.086 223.08C200.054 223.966 187.497 218.678 177.036 212.623C167.376 207.03 159.423 200.731 155.971 197.857C155.578 206.138 152.273 234.154 124.666 249.388L124.667 249.389C98.4432 263.866 72.1549 258.022 62.5588 255.014C65.6125 258.894 70.8359 266.149 75.2141 275.392C80.1476 285.807 84.0271 298.784 82.4846 312.315C81.3337 322.407 76.4636 330.514 70.0197 337.431C63.5835 344.34 55.5509 350.087 48.049 355.452L47.9426 355.533C55.2286 355.044 64.033 356.313 72.5002 358.369C81.6544 360.592 90.4626 363.746 96.6086 366.643L97.5764 367.113C107.615 372.128 118.479 382.178 119.771 396.04L119.774 396.062V396.085Z" fill="#D1D3D4" stroke="#D1D3D4"/>
<path d="M432.204 298.812C432.204 299.001 432.171 299.181 432.095 299.353C432.019 299.522 431.912 299.66 431.795 299.776L431.77 299.801L431.742 299.822C431.55 299.967 422.999 305.818 413.644 314.128C408.967 318.282 404.1 323.042 399.986 327.997C395.868 332.957 392.528 338.087 390.875 342.98V342.981C387.438 353.122 389.294 363.309 393.921 373.17C398.262 382.421 405.024 391.347 412.07 399.615L413.482 401.26L413.503 401.283L413.52 401.31C413.651 401.506 413.735 401.731 413.735 401.979C413.735 402.228 413.651 402.454 413.52 402.65C413.218 403.104 412.596 403.293 412.09 402.991C405.134 399.58 392.33 396.211 378.44 395.657C364.543 395.103 349.651 397.37 338.47 405.141C316.824 420.18 308.207 436.452 304.996 448.973C301.782 461.505 303.971 470.322 304.003 470.448C304.081 470.719 304.026 470.969 303.94 471.158C303.853 471.351 303.722 471.509 303.609 471.621C303.511 471.719 303.348 471.834 303.125 471.834C303.003 471.834 302.899 471.798 302.813 471.751C302.567 471.709 302.345 471.588 302.204 471.447C301.951 471.195 278.792 447.523 244.905 452.029L244.904 452.028C244.589 452.09 244.298 452.004 244.075 451.822C243.853 451.641 243.719 451.384 243.655 451.131L243.641 451.071V451.01C243.641 450.753 243.706 450.491 243.867 450.269C244.032 450.042 244.269 449.895 244.543 449.826L244.57 449.819L244.599 449.815C273.29 445.979 294.531 461.67 301.449 467.65C300.323 457.971 300.644 428.726 337.287 403.185C348.322 395.504 362.697 393.009 376.253 393.239C388.806 393.452 400.717 396.004 408.736 399C401.82 390.763 395.31 381.858 391.21 372.592C386.855 362.748 385.204 352.463 388.705 342.136C391.892 332.708 400.622 322.856 409.228 314.872C417.168 307.507 425.068 301.676 428.595 299.156C408.302 292.617 393.793 283.699 384.83 271.97C375.718 260.045 372.386 245.28 374.449 227.326C374.485 226.662 375.139 226.218 375.766 226.375C376.019 226.438 376.276 226.572 376.457 226.794C376.638 227.015 376.724 227.304 376.665 227.616L376.489 229.255C374.839 246.091 378.252 259.871 386.954 271.031C395.948 282.565 410.641 291.364 431.415 297.81L431.425 297.812V297.813C431.646 297.887 431.821 298.009 431.951 298.184C432.069 298.34 432.132 298.517 432.178 298.653L432.204 298.73V298.812Z" fill="#D1D3D4" stroke="#D1D3D4"/>
</g>
<defs>
<clipPath id="clip0_129_765">
<rect width="432" height="480" fill="white"/>
</clipPath>
</defs>
</svg>
