<svg width="432" height="480" viewBox="0 0 432 480" fill="none" xmlns="http://www.w3.org/2000/svg">
<g clip-path="url(#clip0_129_763)">
<path d="M24 112.764C24 98.9213 26.5595 85.3982 31.6785 72.1944C36.7975 58.7778 44.2628 46.6389 54.0742 35.7778C63.8856 24.9167 75.83 16.2917 89.9073 9.90278C103.985 3.30093 119.981 0 137.898 0C159.227 0 177.677 4.5787 193.247 13.7361C209.031 22.8935 220.762 34.8195 228.44 49.5139L188.128 77.625C184.716 69.5324 180.13 63.25 174.371 58.7778C168.825 54.3056 162.64 51.2176 155.815 49.5139C149.202 47.5972 142.804 46.6389 136.618 46.6389C126.594 46.6389 117.849 48.662 110.383 52.7083C102.918 56.5417 96.7326 61.7593 91.8269 68.3611C86.9212 74.963 83.2952 82.3102 80.949 90.4028C78.6028 98.4954 77.4297 106.588 77.4297 114.681C77.4297 123.625 78.8161 132.25 81.5889 140.556C84.3617 148.861 88.3076 156.208 93.4266 162.597C98.7589 168.986 105.158 174.097 112.623 177.931C120.088 181.551 128.3 183.361 137.258 183.361C143.657 183.361 150.162 182.296 156.774 180.167C163.386 178.037 169.465 174.736 175.011 170.264C180.77 165.579 185.142 159.509 188.128 152.056L231 177.292C226.521 188.366 219.162 197.843 208.924 205.722C198.686 213.602 187.062 219.671 174.051 223.931C161.253 227.977 148.563 230 135.978 230C119.555 230 104.411 226.699 90.5472 220.097C76.8965 213.282 65.0587 204.338 55.034 193.264C45.2226 181.977 37.5441 169.412 31.9985 155.569C26.6662 141.514 24 127.245 24 112.764Z" fill="#454041"/>
<path d="M164.5 446.664C164.5 446.664 169.8 403.164 172.9 393.664C176 384.164 175.1 293.064 175.2 292.164C175.3 291.264 125.9 315.864 121.6 323.164C117.3 330.464 128.5 378.264 125.4 385.164C122.3 392.064 111.9 422.264 111.9 422.264L164.5 446.664Z" fill="white"/>
<path d="M164.5 447.364C164.4 447.364 164.3 447.364 164.2 447.264L111.7 422.864C111.4 422.764 111.2 422.364 111.3 421.964C111.7 420.764 121.6 391.564 124.7 384.764C126.1 381.764 124.4 369.164 122.7 356.964C120.7 342.164 118.5 326.764 121 322.664C123.5 318.564 137.7 310.364 149.3 304.064C153.1 302.064 174.1 290.964 175.4 291.364C175.7 291.464 175.9 291.764 175.9 292.164C175.9 292.364 175.9 294.864 175.9 298.264C176 319.864 176.2 385.664 173.6 393.864C170.6 403.164 165.3 446.264 165.2 446.764C165.2 446.964 165 447.164 164.8 447.264C164.7 447.264 164.6 447.364 164.5 447.364ZM112.8 421.864L163.9 445.564C164.7 438.964 169.4 402.164 172.2 393.364C173.9 388.064 174.7 356.064 174.5 298.264C174.5 295.464 174.5 293.864 174.5 293.064C168 295.664 126.1 316.964 122.3 323.464C120.1 327.164 122.3 342.964 124.2 356.864C126.1 370.364 127.6 381.964 126.1 385.364C123.1 391.664 114.3 417.564 112.8 421.864Z" fill="#231F20"/>
<path d="M163.7 484.864L172.1 428.564L114.7 400.164L85.7 481.964L163.7 484.864Z" fill="#231F20"/>
<path d="M163.7 485.564L85.7 482.764C85.3 482.764 85 482.464 85 482.064C85 481.964 85 481.964 85 481.864L114 399.964C114.1 399.564 114.5 399.364 114.9 399.564H115L172.4 427.964C172.7 428.064 172.8 428.364 172.8 428.664L164.4 484.964C164.3 485.264 164 485.564 163.7 485.564ZM86.7 481.364L163.1 484.164L171.4 428.964L115.2 401.164L86.7 481.364Z" fill="#231F20"/>
<path d="M170.7 183.364H351.3C354.8 183.364 357.7 186.264 357.7 189.764V427.264C357.7 430.764 354.8 433.664 351.3 433.664H170.7C167.2 433.664 164.3 430.764 164.3 427.264V189.764C164.3 186.264 167.2 183.364 170.7 183.364Z" fill="white"/>
<path d="M348.8 434.364H173.2C167.9 434.364 163.6 430.064 163.6 424.764V192.264C163.6 186.964 167.9 182.664 173.2 182.564H348.7C354 182.564 358.3 186.864 358.3 192.264V424.664C358.4 429.964 354.1 434.364 348.8 434.364ZM173.2 184.064C168.6 184.064 165 187.764 165 192.264V424.664C165 429.264 168.7 432.864 173.2 432.864H348.7C353.3 432.864 356.9 429.164 356.9 424.664V192.264C356.9 187.664 353.2 184.064 348.7 184.064H173.2Z" fill="#231F20"/>
<path d="M345.8 198.664H176.1V418.264H345.8V198.664Z" fill="white"/>
<path d="M345.9 418.964H176.1C175.7 418.964 175.4 418.664 175.4 418.264V198.664C175.4 198.264 175.7 197.964 176.1 197.964H345.8C346.2 197.964 346.5 198.264 346.5 198.664V418.264C346.6 418.664 346.3 418.964 345.9 418.964ZM176.9 417.564H345.2V199.364H176.8L176.9 417.564Z" fill="#231F20"/>
<path d="M305.4 174.464H281C278.9 163.464 268.2 156.264 257.2 158.364C249 159.964 242.7 166.364 241.1 174.464H216.7C213.5 174.464 210.8 177.064 210.8 180.264V200.664C210.8 203.864 213.4 206.564 216.6 206.564H305.3C308.5 206.564 311.2 203.964 311.2 200.764V180.364C311.2 177.164 308.6 174.464 305.4 174.464ZM261 177.164C258.1 177.164 255.8 174.864 255.8 171.964C255.8 169.064 258.1 166.764 261 166.764C263.9 166.764 266.2 169.064 266.2 171.964C266.2 174.864 263.9 177.164 261 177.164Z" fill="#777777"/>
<path d="M241.5 268.964H200.5C200.1 268.964 199.9 268.664 199.9 268.364V224.564C199.9 224.164 200.2 223.964 200.5 223.964H241.5C241.9 223.964 242.1 224.264 242.1 224.564V268.264C242.2 268.664 241.9 268.964 241.5 268.964ZM201.1 267.664H240.8V225.164H201.1V267.664Z" fill="#D1D3D4"/>
<path d="M251.1 235.264C250.9 235.664 250.6 235.964 250.4 236.264L223.9 262.664C223.5 263.364 222.5 263.564 221.8 263.164C221.6 263.064 221.5 262.864 221.3 262.664L206.5 247.264C205.9 246.764 205.7 245.864 206.2 245.264C206.3 245.164 206.4 244.964 206.6 244.964L210.3 241.564C210.8 240.964 211.7 240.864 212.3 241.364C212.4 241.464 212.5 241.564 212.5 241.564L221.3 250.564C222.2 251.464 222.9 251.464 223.8 250.564L244.4 230.064C244.8 229.364 245.8 229.164 246.4 229.664C246.6 229.764 246.7 229.964 246.8 230.064C248 231.264 249.1 232.364 250.3 233.564C250.6 233.864 250.8 234.264 251 234.564L251.1 235.264Z" fill="#777777"/>
<path d="M324.5 240.164H265.6C265.2 240.164 265 239.864 265 239.564C265 239.164 265.3 238.864 265.6 238.864H324.5C324.9 238.864 325.1 239.164 325.1 239.564C325.2 239.864 324.9 240.164 324.5 240.164Z" fill="#D1D3D4"/>
<path d="M308.9 253.964H265.7C265.3 253.964 265.1 253.564 265.1 253.264C265.1 252.964 265.4 252.764 265.7 252.664H308.9C309.3 252.664 309.5 253.064 309.5 253.364C309.4 253.664 309.2 253.864 308.9 253.964Z" fill="#D1D3D4"/>
<path d="M241.5 328.764H200.5C200.1 328.764 199.9 328.464 199.9 328.164V284.364C199.9 283.964 200.2 283.764 200.5 283.764H241.5C241.9 283.764 242.1 284.064 242.1 284.364V328.164C242.1 328.464 241.9 328.764 241.5 328.764ZM201.1 327.464H240.8V284.964H201.1V327.464Z" fill="#D1D3D4"/>
<path d="M251.1 295.064C250.9 295.464 250.6 295.764 250.4 296.064L223.9 322.464C223.5 323.164 222.5 323.364 221.8 322.964C221.6 322.864 221.5 322.664 221.3 322.464L206.5 307.064C205.9 306.564 205.7 305.664 206.2 305.064C206.3 304.964 206.4 304.764 206.6 304.764L210.3 301.364C210.8 300.764 211.7 300.664 212.3 301.164C212.4 301.264 212.5 301.364 212.5 301.364L221.3 310.364C222.2 311.264 222.9 311.264 223.8 310.364L244.4 289.864C244.8 289.164 245.8 288.964 246.4 289.464C246.6 289.564 246.7 289.764 246.8 289.864C248 291.064 249.1 292.164 250.3 293.364C250.6 293.664 250.8 294.064 251 294.364L251.1 295.064Z" fill="#777777"/>
<path d="M324.5 299.964H265.6C265.2 299.964 265 299.564 265 299.264C265 298.964 265.3 298.764 265.6 298.664H324.5C324.9 298.664 325.2 298.864 325.2 299.264C325.2 299.664 325 299.964 324.6 299.964C324.7 299.964 324.6 299.964 324.5 299.964Z" fill="#D1D3D4"/>
<path d="M308.9 313.764H265.7C265.3 313.764 265.1 313.364 265.1 313.064C265.1 312.764 265.4 312.564 265.7 312.464H308.9C309.3 312.464 309.5 312.864 309.5 313.164C309.4 313.464 309.2 313.764 308.9 313.764Z" fill="#D1D3D4"/>
<path d="M241.5 388.364H200.5C200.1 388.364 199.9 388.064 199.9 387.764V343.964C199.9 343.564 200.2 343.364 200.5 343.364H241.5C241.9 343.364 242.1 343.664 242.1 343.964V387.764C242.1 388.064 241.8 388.364 241.5 388.364ZM201.1 387.064H240.8V344.564H201.1V387.064Z" fill="#D1D3D4"/>
<path d="M251.1 354.564C250.9 354.964 250.6 355.264 250.4 355.564L223.9 382.064C223.5 382.764 222.5 382.964 221.8 382.564C221.6 382.464 221.5 382.264 221.3 382.064L206.5 366.664C205.9 366.164 205.7 365.264 206.2 364.664C206.3 364.564 206.4 364.364 206.6 364.364L210.3 360.964C210.8 360.364 211.7 360.264 212.3 360.764C212.4 360.864 212.5 360.964 212.5 360.964L221.3 369.964C222.2 370.864 222.9 370.864 223.8 369.964L244.4 349.464C244.8 348.764 245.8 348.564 246.4 349.064C246.6 349.164 246.7 349.364 246.8 349.464C248 350.664 249.1 351.764 250.3 352.964C250.6 353.264 250.8 353.664 251 353.964L251.1 354.564Z" fill="#777777"/>
<path d="M324.5 359.564H265.6C265.2 359.564 265 359.264 265 358.864C265 358.464 265.3 358.264 265.6 358.264H324.5C324.9 358.264 325.2 358.564 325.2 358.864C325.2 359.164 324.9 359.564 324.5 359.564C324.6 359.564 324.6 359.564 324.5 359.564Z" fill="#D1D3D4"/>
<path d="M308.9 373.264H265.7C265.3 373.264 265.1 372.864 265.1 372.564C265.1 372.264 265.4 372.064 265.7 371.964H308.9C309.3 371.964 309.5 372.364 309.5 372.664C309.4 373.064 309.2 373.264 308.9 373.264Z" fill="#D1D3D4"/>
<path d="M137.5 335.364C147.8 324.164 160.1 314.864 173 306.564C176.2 304.564 179.6 302.464 183.4 302.364C187.2 302.264 191.3 304.964 191.4 308.764C191.5 311.764 189.3 314.164 187.2 316.264L159.8 343.764C166.6 356.664 165.1 372.364 155.9 383.664" fill="white"/>
<path d="M155.7 384.464C155.5 384.464 155.4 384.364 155.3 384.264C155 384.064 155 383.564 155.2 383.264C164.1 372.664 165.7 356.264 159 344.164C158.9 343.864 158.9 343.564 159.1 343.364L186.5 315.764C188.6 313.664 190.6 311.364 190.5 308.764C190.4 305.364 186.5 302.964 183.2 303.064C179.7 303.164 176.4 305.064 173.2 307.064C158.3 316.664 147 325.764 137.9 335.664C137.6 335.964 137.2 335.964 136.9 335.664C136.6 335.364 136.6 334.964 136.8 334.664C146 324.564 157.4 315.464 172.4 305.764C175.8 303.564 179.3 301.564 183.2 301.464C187.1 301.364 191.8 304.264 191.9 308.464C192 311.664 189.8 314.164 187.5 316.564L160.5 343.964C167.3 357.064 165.6 372.864 156.3 384.264C156.1 384.364 155.9 384.464 155.7 384.464Z" fill="#231F20"/>
<path d="M377.7 418.264L343.8 442.564L280.4 364.164C280.5 359.864 277.6 341.564 283.9 344.464C290.2 347.364 313.5 374.064 317.4 374.964C321.3 375.864 330.2 371.464 328.8 362.864C327.4 354.264 325.8 339.764 317.4 339.164C304.6 338.264 292.7 346.764 287.7 344.764C282.7 342.764 278.5 336.064 286.7 331.164C296.1 325.464 316.5 321.964 332.7 323.664C348.9 325.364 361.3 358.264 362.5 382.264C366.7 397.564 375 411.464 377.7 418.264Z" fill="white"/>
<path d="M343.8 443.164C343.6 443.164 343.4 443.064 343.3 442.864L279.9 364.564C279.8 364.464 279.7 364.264 279.7 364.064C279.7 363.264 279.6 361.764 279.5 360.064C278.9 352.564 278.7 345.564 281.2 343.864C282.1 343.264 283.2 343.264 284.1 343.864C287.4 345.464 295.1 353.164 302.5 360.564C308.7 366.864 315.8 373.964 317.4 374.264C319 374.564 322.6 373.664 325.1 371.364C327.5 369.264 328.6 366.064 328 362.864L327.7 361.064C326.4 352.764 324.5 340.164 317.2 339.664C310.4 339.164 303.7 341.464 298.3 343.264C293.6 344.864 289.8 346.164 287.3 345.264C284 343.964 281.5 341.064 281.2 338.064C281 336.064 281.7 333.064 286.2 330.364C296 324.464 316.8 321.064 332.7 322.764C349.8 324.664 361.9 358.364 363.1 381.864C366 392.264 370.9 402.064 374.4 409.264C376 412.564 377.4 415.464 378.3 417.664C378.4 417.964 378.3 418.264 378.1 418.464L344.2 442.764C344.1 443.164 343.9 443.164 343.8 443.164ZM281.1 363.964L343.9 441.564L376.8 417.964C376 415.964 374.7 413.264 373.2 410.164C369.6 402.864 364.8 392.964 361.8 382.464C361.8 382.364 361.8 382.364 361.8 382.264C360.7 359.864 348.8 326.164 332.6 324.364C317 322.664 296.6 325.964 287 331.764C284 333.564 282.5 335.764 282.7 338.164C282.9 340.564 285.1 343.064 287.9 344.164C290 344.964 293.7 343.664 298 342.164C303.5 340.264 310.3 337.964 317.5 338.464C326 339.064 328 352.264 329.3 361.064L329.6 362.764C330.2 366.364 328.9 369.964 326.2 372.464C323.6 374.864 319.8 376.264 317.3 375.664C315.3 375.164 310.1 370.064 301.7 361.564C294.7 354.564 286.8 346.564 283.7 345.064C282.7 344.564 282.3 344.864 282.2 344.964C280.1 346.464 280.7 355.164 281.1 359.964C281 361.664 281.1 363.064 281.1 363.964Z" fill="#231F20"/>
<path d="M259.3 349.564L260.7 360.964L248.6 358.764L242.2 357.464L248.1 354.764L259.3 349.564Z" fill="white"/>
<path d="M260.7 361.664H260.6L242.1 358.164C241.8 358.064 241.6 357.864 241.5 357.564C241.5 357.264 241.6 356.964 241.9 356.864L259 348.864C259.2 348.764 259.4 348.764 259.6 348.864C259.8 348.964 259.9 349.164 260 349.364L261.4 360.764C261.4 360.964 261.3 361.164 261.2 361.364C261.1 361.564 260.9 361.664 260.7 361.664ZM244.5 357.264L259.9 360.164L258.7 350.664L244.5 357.264Z" fill="#231F20"/>
<path d="M349.5 349.764L260.7 361.064C258.7 357.564 258.2 353.464 259.3 349.664L348.1 338.364L349.5 349.764Z" fill="#777777"/>
<path d="M260.7 361.664C260.4 361.664 260.2 361.564 260.1 361.264C259.1 359.464 258.5 357.464 258.2 355.464C258 353.364 258.1 351.364 258.6 349.364C258.7 349.064 258.9 348.864 259.2 348.864L348 337.564C348.4 337.564 348.7 337.764 348.8 338.164L350.3 349.564C350.3 349.764 350.3 349.964 350.2 350.064C350.1 350.164 349.9 350.264 349.7 350.364L260.7 361.664ZM259.9 350.164C259.1 353.564 259.5 357.064 261.2 360.164L348.8 349.064L347.6 339.064L259.9 350.164Z" fill="#231F20"/>
<path d="M364.6 347.764L349.5 349.664L348.1 338.264L363.2 336.364C364.4 336.164 365.6 337.064 365.7 338.364L366.6 345.264C366.7 346.564 365.8 347.664 364.6 347.764Z" fill="white"/>
<path d="M349.5 350.464C349.1 350.464 348.9 350.164 348.8 349.864L347.3 338.464C347.3 338.264 347.3 338.064 347.4 337.964C347.5 337.864 347.7 337.764 347.9 337.664L362.1 335.864C364.2 335.564 366.2 337.064 366.4 339.264L367 344.364C367.3 346.464 365.8 348.464 363.6 348.664L349.5 350.464ZM348.8 338.864L350.1 348.864L363.6 347.164C365 346.964 365.9 345.764 365.8 344.364L365.2 339.264C365 337.864 363.8 336.964 362.4 337.064L348.8 338.864Z" fill="#231F20"/>
<path d="M353.048 335.717L351.462 335.926L352.959 347.328L354.546 347.119L353.048 335.717Z" fill="#231F20"/>
<path d="M356.35 335.309L354.764 335.517L356.261 346.919L357.847 346.711L356.35 335.309Z" fill="#231F20"/>
<path d="M248.1 354.764L248.6 358.764L242.2 357.464L248.1 354.764Z" fill="#777777"/>
<path d="M248.6 359.464H248.5L242.1 358.264C241.8 358.164 241.6 357.964 241.5 357.664C241.5 357.364 241.6 357.064 241.9 356.964L247.8 354.164C248 354.064 248.2 354.064 248.4 354.164C248.6 354.264 248.7 354.464 248.8 354.664L249.3 358.664C249.3 358.864 249.2 359.064 249.1 359.264C249 359.364 248.8 359.464 248.6 359.464ZM244.5 357.264L247.9 357.864L247.6 355.764L244.5 357.264Z" fill="#231F20"/>
<path d="M283.6 368.064C283.6 368.064 274.8 357.164 272.3 353.164C268.1 346.664 278.4 340.864 282.2 343.564C284.8 345.464 298.5 357.564 301.2 360.164" fill="white"/>
<path d="M283.6 368.764C283.4 368.764 283.2 368.664 283.1 368.464C282.7 368.064 274.3 357.464 271.7 353.464C269.9 350.564 270.4 347.364 273.1 344.864C275.8 342.364 280.1 341.064 282.6 342.864C285.1 344.664 298.9 356.864 301.7 359.464C302 359.764 302 360.164 301.7 360.464C301.4 360.764 301 360.764 300.7 360.464C297.9 357.864 284.3 345.864 281.7 343.964C280 342.764 276.3 343.664 274 345.864C273 346.864 270.8 349.364 272.9 352.664C275.4 356.664 284.1 367.364 284.2 367.564C284.4 367.864 284.4 368.264 284.1 368.564C283.9 368.664 283.8 368.764 283.6 368.764Z" fill="#231F20"/>
<path d="M371.5 391.864L323.6 428.264L345.9 487.764L431.3 483.564L371.5 391.864Z" fill="#231F20"/>
<path d="M345.9 488.464C345.6 488.464 345.4 488.264 345.3 487.964L323 428.364C322.9 428.064 323 427.764 323.2 427.564L371.1 391.164C371.3 391.064 371.5 390.964 371.6 391.064C371.8 391.064 372 391.164 372.1 391.364L431.9 483.164C432.1 483.464 432 483.964 431.7 484.164C431.6 484.264 431.5 484.264 431.4 484.264L345.9 488.464ZM324.4 428.464L346.3 487.064L430 482.964L371.3 392.864L324.4 428.464Z" fill="#231F20"/>
</g>
<defs>
<clipPath id="clip0_129_763">
<rect width="432" height="480" fill="white"/>
</clipPath>
</defs>
</svg>
