<svg width="432" height="480" viewBox="0 0 432 480" fill="none" xmlns="http://www.w3.org/2000/svg">
<g clip-path="url(#clip0_129_759)">
<path d="M24 227V0H120.847C131.714 0 141.622 2.23803 150.572 6.7141C159.735 10.977 167.619 16.8385 174.224 24.2986C180.83 31.5455 185.944 39.7516 189.566 48.9169C193.189 58.0822 195 67.4606 195 77.0521C195 90.054 191.91 102.416 185.731 114.139C179.764 125.862 171.348 135.454 160.48 142.914C149.826 150.161 137.148 153.784 122.445 153.784H76.4187V227H24ZM76.4187 108.065H119.249C123.297 108.065 127.026 106.892 130.436 104.548C133.845 102.203 136.615 98.6864 138.746 93.9972C140.877 89.308 141.942 83.553 141.942 76.7324C141.942 69.6986 140.664 63.9437 138.107 59.4676C135.763 54.7784 132.673 51.3681 128.837 49.2366C125.215 47.1052 121.379 46.0394 117.331 46.0394H76.4187V108.065Z" fill="#454041"/>
<path d="M431.156 333.652C431.447 329.473 431.447 325.197 430.961 321.019C429.018 305.178 421.34 290.504 409.484 279.814C397.337 269.026 388.59 272.331 373.624 269.61C367.502 268.541 361.282 269.318 355.646 271.845C356.423 248.618 347.288 229.668 328.921 215.382C291.312 186.228 247.191 198.278 217.745 231.514C204.237 206.928 183.635 188.949 153.606 194.1C127.853 198.473 106.278 221.213 103.266 247.161C92.2841 243.079 79.7477 245.023 69.2521 250.076C58.7565 255.13 49.8158 263.196 41.5554 271.359C31.5457 281.271 21.8276 291.961 16.2882 304.886C12.4982 313.633 12.4982 322.671 12.401 332C12.401 333.555 15.4136 357.073 18.1347 354.741C-23.2646 389.337 16.7741 453.185 59.7283 462.709C78.7759 466.985 100.059 462.32 114.539 449.201C132.226 461.057 151.954 469.512 172.75 473.982C201.516 480.105 232.42 482.437 260.797 473.108C267.988 470.775 274.305 467.082 281.205 463.972C289.562 460.182 290.826 463.487 299.572 466.305C314.149 470.97 330.281 469.512 344.664 465.041C360.116 460.377 376.443 449.784 377.512 433.652C393.935 434.721 411.234 427.529 420.271 413.73C429.309 399.93 428.435 379.813 416.773 368.152C418.911 370.29 428.823 348.229 429.309 346.189C430.184 342.204 430.767 337.928 431.156 333.652Z" fill="white"/>
<path d="M219.203 480.105C203.557 479.91 187.911 478.161 172.653 474.76C151.953 470.289 132.226 461.932 114.636 450.173C100.447 462.806 79.4561 467.86 59.6311 463.487C33.878 457.753 8.4165 432 1.71098 404.789C-3.05091 385.353 2.19689 367.763 16.5797 355.129C13.6643 351.825 11.5263 332.875 11.5263 332V331.32C11.6235 322.088 11.7207 313.244 15.5107 304.595C21.1473 291.378 31.0598 280.591 40.9723 270.873C49.1355 262.807 58.2706 254.644 68.8634 249.493C80.3308 243.954 92.5756 242.788 102.585 246.286C105.987 220.436 127.755 197.89 153.411 193.517C179.456 189.046 201.71 201.874 217.745 230.446C232.614 213.925 251.176 202.943 269.932 199.542C290.729 195.752 311.234 201.097 329.115 214.994C347.483 229.279 356.618 248.133 356.132 270.97C361.671 268.735 367.696 268.055 373.527 269.124C377.317 269.707 381.107 270.096 384.995 270.29C393.838 270.97 400.932 271.456 409.776 279.328C421.826 290.115 429.504 304.886 431.544 320.921C432.03 325.197 432.128 329.473 431.836 333.749C431.544 338.025 430.864 342.301 429.99 346.577C429.601 348.132 421.924 365.916 418.133 368.832C428.921 380.494 430.184 400.221 420.855 414.313C412.108 427.627 395.49 435.498 378.095 434.527C377.026 445.216 367.696 458.822 344.761 465.819C333.197 469.317 315.899 472.427 299.281 467.082C297.337 466.402 295.393 465.722 293.547 464.847C289.368 463.001 287.23 462.126 281.496 464.75C279.358 465.722 277.22 466.791 275.18 467.763C270.612 470.095 265.85 472.136 261.088 473.885C247.483 478.161 233.392 480.202 219.203 480.105ZM114.539 448.618C114.636 448.618 114.83 448.618 114.927 448.715C132.517 460.571 152.245 468.929 172.945 473.302C207.736 480.688 236.404 480.396 260.602 472.524C265.364 470.872 270.029 468.832 274.596 466.499C276.637 465.527 278.775 464.458 280.913 463.487C287.23 460.571 289.854 461.737 294.13 463.584C295.976 464.458 297.823 465.139 299.766 465.819C316.093 471.067 333.1 468.054 344.47 464.556C367.21 457.656 376.151 444.147 376.831 433.749C376.831 433.36 377.22 433.069 377.609 433.166C394.616 434.332 411.234 426.655 419.786 413.535C428.921 399.541 427.463 379.911 416.384 368.832C416.093 368.54 416.093 368.152 416.384 367.86C416.579 367.666 416.967 367.569 417.259 367.763C419.494 366.985 428.143 348.91 428.726 346.189C429.601 342.01 430.281 337.831 430.573 333.555C432.128 313.341 424.159 293.613 408.998 280.202C400.446 272.622 393.644 272.136 384.995 271.456C381.107 271.262 377.22 270.776 373.43 270.096C367.502 269.027 361.379 269.804 355.84 272.331C355.646 272.428 355.354 272.428 355.16 272.234C354.966 272.136 354.868 271.845 354.868 271.65C355.646 248.813 346.705 229.96 328.435 215.771C310.845 202.166 290.729 196.821 270.32 200.611C251.564 204.012 233.003 215.091 218.231 231.806C218.037 232 217.842 232.098 217.648 232C217.454 232 217.259 231.806 217.162 231.612C197.24 195.363 171.681 191.476 153.8 194.488C128.436 198.764 107.056 221.408 104.043 246.966C104.043 247.161 103.946 247.355 103.751 247.452C103.557 247.549 103.363 247.549 103.168 247.549C93.3531 243.857 81.1082 244.926 69.6408 250.465C59.1452 255.518 50.2045 263.682 42.1385 271.65C32.3231 281.271 22.5078 291.961 16.9685 304.886C13.2756 313.341 13.1784 321.99 13.0812 331.125V331.806C13.0812 334.235 15.8995 352.7 17.7459 354.06C18.0375 353.866 18.4262 353.866 18.6206 354.157C18.9121 354.449 18.8149 354.838 18.5234 355.129C3.84897 367.374 -1.59319 384.867 3.1687 404.206C9.67986 430.931 34.6555 456.295 60.0198 461.932C79.5533 466.305 100.35 461.154 114.247 448.618C114.247 448.618 114.344 448.618 114.539 448.618Z" fill="#D1D3D4"/>
<path d="M153.314 400.124C139.417 400.124 139.32 398.083 136.793 390.6C132.129 377.092 123.382 366.693 114.15 356.003C80.1365 316.548 91.7983 254.837 149.621 244.342C188.883 237.248 221.633 258.044 228.435 296.237C231.74 315.187 227.561 333.166 216.968 349.103C209.777 359.988 203.751 370.969 201.71 383.992C200.35 392.349 201.03 397.403 186.259 397.403C180.914 397.403 175.569 398.277 170.224 398.666C164.49 399.152 158.951 400.124 153.314 400.124Z" fill="white"/>
<path d="M153.314 400.804C140 400.804 138.931 399.055 136.404 391.669L136.113 390.795C131.448 377.092 122.41 366.596 113.664 356.49C95.7826 335.79 89.8546 308.19 98.2122 284.672C105.89 262.904 124.16 248.327 149.524 243.759C169.543 240.163 188.591 243.759 203.168 253.866C216.968 263.487 225.909 278.064 229.018 296.14C232.323 314.702 228.241 333.166 217.454 349.493C211.234 358.919 204.529 370.387 202.294 384.089C202.196 384.769 202.099 385.45 202.002 386.13C200.933 393.321 200.253 398.083 186.161 398.083C182.566 398.18 178.873 398.375 175.277 398.861C173.625 399.055 171.876 399.249 170.224 399.347C168.28 399.541 166.434 399.735 164.49 399.93C160.797 400.513 157.007 400.804 153.314 400.804ZM164.49 243.759C159.534 243.759 154.577 244.245 149.718 245.12C124.84 249.59 107.056 263.778 99.4755 285.158C91.3123 308.288 97.1432 335.304 114.636 355.615C123.479 365.819 132.614 376.412 137.376 390.406L137.668 391.281C139.903 397.889 140.486 399.444 153.314 399.444C157.007 399.347 160.7 399.055 164.296 398.569C166.239 398.375 168.086 398.083 170.029 397.986C171.681 397.889 173.431 397.695 175.083 397.5C178.776 397.014 182.371 396.82 186.064 396.723C198.989 396.723 199.572 393.127 200.544 385.936C200.641 385.255 200.739 384.575 200.836 383.895C203.071 369.901 209.874 358.239 216.19 348.715C226.978 332.486 230.865 314.799 227.561 296.334C224.451 278.647 215.705 264.264 202.294 254.935C191.701 247.549 178.678 243.759 164.49 243.759Z" fill="#231F20"/>
<path d="M196.463 412.952L146.803 417.034C144.762 417.228 142.916 415.673 142.721 413.632L142.041 404.886C141.847 402.845 143.402 400.999 145.443 400.804L195.102 396.723C197.143 396.528 198.99 398.083 199.184 400.124L199.864 408.87C200.059 411.008 198.504 412.758 196.463 412.952Z" fill="white"/>
<path d="M146.414 417.811C144.082 417.811 142.235 416.062 142.041 413.73L141.264 404.983C141.069 402.554 142.916 400.416 145.345 400.221L195.005 396.14C197.434 395.945 199.572 397.792 199.767 400.221L200.544 408.968C200.739 411.397 198.892 413.535 196.463 413.73L146.803 417.811H146.414ZM195.394 397.403H195.102L145.442 401.485C143.79 401.582 142.527 403.137 142.624 404.789L143.304 413.535C143.402 415.187 144.956 416.451 146.609 416.353L196.268 412.272C197.92 412.175 199.184 410.62 199.087 408.968L198.406 400.221C198.309 398.666 196.949 397.403 195.394 397.403Z" fill="#231F20"/>
<path d="M197.726 429.181L148.066 433.263C146.025 433.457 144.179 431.902 143.985 429.862L143.304 421.115C143.11 419.074 144.665 417.228 146.706 417.034L196.365 412.952C198.406 412.758 200.253 414.313 200.447 416.353L201.127 425.1C201.322 427.238 199.864 428.987 197.726 429.181Z" fill="white"/>
<path d="M147.775 433.943C145.442 433.943 143.596 432.194 143.402 429.861L142.624 421.115C142.43 418.686 144.276 416.548 146.706 416.353L196.365 412.272C198.795 412.077 200.933 413.924 201.127 416.353L201.905 425.1C202.099 427.529 200.253 429.667 197.823 429.861L148.163 433.943H147.775ZM196.657 413.632H196.365L146.706 417.714C145.054 417.811 143.79 419.366 143.888 421.018L144.568 429.764C144.665 431.416 146.22 432.68 147.872 432.583L197.532 428.501C199.184 428.404 200.447 426.849 200.35 425.197L199.67 416.45C199.572 414.895 198.309 413.632 196.657 413.632Z" fill="#231F20"/>
<path d="M150.787 433.069C151.273 439.191 161.575 443.273 173.819 442.301C186.064 441.329 195.588 435.498 195.102 429.376L150.787 433.069Z" fill="#231F20"/>
<path d="M170.127 443.175C159.145 443.175 150.593 439.094 150.107 433.166C150.107 432.971 150.107 432.777 150.302 432.68C150.399 432.583 150.593 432.485 150.787 432.485L195.102 428.792C195.491 428.792 195.782 428.987 195.88 429.376C196.463 435.984 186.842 441.912 174.014 442.981C172.556 443.078 171.293 443.175 170.127 443.175ZM151.565 433.749C152.148 436.178 154.383 438.316 158.173 439.774C163.129 441.62 168.474 442.204 173.819 441.718C185.19 440.746 194.13 435.692 194.422 430.25L151.565 433.749Z" fill="#231F20"/>
<path d="M155.841 391.961C155.452 391.961 155.161 391.669 155.161 391.28C156.23 377.189 155.549 362.903 153.12 349.007C149.427 348.229 145.928 346.966 142.624 345.314C136.21 342.107 131.254 337.831 128.339 332.874C124.84 326.946 124.257 319.755 126.784 314.216C127.464 312.272 129.116 310.814 131.157 310.328C135.336 309.454 139.903 313.341 141.166 314.507C149.135 321.893 151.759 334.721 153.8 344.925L154.092 346.285L154.383 347.938C161.089 349.298 167.989 349.298 174.597 347.938C174.791 344.536 175.083 341.135 175.666 337.831C177.512 326.946 180.331 318.88 184.121 313.827C188.98 308.287 197.337 307.704 202.877 312.466C203.071 312.661 203.363 312.855 203.557 313.147C206.472 316.548 207.347 321.893 205.792 326.752C204.529 330.639 201.905 334.332 197.726 338.025C191.506 343.467 184.023 347.257 175.957 349.007C175.472 362.126 177.707 375.343 179.845 388.171L180.136 389.726C180.233 390.114 179.942 390.406 179.553 390.503C179.164 390.6 178.873 390.309 178.776 389.92L178.484 388.365C176.346 375.537 174.111 362.418 174.597 349.298C167.989 350.659 161.283 350.659 154.675 349.395C157.007 363.292 157.687 377.383 156.618 391.475C156.521 391.669 156.23 391.961 155.841 391.961ZM132.42 311.397C132.129 311.397 131.74 311.397 131.448 311.494C129.893 311.883 128.533 313.049 128.047 314.604C125.617 319.755 126.201 326.46 129.505 332C132.323 336.762 137.085 340.843 143.207 343.953C146.317 345.508 149.524 346.674 152.828 347.452C152.731 347.063 152.731 346.771 152.634 346.383L152.342 345.022C150.302 334.915 147.872 322.476 140.097 315.285C138.154 313.341 135.044 311.397 132.42 311.397ZM194.228 310.425H193.742C190.437 310.425 187.328 311.883 185.287 314.41C181.691 319.269 178.97 327.141 177.124 337.831C176.54 341.038 176.249 344.245 176.055 347.452C183.732 345.702 190.826 342.009 196.754 336.859C200.739 333.36 203.265 329.862 204.432 326.169C205.889 321.699 205.112 316.937 202.488 313.924C200.35 311.592 197.337 310.328 194.228 310.425Z" fill="#D1D3D4"/>
<path d="M212.789 395.168C213.372 393.03 213.858 390.892 214.441 388.754C214.733 387.685 215.122 386.519 215.413 385.45C215.802 383.992 217.065 383.02 218.523 383.117C220.272 383.117 221.924 383.409 223.674 383.506C224.548 383.603 225.52 383.7 226.395 383.603C227.075 383.603 227.755 383.312 228.241 382.826C230.087 380.785 231.74 378.744 233.392 376.606C233.975 375.829 234.072 374.76 233.78 373.885C233.197 371.844 232.517 369.901 231.934 367.86C231.642 367.082 231.545 366.305 231.545 365.43C231.545 364.847 231.74 364.264 232.225 363.778C235.238 361.446 238.445 359.697 242.041 358.336C243.11 357.947 244.373 358.239 245.053 359.114C246.511 360.766 247.969 362.418 249.427 364.167C250.398 365.528 251.953 366.208 253.605 365.916C255.841 365.527 258.076 365.333 260.311 365.042C261.186 364.944 261.866 364.459 262.255 363.681C262.935 362.418 263.615 361.154 264.295 359.891C264.878 358.822 265.462 357.753 266.142 356.684C266.725 355.615 267.988 355.032 269.154 355.323C272.361 356.198 275.568 356.976 278.678 357.947C279.942 358.336 280.719 359.502 280.622 360.863C280.622 362.612 280.33 364.361 280.233 366.111C280.136 366.888 280.136 367.763 280.136 368.54C280.039 369.609 280.525 370.678 281.399 371.358C283.149 372.816 284.898 374.177 286.647 375.634C287.619 376.606 289.077 376.801 290.34 376.412C292.478 375.732 294.713 375.051 296.851 374.371C298.309 373.691 300.058 374.371 300.738 375.829C302.196 378.355 303.654 380.979 305.014 383.603C305.986 385.547 305.792 386.616 304.237 388.171C303.168 389.143 302.002 390.017 300.933 390.989C300.155 391.669 299.378 392.35 298.6 393.127C297.92 393.71 297.629 394.585 297.726 395.557C297.92 397.889 298.212 400.221 298.503 402.554C298.698 403.817 299.475 404.886 300.641 405.469C302.002 406.149 303.362 406.732 304.626 407.413C305.5 407.801 306.278 408.287 307.055 408.773C308.221 409.454 308.804 410.814 308.319 412.077C307.541 414.993 306.666 417.811 305.889 420.727C305.695 421.212 305.5 421.601 305.306 421.99C304.82 422.962 303.848 423.545 302.779 423.448C300.738 423.253 298.698 423.059 296.657 422.962C296.462 422.962 296.365 422.962 296.171 422.962C294.422 422.67 292.575 423.448 291.701 424.905C290.632 426.363 289.465 427.626 288.396 428.987C287.327 430.25 287.036 431.902 287.619 433.457C288.299 435.401 288.882 437.345 289.465 439.288C290.048 441.232 289.757 442.301 287.91 443.37C285.287 444.925 282.565 446.382 279.942 447.743C278.678 448.52 277.026 448.229 276.151 447.063C274.985 445.799 273.819 444.439 272.75 443.078C270.321 440.163 269.738 439.968 266.045 440.454L261.671 441.037C260.214 441.135 259.048 442.009 258.367 443.273C257.59 444.828 256.91 446.382 256.035 447.84C255.646 448.618 255.063 449.395 254.48 450.075C253.994 450.756 253.022 451.144 252.245 450.853C249.232 449.978 246.22 449.104 243.11 448.229C242.721 448.035 242.332 447.937 241.944 447.646C240.972 447.257 240.389 446.188 240.486 445.119C240.68 443.078 240.875 441.037 240.972 439.094C240.972 438.511 240.972 437.83 240.972 437.247C240.972 436.276 240.583 435.304 239.708 434.624C237.959 433.263 236.307 431.902 234.558 430.542C233.586 429.667 232.225 429.473 231.059 429.959C229.116 430.542 227.172 431.222 225.228 431.805L225.034 431.902C222.507 432.583 221.633 432.291 220.369 430.056C218.912 427.529 217.551 424.905 216.288 422.281C215.51 420.727 215.705 419.755 217.065 418.491C218.426 417.228 220.078 415.867 221.633 414.701C223.188 413.632 223.965 411.689 223.674 409.842C223.382 407.801 223.188 405.663 222.896 403.623C222.799 402.748 222.313 401.971 221.536 401.485C219.689 400.513 217.843 399.541 215.996 398.569C214.733 398.083 213.664 397.111 212.984 395.945L212.789 395.168ZM280.427 401.485C279.553 390.503 270.029 382.243 259.048 383.117C258.95 383.117 258.95 383.117 258.853 383.117C249.621 383.798 239.903 392.641 240.875 404.594C241.749 415.479 251.273 423.642 262.157 422.865C274.888 421.99 281.691 410.328 280.427 401.485Z" fill="#777777"/>
<path d="M230.671 243.467C230.962 242.204 231.351 240.843 231.642 239.58C231.837 238.9 232.031 238.219 232.225 237.539C232.42 236.665 233.294 236.081 234.169 236.179C235.238 236.179 236.21 236.373 237.279 236.373C237.862 236.47 238.348 236.47 238.931 236.47C239.32 236.47 239.708 236.276 240 235.984C241.069 234.818 242.138 233.555 243.11 232.291C243.499 231.805 243.499 231.222 243.304 230.639C242.915 229.473 242.527 228.21 242.235 227.044C242.041 226.558 242.041 226.072 241.944 225.586C241.944 225.197 242.041 224.906 242.332 224.614C244.082 223.254 246.025 222.185 248.163 221.31C248.844 221.018 249.524 221.213 249.913 221.796C250.787 222.768 251.662 223.739 252.536 224.808C253.12 225.586 254.091 225.975 255.063 225.78C256.424 225.586 257.784 225.489 259.048 225.294C259.533 225.197 260.019 224.906 260.214 224.42C260.602 223.642 260.991 222.865 261.477 222.087C261.963 221.31 262.157 220.824 262.546 220.144C262.935 219.463 263.615 219.172 264.393 219.366C266.336 219.852 268.28 220.338 270.126 220.921C270.904 221.116 271.39 221.893 271.292 222.67C271.292 223.739 271.098 224.711 271.001 225.78C271.001 226.266 270.904 226.752 270.904 227.238C270.904 227.918 271.195 228.501 271.681 228.89C272.75 229.765 273.819 230.542 274.791 231.417C275.374 232 276.249 232.194 277.026 231.903C278.387 231.514 279.65 231.028 280.913 230.639C281.788 230.251 282.857 230.639 283.246 231.514C284.12 233.069 284.995 234.624 285.87 236.179C286.453 237.053 286.258 238.219 285.384 238.9C284.703 239.483 284.023 240.066 283.343 240.649C282.857 241.038 282.371 241.524 281.982 241.912C281.594 242.301 281.399 242.787 281.496 243.37C281.594 244.731 281.788 246.188 281.982 247.549C282.08 248.326 282.565 249.007 283.246 249.298L285.772 250.561C286.258 250.853 286.744 251.047 287.23 251.339C287.91 251.728 288.202 252.505 288.008 253.283C287.522 255.032 287.036 256.781 286.55 258.53C286.453 258.822 286.356 259.016 286.161 259.308C285.87 259.891 285.287 260.28 284.606 260.182L280.913 259.891C280.816 259.891 280.719 259.891 280.622 259.891C279.553 259.697 278.484 260.182 277.901 261.057C277.318 261.932 276.54 262.709 275.86 263.584C275.18 264.361 275.083 265.333 275.374 266.305C275.763 267.471 276.152 268.637 276.443 269.803C276.929 270.678 276.54 271.747 275.666 272.136C275.568 272.136 275.568 272.233 275.471 272.233C273.916 273.205 272.264 274.079 270.612 274.857C269.835 275.343 268.863 275.148 268.377 274.468C267.697 273.691 267.016 272.913 266.336 272.039C264.878 270.289 264.587 270.192 262.352 270.484L259.728 270.872C258.853 270.97 258.173 271.456 257.784 272.233C257.298 273.205 256.91 274.079 256.424 275.051C256.132 275.537 255.841 275.926 255.549 276.412C255.258 276.8 254.674 276.995 254.188 276.898C252.342 276.412 250.496 275.829 248.746 275.343C248.455 275.246 248.26 275.148 248.066 275.051C247.483 274.76 247.094 274.177 247.191 273.496C247.289 272.33 247.386 271.067 247.483 269.803C247.483 269.415 247.483 269.026 247.483 268.734C247.483 268.151 247.191 267.568 246.706 267.18C245.637 266.402 244.665 265.527 243.596 264.75C243.013 264.264 242.235 264.167 241.458 264.361C240.292 264.75 239.125 265.139 237.959 265.43H237.862C236.307 265.819 235.821 265.625 235.044 264.361C234.169 262.806 233.392 261.251 232.614 259.697C232.128 258.919 232.323 257.947 233.003 257.461C233.878 256.684 234.752 255.906 235.724 255.226C236.696 254.546 237.085 253.477 236.89 252.311C236.696 251.047 236.599 249.784 236.404 248.521C236.307 247.938 236.016 247.549 235.53 247.257L232.225 245.508C231.448 245.217 230.865 244.633 230.379 243.953L230.671 243.467ZM271.39 247.354C270.904 240.746 265.073 235.79 258.464 236.373H258.367C251.856 237.053 247.094 242.787 247.58 249.298C248.163 255.809 253.8 260.766 260.408 260.28C267.988 259.599 272.07 252.505 271.39 247.354Z" fill="#777777"/>
<path d="M85.2869 411.494L85.6756 386.713L109.777 392.641L112.595 408.287L115.899 425.78L100.447 418.589L85.2869 411.494Z" fill="white"/>
<path d="M115.899 426.46C115.802 426.46 115.705 426.46 115.608 426.363L84.9954 412.077C84.801 411.98 84.6067 411.689 84.6067 411.494L84.9954 386.713C84.9954 386.519 85.0926 386.324 85.287 386.227C85.4813 386.13 85.6757 386.033 85.87 386.13L109.874 392.058C110.165 392.155 110.36 392.35 110.36 392.544L116.482 425.78C116.482 426.072 116.385 426.266 116.191 426.46C116.191 426.363 115.996 426.46 115.899 426.46ZM86.0644 411.008L114.927 424.614L109.096 393.127L86.356 387.491L86.0644 411.008Z" fill="#231F20"/>
<path d="M36.2838 314.303L28.1304 320.598L90.3686 401.209L98.522 394.914L36.2838 314.303Z" fill="white"/>
<path d="M90.4378 401.873C90.1462 401.873 90.049 401.776 89.9518 401.582L27.7557 320.921C27.6585 320.824 27.5614 320.63 27.6585 320.435C27.6585 320.241 27.7557 320.144 27.9501 319.949L36.1133 313.633C36.4049 313.438 36.7936 313.438 37.0851 313.73L99.3784 394.39C99.5728 394.682 99.5728 395.071 99.2813 395.362L91.118 401.679C90.7293 401.873 90.5349 401.873 90.4378 401.873ZM29.1163 320.727L90.5349 400.318L97.6292 394.876L36.2105 315.285L29.1163 320.727Z" fill="#231F20"/>
<path d="M36.3075 314.313L47.4834 311.981L109.777 392.641L98.5036 394.876L36.3075 314.313Z" fill="#231F20"/>
<path d="M98.5038 395.557C98.3095 395.557 98.1151 395.459 97.9207 395.265L35.6274 314.604C35.5302 314.41 35.4331 314.216 35.5302 313.924C35.6274 313.73 35.8218 313.535 36.0162 313.535L47.192 311.203C47.4836 311.106 47.6779 311.203 47.8723 311.495L110.068 392.155C110.263 392.35 110.263 392.544 110.166 392.835C110.068 393.03 109.874 393.224 109.68 393.224L98.5038 395.557ZM37.4739 314.702L98.7953 394.099L108.513 392.058L47.192 312.661L37.4739 314.702Z" fill="#231F20"/>
<path d="M23.0908 330.834L28.1443 320.63L90.4376 401.193L85.2869 411.494L23.0908 330.834Z" fill="#231F20"/>
<path d="M85.2871 412.175C85.0928 412.175 84.8984 412.078 84.7041 411.883L22.5079 331.223C22.3136 331.028 22.3136 330.737 22.4108 330.542L27.4642 320.241C27.6586 319.95 28.0473 319.755 28.3388 319.95C28.436 319.95 28.5332 320.047 28.5332 320.144L90.8265 400.805C91.0208 400.999 91.0209 401.29 90.9237 401.485L85.8702 411.786C85.7731 411.98 85.5787 412.175 85.2871 412.175ZM23.8685 330.737L85.19 410.134L89.5631 401.193L28.2416 321.796L23.8685 330.737Z" fill="#231F20"/>
<path d="M100.447 418.589L101.419 413.827L108.805 408.19L112.595 408.287L115.899 425.78L100.447 418.589Z" fill="#777777"/>
<path d="M115.899 426.46C115.802 426.46 115.705 426.46 115.607 426.363L100.156 419.172C99.864 419.074 99.6697 418.686 99.7669 418.394L100.739 413.73C100.739 413.535 100.836 413.438 101.03 413.341L108.416 407.607C108.513 407.51 108.708 407.51 108.805 407.51L112.692 407.607C112.984 407.607 113.275 407.801 113.372 408.19L116.579 425.683C116.579 425.974 116.482 426.169 116.288 426.363C116.191 426.363 116.093 426.46 115.899 426.46ZM101.225 418.2L114.927 424.614L112.012 408.968L108.999 408.87L102.002 414.215L101.225 418.2Z" fill="#231F20"/>
<path d="M369.737 400.999L266.822 366.402L310.845 235.499L392.964 263.099L406.569 291.281L369.737 400.999Z" fill="#231F20"/>
<path d="M369.737 401.679C369.64 401.679 369.543 401.679 369.543 401.679L266.725 367.083C266.336 366.985 266.142 366.597 266.336 366.208L310.262 235.207C310.359 234.819 310.748 234.624 311.137 234.819L393.158 262.418C393.352 262.515 393.449 262.613 393.547 262.807L407.152 290.99C407.249 291.184 407.249 291.378 407.152 291.475L370.223 401.193C370.126 401.388 370.029 401.485 369.834 401.582L369.737 401.679ZM267.697 366.014L369.251 400.124L405.792 291.281L392.38 263.584L311.234 236.276L267.697 366.014Z" fill="#231F20"/>
<path d="M359.339 407.704L256.521 373.205L300.544 242.204L382.565 269.804L396.268 297.986L359.339 407.704Z" fill="white"/>
<path d="M359.339 408.385C359.241 408.385 359.241 408.385 359.144 408.385L256.326 373.788C255.938 373.691 255.743 373.302 255.938 372.913L299.864 242.01C299.961 241.621 300.349 241.427 300.738 241.621L382.759 269.221C382.954 269.318 383.051 269.415 383.148 269.609L396.753 297.792C396.851 297.986 396.851 298.181 396.753 298.278L359.825 407.996C359.727 408.19 359.63 408.287 359.436 408.385C359.533 408.385 359.436 408.385 359.339 408.385ZM257.395 372.719L358.95 406.83L395.587 297.986L382.176 270.29L301.03 242.982L257.395 372.719Z" fill="#231F20"/>
<path d="M382.565 269.804L374.791 290.795L396.268 297.987L382.565 269.804Z" fill="white"/>
<path d="M396.268 298.667C396.171 298.667 396.171 298.667 396.073 298.667L374.596 291.475C374.208 291.378 374.013 290.989 374.208 290.601L381.982 269.61C382.079 269.318 382.274 269.221 382.565 269.221C382.857 269.221 383.051 269.318 383.245 269.61L396.851 297.792C396.948 298.084 396.948 298.375 396.754 298.57C396.559 298.667 396.462 298.667 396.268 298.667ZM375.665 290.406L394.907 296.918L382.662 271.553L375.665 290.406Z" fill="#231F20"/>
<path d="M377.998 308.093C377.9 308.093 377.9 308.093 377.803 308.093L303.751 283.118C303.362 283.021 303.168 282.632 303.362 282.243C303.459 281.854 303.848 281.66 304.237 281.854L378.386 306.733C378.775 306.83 378.969 307.219 378.775 307.608C378.581 307.899 378.386 308.093 377.998 308.093Z" fill="#D1D3D4"/>
<path d="M373.333 321.99C373.236 321.99 373.236 321.99 373.138 321.99L299.086 297.112C298.697 297.015 298.503 296.626 298.697 296.237C298.795 295.849 299.183 295.654 299.572 295.849L373.624 320.727C374.013 320.824 374.207 321.213 374.11 321.602C373.916 321.893 373.624 322.088 373.333 321.99Z" fill="#D1D3D4"/>
<path d="M368.668 335.887C368.571 335.887 368.474 335.887 368.474 335.887L294.422 311.009C294.033 310.912 293.838 310.523 294.033 310.134C294.13 309.745 294.519 309.551 294.907 309.745L368.96 334.624C369.348 334.721 369.543 335.11 369.446 335.499C369.251 335.79 368.96 335.984 368.668 335.887Z" fill="#D1D3D4"/>
<path d="M364.003 349.881C363.906 349.881 363.906 349.881 363.809 349.881L289.757 325.003C289.368 324.906 289.174 324.517 289.368 324.128C289.465 323.74 289.854 323.545 290.243 323.74L364.295 348.618C364.684 348.715 364.878 349.104 364.684 349.493C364.489 349.687 364.295 349.881 364.003 349.881Z" fill="#D1D3D4"/>
<path d="M359.339 363.778C359.242 363.778 359.242 363.778 359.144 363.778L284.995 338.803C284.606 338.705 284.412 338.317 284.509 338.025C284.606 337.636 284.995 337.442 285.287 337.539H285.384L359.436 362.418C359.825 362.515 360.019 362.904 359.825 363.292C359.825 363.584 359.533 363.778 359.339 363.778Z" fill="#D1D3D4"/>
<path d="M332.808 370.387C332.711 370.387 332.711 370.387 332.614 370.387L280.33 352.797C279.942 352.7 279.747 352.311 279.941 351.922C280.039 351.533 280.427 351.339 280.816 351.533L333.1 369.123C333.488 369.22 333.683 369.609 333.488 369.998C333.391 370.192 333.1 370.387 332.808 370.387Z" fill="#D1D3D4"/>
<path d="M59.0481 224.031C37.2794 228.696 22.2163 245.023 25.5205 260.475C27.4641 269.512 35.1414 276.218 45.4427 279.425C48.9412 285.353 55.8411 292.35 70.0296 297.598C65.7536 293.03 62.6438 287.491 60.8945 281.466C64.2959 281.369 67.6 280.98 70.9042 280.3C92.6728 275.635 107.736 259.406 104.432 243.856C101.128 228.307 80.8167 219.464 59.0481 224.031Z" fill="white"/>
<path d="M70.0296 298.181C69.9324 298.181 69.8352 298.181 69.8352 298.181C57.9791 293.808 49.6215 287.686 45.054 279.911C34.0725 276.51 26.7839 269.415 24.8402 260.572C21.5361 244.731 36.7935 228.016 58.9509 223.351C81.1083 218.687 101.808 227.725 105.209 243.565C108.611 259.406 93.256 276.121 71.1958 280.786C68.1831 281.466 65.0733 281.855 61.9635 281.952C63.7128 287.588 66.7254 292.739 70.7099 297.015C70.9042 297.209 71.0014 297.598 70.807 297.89C70.5155 298.084 70.3211 298.278 70.0296 298.181ZM59.1453 224.712C37.7654 229.279 22.8966 245.217 26.1036 260.28C27.8528 268.735 35.0443 275.441 45.637 278.648C45.8314 278.648 45.9286 278.842 46.0258 278.939C50.1074 285.936 57.396 291.573 67.6001 295.849C64.1987 291.573 61.672 286.714 60.2143 281.466C60.1171 281.272 60.2143 281.077 60.3115 280.883C60.4086 280.688 60.603 280.591 60.7974 280.591C64.1015 280.494 67.4057 280.105 70.7099 279.425C92.0898 274.858 106.959 258.92 103.752 243.857C100.545 228.794 80.6224 220.242 59.1453 224.712Z" fill="#231F20"/>
<path d="M50.8848 262.904C50.5932 262.904 50.3017 262.904 50.0101 262.807C47.3862 262.418 45.1511 260.766 43.8877 258.433C42.7215 259.988 41.0695 260.96 39.223 261.252C38.8343 261.252 38.5427 261.057 38.4456 260.669C38.4456 260.28 38.6399 259.988 39.0286 259.891C40.7779 259.6 42.3328 258.628 43.2074 257.073C42.2356 254.838 42.43 252.214 43.499 250.076C43.6934 249.784 44.0821 249.687 44.4708 249.784C44.568 249.881 44.6652 249.881 44.7624 250.076C46.0257 252.214 46.0257 254.838 44.8595 257.073L44.7624 257.17L44.8595 257.462C46.3173 260.863 50.2045 262.418 53.6059 261.057C54.6749 260.571 55.6467 259.891 56.3269 258.919C57.0072 258.142 57.4931 257.364 57.7847 256.49C57.0072 255.032 57.1044 253.186 58.1734 251.825C58.3677 251.631 58.5621 251.533 58.8537 251.631C59.1452 251.728 59.3396 251.922 59.3396 252.117C59.7283 253.477 59.6311 254.935 59.2424 256.393C59.8255 257.364 60.8945 258.045 62.0606 258.045C63.2268 257.947 64.2958 257.17 64.8789 256.101C65.2676 255.518 65.462 254.838 65.462 254.157C65.1704 253.477 65.0733 252.7 65.0733 251.922C65.0733 251.533 65.3648 251.242 65.7535 251.242C66.0451 251.242 66.2394 251.339 66.3366 251.631C66.7254 252.311 66.8225 253.088 66.8225 253.963C67.2113 254.74 67.6972 255.421 68.2803 256.004C70.4182 258.142 73.8196 258.142 75.9576 256.101C76.152 255.907 76.3463 255.712 76.4435 255.518C76.8322 255.129 77.1238 254.643 77.3181 254.157C76.9294 253.769 76.6379 253.38 76.4435 252.894C75.8604 251.825 75.9576 250.562 76.735 249.59C77.2209 249.104 77.9012 249.104 78.3871 249.493C78.873 249.881 79.1646 250.464 79.1646 251.048C79.2618 252.019 79.1646 252.894 78.873 253.769C79.942 254.838 81.5941 255.032 82.9547 254.352C86.356 252.894 88.8827 247.646 88.0081 244.245C87.9109 243.856 88.1053 243.565 88.494 243.37C88.8827 243.273 89.2714 243.467 89.3686 243.856C90.5348 247.938 87.6194 253.866 83.6349 255.615C81.9828 256.393 79.942 256.198 78.4843 255.032C78.1928 255.421 77.9984 255.907 77.6097 256.295C75.2773 259.211 71.0013 259.794 68.0859 257.462C67.8915 257.267 67.6972 257.17 67.5028 256.976C67.1141 256.684 66.8225 256.295 66.531 255.907C66.4338 256.198 66.2394 256.49 66.1423 256.781C65.3648 258.239 63.9071 259.211 62.1578 259.405C60.7973 259.405 59.5339 258.919 58.7565 257.85C58.3677 258.531 57.979 259.211 57.3959 259.891C55.7439 261.64 53.4115 262.807 50.8848 262.904ZM44.0821 252.214C43.8877 253.186 43.7905 254.157 43.9849 255.129C44.2764 254.255 44.2764 253.186 44.0821 252.214ZM77.7069 250.464C77.6097 250.562 77.5125 250.756 77.5125 250.853C77.4153 251.242 77.4153 251.631 77.6097 252.019C77.7069 252.117 77.804 252.311 77.9012 252.408C77.9984 251.922 77.9984 251.533 77.9012 251.048C77.9012 250.659 77.7069 250.464 77.7069 250.464Z" fill="#D1D3D4"/>
<path d="M249.426 311.009C247.58 311.009 246.025 309.454 246.025 307.607C246.025 305.761 247.58 304.206 249.426 304.206C251.273 304.206 252.828 305.761 252.828 307.607C252.828 309.454 251.37 311.009 249.426 311.009ZM249.426 305.566C248.26 305.566 247.386 306.441 247.386 307.607C247.386 308.773 248.26 309.648 249.426 309.648C250.593 309.648 251.467 308.773 251.467 307.607C251.467 306.441 250.593 305.566 249.426 305.566Z" fill="#D1D3D4"/>
<path d="M56.7158 419.755C54.8694 419.755 53.3145 418.2 53.3145 416.353C53.3145 414.507 54.8694 412.952 56.7158 412.952C58.5623 412.952 60.1172 414.507 60.1172 416.353C60.1172 418.2 58.6594 419.755 56.7158 419.755ZM56.7158 414.313C55.5496 414.313 54.675 415.187 54.675 416.353C54.675 417.52 55.5496 418.394 56.7158 418.394C57.882 418.394 58.7566 417.52 58.7566 416.353C58.7566 415.187 57.882 414.313 56.7158 414.313Z" fill="#D1D3D4"/>
<path d="M79.2619 312.661C78.8732 312.661 78.5817 312.369 78.5817 311.98V304.886C78.5817 304.497 78.8732 304.206 79.2619 304.206C79.6507 304.206 79.9422 304.497 79.9422 304.886V311.98C79.9422 312.369 79.6507 312.661 79.2619 312.661Z" fill="#D1D3D4"/>
<path d="M82.8575 309.162H75.7633C75.3745 309.162 75.083 308.871 75.083 308.482C75.083 308.093 75.3745 307.802 75.7633 307.802H82.8575C83.2462 307.802 83.5378 308.093 83.5378 308.482C83.5378 308.774 83.2462 309.065 82.8575 309.162Z" fill="#D1D3D4"/>
<path d="M325.811 443.759C325.422 443.759 325.131 443.467 325.131 443.078V435.984C325.131 435.595 325.422 435.304 325.811 435.304C326.2 435.304 326.491 435.595 326.491 435.984V443.078C326.491 443.467 326.2 443.759 325.811 443.759Z" fill="#D1D3D4"/>
<path d="M329.407 440.163H322.313C321.924 440.163 321.632 439.871 321.632 439.482C321.632 439.094 321.924 438.802 322.313 438.802H329.407C329.796 438.802 330.087 439.094 330.087 439.482C330.087 439.871 329.796 440.163 329.407 440.163Z" fill="#D1D3D4"/>
<path d="M195.102 230.64C194.713 230.64 194.422 230.348 194.422 229.959V222.865C194.422 222.476 194.713 222.185 195.102 222.185C195.491 222.185 195.782 222.476 195.782 222.865V229.959C195.782 230.348 195.491 230.64 195.102 230.64Z" fill="#D1D3D4"/>
<path d="M198.601 227.044H191.506C191.118 227.044 190.826 226.752 190.826 226.364C190.826 225.975 191.118 225.683 191.506 225.683H198.601C198.989 225.683 199.281 225.975 199.281 226.364C199.281 226.752 198.989 227.044 198.601 227.044Z" fill="#D1D3D4"/>
<path d="M235.918 346.383C237.582 346.383 238.931 345.034 238.931 343.37C238.931 341.706 237.582 340.358 235.918 340.358C234.254 340.358 232.906 341.706 232.906 343.37C232.906 345.034 234.254 346.383 235.918 346.383Z" fill="#D1D3D4"/>
<path d="M104.918 363.875C106.582 363.875 107.93 362.527 107.93 360.863C107.93 359.199 106.582 357.85 104.918 357.85C103.254 357.85 101.905 359.199 101.905 360.863C101.905 362.527 103.254 363.875 104.918 363.875Z" fill="#D1D3D4"/>
</g>
<defs>
<clipPath id="clip0_129_759">
<rect width="432" height="480" fill="white"/>
</clipPath>
</defs>
</svg>
