<svg width="400" height="344" viewBox="0 0 400 344" fill="none" xmlns="http://www.w3.org/2000/svg">
<path d="M358.978 30.9251C358.978 30.9251 355.777 24.9234 350.475 16.6211C350.475 16.6211 333.971 29.0246 334.071 28.3244C334.171 27.6242 358.878 30.9251 358.978 30.9251Z" fill="#231F20"/>
<path d="M358.977 31.6252C350.175 30.5249 335.971 28.7244 334.371 28.9245C333.971 29.1245 333.87 29.0245 333.67 28.9245C333.47 28.7244 333.27 28.4243 333.37 28.1242C333.37 27.9242 333.47 27.7241 333.87 27.6241C334.871 27.224 344.273 20.3221 349.975 16.0209C350.175 15.9208 350.375 15.8208 350.475 15.9208C350.675 15.9208 350.875 16.1209 350.975 16.2209C356.177 24.4232 359.478 30.5249 359.478 30.5249C359.578 30.725 359.578 31.0251 359.478 31.2251C359.478 31.5252 359.178 31.6252 358.977 31.6252ZM336.571 27.6241C339.572 27.8242 345.674 28.4243 357.677 30.0248C356.477 27.9242 353.876 23.3229 350.275 17.6213C342.773 23.2229 338.772 26.1237 336.571 27.6241Z" fill="#231F20"/>
<path d="M139.617 280.595L131.314 266.891L142.818 256.488L139.617 280.595Z" fill="#231F20"/>
<path d="M139.616 281.295C139.416 281.295 139.116 281.195 139.016 280.995L130.714 267.191C130.513 266.891 130.614 266.491 130.814 266.291L142.217 255.988C142.517 255.688 142.917 255.788 143.217 255.988C143.317 256.188 143.417 256.388 143.417 256.588L140.216 280.695C140.216 280.995 139.916 281.195 139.616 281.295ZM132.214 266.991L139.116 278.594L141.817 258.388L132.214 266.991Z" fill="#231F20"/>
<path d="M145.017 283.496L278.054 302.501C283.656 303.201 289.057 299.8 290.658 294.299L359.477 36.7266C360.878 31.4252 357.477 26.7238 351.875 26.2237L216.237 15.3207C210.736 15.0206 205.734 18.6216 204.134 23.9231L138.115 272.893C136.815 277.294 139.316 281.895 143.717 283.196C144.017 283.396 144.517 283.496 145.017 283.496Z" fill="#231F20"/>
<path d="M279.455 303.301C278.955 303.301 278.354 303.301 277.854 303.201L144.817 284.196C142.216 283.896 139.916 282.395 138.415 280.295C136.915 278.094 136.515 275.293 137.315 272.693L203.333 23.7231C205.034 18.1216 210.335 14.3205 216.137 14.6206L351.775 25.5236C354.576 25.6237 357.176 27.024 358.877 29.3247C360.377 31.5253 360.877 34.3261 360.077 36.9268L291.258 294.499C289.658 299.7 284.956 303.301 279.455 303.301ZM145.117 282.896L278.154 301.901C283.456 302.601 288.457 299.3 289.958 294.299L358.777 36.7268C359.377 34.5262 359.077 32.2255 357.777 30.325C356.376 28.4244 354.176 27.2241 351.775 27.1241L216.037 16.221C210.836 15.921 206.134 19.2219 204.734 24.2233L138.715 273.193C138.115 275.393 138.415 277.694 139.616 279.695C140.816 281.295 142.817 282.495 145.117 282.896Z" fill="#231F20"/>
<path d="M136.316 269.291L269.353 288.297C274.954 288.997 280.356 285.596 281.956 280.095L350.776 22.5225C352.176 17.2211 348.775 12.5197 343.173 12.0196L207.536 1.11656C202.034 0.816477 197.033 4.41749 195.432 9.71897L129.414 258.689C128.113 263.09 130.614 267.691 134.915 268.991C135.415 269.191 135.816 269.291 136.316 269.291Z" fill="white"/>
<path d="M270.853 289.097C270.353 289.097 269.753 289.097 269.253 288.997L136.216 269.992C133.615 269.692 131.314 268.191 129.814 266.091C128.313 263.89 127.913 261.089 128.713 258.489L194.732 9.51903C196.432 3.91746 201.734 0.116401 207.535 0.416485L343.173 11.4196C345.974 11.5196 348.575 12.92 350.275 15.2206C351.776 17.4212 352.276 20.222 351.476 22.8227L282.656 280.295C281.056 285.496 276.355 289.097 270.853 289.097ZM206.635 1.81688C201.734 1.91691 197.433 5.21783 196.032 9.91914L130.014 258.889C129.414 261.089 129.714 263.39 130.914 265.29C132.114 267.091 134.115 268.291 136.316 268.591L269.353 287.597C274.654 288.297 279.656 284.996 281.156 279.995L350.075 22.4226C350.675 20.222 350.375 17.9214 349.075 16.0208C347.675 14.1203 345.474 12.92 343.073 12.82L207.435 1.9169C207.135 1.81688 206.935 1.81688 206.635 1.81688Z" fill="#231F20"/>
<path d="M337.572 39.5278L198.733 27.5244L145.418 228.381L282.256 246.586L337.572 39.5278Z" fill="#D1D3D4"/>
<path d="M191.33 267.791L217.337 271.392C220.738 271.792 223.939 269.692 224.939 266.391L227.54 256.688C228.34 253.887 226.74 250.986 224.039 250.186C223.739 250.086 223.439 249.986 223.139 249.986L197.132 246.485C193.731 246.085 190.63 248.186 189.63 251.487L187.029 261.089C186.229 263.79 187.729 266.691 190.53 267.491C190.73 267.791 191.03 267.791 191.33 267.791Z" fill="white"/>
<path d="M218.138 272.292C217.838 272.292 217.438 272.292 217.138 272.192L191.23 268.491C188.03 268.091 185.629 265.29 186.029 261.989C186.029 261.689 186.129 261.289 186.229 260.989L188.83 251.386C189.83 247.785 193.331 245.485 197.032 245.885L223.039 249.386C224.74 249.586 226.34 250.586 227.341 251.987C228.241 253.487 228.541 255.187 228.141 256.888L225.54 266.591C224.54 269.892 221.539 272.192 218.138 272.292ZM191.43 267.091L217.338 270.692C220.439 271.092 223.239 269.191 224.14 266.191L226.74 256.488C227.14 255.187 226.94 253.787 226.14 252.687C225.34 251.586 224.14 250.786 222.839 250.686L196.832 247.185C193.831 246.885 190.93 248.686 190.13 251.687L187.529 261.289C186.829 263.69 188.13 266.191 190.53 266.891C190.83 267.091 191.13 267.091 191.43 267.091Z" fill="#D1D3D4"/>
<path d="M296.56 22.2227L256.849 18.9217C256.449 18.9217 256.149 18.5216 256.249 18.1215C256.249 17.7214 256.649 17.4213 256.949 17.5213L296.66 20.8223C297.06 20.8223 297.36 21.1224 297.36 21.5225C297.26 21.9226 296.96 22.2227 296.56 22.2227Z" fill="#D1D3D4"/>
<path d="M251.347 18.5215L246.045 18.1214C245.645 18.1214 245.345 17.7213 245.445 17.3212C245.445 16.9211 245.845 16.621 246.145 16.721L251.347 17.1212C251.747 17.1212 252.047 17.4212 252.047 17.8214C252.047 18.2215 251.747 18.5215 251.347 18.5215Z" fill="#D1D3D4"/>
<path d="M287.958 136.354C287.757 136.354 287.557 136.254 287.357 136.054L224.54 44.3287C224.34 44.0286 224.34 43.6285 224.64 43.3284C224.94 43.1283 225.34 43.1283 225.64 43.4284L288.458 135.154C288.658 135.454 288.658 135.854 288.358 136.154C288.258 136.354 288.058 136.354 287.958 136.354Z" fill="white"/>
<path d="M236.944 213.976C236.744 213.976 236.544 213.876 236.344 213.676L198.433 159.361C198.133 159.061 198.233 158.66 198.533 158.36C198.833 158.06 199.233 158.16 199.533 158.46L199.633 158.56L237.544 212.876C237.744 213.176 237.744 213.576 237.444 213.876C237.144 213.976 237.044 213.976 236.944 213.976Z" fill="white"/>
<path d="M247.246 162.562C247.046 162.562 246.746 162.462 246.646 162.262L231.842 140.255C231.642 139.955 231.642 139.555 231.942 139.255C232.242 139.055 232.642 139.055 232.942 139.355C232.942 139.355 232.942 139.355 232.942 139.455L247.746 161.461C247.946 161.761 247.946 162.162 247.646 162.462C247.646 162.462 247.646 162.462 247.546 162.462C247.546 162.462 247.446 162.562 247.246 162.562Z" fill="white"/>
<path d="M243.846 205.871C245.046 202.371 246.246 198.87 247.447 195.469C248.047 193.668 248.847 191.868 249.547 190.167C250.347 187.866 252.648 186.466 255.049 186.766C257.849 187.066 260.65 187.666 263.451 188.167C264.951 188.467 266.452 188.667 267.952 188.767C269.053 188.767 270.153 188.467 271.053 187.766C274.254 184.666 277.355 181.465 280.456 178.264C281.556 177.063 281.856 175.363 281.456 173.763C280.756 170.362 279.956 166.961 279.255 163.56C278.955 162.259 278.855 160.859 278.855 159.559C278.955 158.558 279.456 157.658 280.156 156.958C285.357 153.557 291.059 150.956 296.96 149.256C298.761 148.656 300.761 149.356 301.762 150.956C303.862 153.857 306.163 156.758 308.264 159.759C309.664 162.059 312.265 163.36 314.865 163.16C318.566 162.859 322.368 162.859 326.069 162.659C327.469 162.559 328.669 161.859 329.469 160.659C330.77 158.658 332.07 156.658 333.371 154.657C334.471 152.957 335.571 151.256 336.772 149.556C337.872 147.755 339.972 147.055 341.873 147.755C347.074 149.556 352.176 151.356 357.277 153.357C359.278 154.157 360.478 156.258 360.078 158.358C359.778 161.259 359.178 164.06 358.678 166.861C358.478 168.161 358.278 169.561 358.178 170.862C357.977 172.662 358.578 174.363 359.878 175.563C362.579 178.164 365.38 180.664 367.98 183.365C369.481 184.966 371.781 185.666 373.982 185.066C377.683 184.265 381.384 183.365 384.985 182.565C387.886 181.965 389.886 182.865 391.187 185.466C393.287 189.867 395.288 194.268 397.288 198.77C398.689 201.97 398.189 203.871 395.388 206.172C393.487 207.672 391.487 208.972 389.486 210.373C388.086 211.373 386.685 212.473 385.385 213.574C384.285 214.474 383.685 215.874 383.685 217.375C383.785 221.276 383.785 225.077 383.985 228.978C384.085 231.079 385.185 233.079 387.086 234.079C389.186 235.38 391.287 236.58 393.387 237.88C394.688 238.681 395.988 239.481 397.188 240.381C398.989 241.581 399.689 243.882 398.889 245.883C397.188 250.584 395.488 255.185 393.687 259.787C393.387 260.487 392.987 261.187 392.587 261.787C391.687 263.288 389.986 264.088 388.286 263.788L378.283 262.087C378.083 262.087 377.783 261.987 377.483 261.987C374.582 261.187 371.581 262.287 369.781 264.688C367.88 266.889 365.78 268.889 363.679 271.09C361.779 272.99 361.078 275.791 361.779 278.392C362.579 281.593 363.379 284.894 364.079 288.194C364.779 291.695 364.079 293.196 360.978 294.696C356.477 296.897 351.876 298.897 347.174 300.898C344.674 301.998 342.773 301.498 341.073 299.298C339.372 297.097 337.672 294.696 335.971 292.296C332.37 287.294 331.47 286.794 325.268 287.094C322.868 287.194 320.467 287.394 318.066 287.494C315.766 287.494 313.565 288.795 312.365 290.795C310.864 293.196 309.464 295.697 307.963 298.097C307.163 299.298 306.163 300.498 305.163 301.598C304.262 302.699 302.662 303.099 301.362 302.599C296.46 300.798 291.559 298.997 286.758 297.097C286.057 296.797 285.457 296.397 284.857 295.997C283.357 295.096 282.456 293.396 282.756 291.695C283.257 288.395 283.857 285.094 284.357 281.793C284.557 280.792 284.557 279.792 284.657 278.792C284.857 277.091 284.257 275.491 282.956 274.291C280.256 271.89 277.655 269.389 275.054 266.889C273.554 265.388 271.353 264.888 269.253 265.488C266.052 266.288 262.751 266.989 259.45 267.789L259.05 267.889C254.749 268.689 253.448 268.089 251.548 264.188C249.447 259.787 247.647 255.385 245.746 250.884C244.646 248.183 245.146 246.583 247.547 244.782C250.147 242.782 252.748 240.881 255.549 239.081C258.25 237.48 259.85 234.479 259.45 231.379C259.25 227.878 259.15 224.377 258.95 220.976C258.95 219.475 258.15 218.175 256.949 217.375C254.048 215.474 251.148 213.674 248.247 211.873C246.346 210.673 244.446 209.372 243.646 207.072L243.846 205.871ZM354.476 225.277C354.476 207.072 339.672 192.268 321.467 192.268C321.367 192.268 321.267 192.268 321.267 192.268C306.063 192.168 288.758 205.471 288.758 225.277C288.858 243.382 303.462 257.986 321.467 258.186C342.573 258.186 355.277 239.781 354.476 225.277Z" fill="#7A7A7A"/>
<path d="M302.663 303.598C302.162 303.598 301.662 303.498 301.162 303.298L297.161 301.798C293.66 300.498 290.059 299.097 286.558 297.797C285.958 297.497 285.358 297.197 284.758 296.797L284.557 296.597C282.757 295.596 281.857 293.596 282.157 291.595C282.357 290.095 282.657 288.694 282.857 287.194C283.157 285.393 283.457 283.493 283.757 281.692C283.957 280.692 283.957 279.692 284.057 278.692C284.257 277.191 283.657 275.791 282.557 274.79C280.156 272.69 277.856 270.489 275.555 268.289L274.655 267.388C273.354 266.088 271.354 265.588 269.553 266.188C267.253 266.788 264.952 267.288 262.651 267.788L259.751 268.489L259.35 268.589C254.649 269.489 253.049 268.589 251.048 264.488C249.248 260.686 247.447 256.585 245.247 251.184C244.046 248.183 244.546 246.282 247.247 244.282C250.248 241.981 252.849 240.181 255.249 238.58C257.75 237.18 259.15 234.379 258.85 231.478C258.75 229.278 258.65 227.177 258.55 224.977C258.45 223.676 258.45 222.376 258.35 221.075C258.35 219.775 257.75 218.675 256.65 217.975L253.049 215.674C251.348 214.574 249.648 213.573 247.947 212.473C245.947 211.173 243.946 209.872 243.046 207.372C243.046 207.272 243.046 207.272 243.046 207.172V205.871C243.046 205.771 243.046 205.671 243.046 205.671L244.046 202.67C244.846 200.17 245.747 197.669 246.547 195.268C247.247 193.368 247.947 191.567 248.647 189.867C249.548 187.266 252.148 185.666 254.849 186.066C256.75 186.266 258.65 186.566 260.451 186.966C261.451 187.166 262.351 187.266 263.352 187.466L264.452 187.666C265.552 187.866 266.653 188.066 267.753 188.066C268.753 188.066 269.653 187.766 270.454 187.266C273.854 183.965 277.055 180.664 279.756 177.763C280.656 176.663 280.956 175.263 280.556 173.962C280.256 172.462 279.856 170.961 279.556 169.461C279.156 167.56 278.656 165.66 278.356 163.759C278.056 162.359 277.856 160.959 277.956 159.558C278.056 158.358 278.656 157.258 279.556 156.457C284.758 153.056 290.559 150.456 296.561 148.655C298.661 147.955 300.962 148.855 302.062 150.656C302.863 151.656 303.563 152.756 304.363 153.757C305.763 155.657 307.164 157.558 308.564 159.458C309.765 161.559 312.165 162.759 314.566 162.459C316.967 162.259 319.467 162.159 321.868 162.059L325.769 161.859C326.969 161.759 327.97 161.159 328.57 160.158C329.37 158.958 330.07 157.858 330.87 156.657C331.371 155.857 331.871 155.057 332.471 154.257L333.071 153.357C333.971 151.956 334.972 150.556 335.972 149.155C337.272 147.155 339.673 146.355 341.874 147.155C348.075 149.255 352.877 151.056 357.278 152.756C359.578 153.657 360.879 156.057 360.479 158.458C360.279 160.358 359.979 162.259 359.578 164.16C359.378 165.16 359.178 166.06 359.078 167.06C358.878 168.361 358.678 169.661 358.578 171.061C358.378 172.562 358.978 174.162 360.079 175.263L361.979 177.063C364.08 178.964 366.18 180.964 368.181 183.065C369.581 184.565 371.682 185.165 373.582 184.565C375.383 184.165 377.183 183.765 378.984 183.365C380.884 182.965 382.785 182.465 384.685 182.065C387.986 181.364 390.187 182.465 391.687 185.365C393.788 189.767 395.789 194.268 397.789 198.669C399.29 202.17 398.789 204.471 395.689 206.871C394.588 207.772 393.388 208.572 392.188 209.372C391.387 209.972 390.587 210.472 389.787 211.073C388.286 212.173 386.986 213.173 385.786 214.274C384.786 215.074 384.285 216.274 384.285 217.574V219.975C384.385 222.976 384.385 226.077 384.585 229.178C384.585 231.078 385.686 232.779 387.386 233.779C388.286 234.279 389.187 234.879 390.087 235.379C391.287 236.08 392.588 236.78 393.788 237.58C395.088 238.38 396.389 239.281 397.689 240.181C399.69 241.581 400.59 244.182 399.59 246.483C397.989 250.884 396.289 255.385 394.388 260.386C394.088 261.087 393.688 261.687 393.288 262.387L393.188 262.587C392.188 264.288 390.187 265.288 388.186 264.888L381.385 263.787L377.884 263.187C377.684 263.187 377.483 263.087 377.383 263.087C374.783 262.387 371.982 263.387 370.381 265.588C369.081 267.188 367.581 268.689 366.18 270.089C365.58 270.689 364.98 271.289 364.38 271.99C362.579 273.69 361.979 276.291 362.679 278.592C363.48 281.692 364.28 285.093 364.98 288.394C365.78 292.195 364.88 293.996 361.479 295.696C357.378 297.697 352.777 299.697 347.675 301.898C344.874 303.098 342.674 302.498 340.773 300.098C339.273 298.197 337.872 296.296 336.572 294.396L335.672 293.096C332.171 288.194 331.571 287.894 325.569 288.194L321.468 288.394L318.367 288.594C316.266 288.594 314.266 289.795 313.266 291.595L311.765 293.996C310.765 295.596 309.865 297.297 308.764 298.897C307.964 300.198 306.964 301.398 305.863 302.498C304.963 303.098 303.863 303.598 302.663 303.598ZM271.254 264.688C272.954 264.688 274.555 265.388 275.755 266.488L276.655 267.388C278.956 269.589 281.257 271.79 283.657 273.89C285.058 275.191 285.758 276.991 285.558 278.892C285.558 279.892 285.358 280.992 285.258 281.992C284.958 283.793 284.658 285.693 284.357 287.494L283.657 291.895C283.357 293.396 284.057 294.796 285.458 295.496L285.758 295.696C286.258 295.996 286.758 296.296 287.258 296.497C290.759 297.797 294.36 299.097 297.861 300.498L301.862 301.998C302.963 302.398 304.163 302.098 304.963 301.198C305.963 300.198 306.864 299.097 307.664 297.797C308.664 296.196 309.665 294.596 310.565 292.996C311.065 292.195 311.565 291.395 312.065 290.495C313.366 288.294 315.766 286.894 318.267 286.894L321.368 286.694L325.469 286.494C331.871 286.194 333.071 286.694 336.772 291.995L337.672 293.296C338.973 295.196 340.373 297.197 341.874 298.997C343.374 300.798 344.974 301.298 347.175 300.398C352.276 298.197 356.778 296.196 360.979 294.196C363.78 292.795 364.38 291.695 363.78 288.494C363.179 285.293 362.279 281.892 361.479 278.692C360.679 275.891 361.379 272.79 363.48 270.789L365.38 268.889C366.78 267.488 368.281 265.988 369.581 264.488C371.482 261.887 374.783 260.687 377.984 261.587L378.384 261.687H378.684L381.885 262.187L388.687 263.287C390.187 263.587 391.587 262.887 392.288 261.587L392.388 261.387C392.788 260.887 393.088 260.286 393.388 259.686C395.288 254.685 396.989 250.084 398.589 245.782C399.29 244.082 398.689 242.081 397.089 241.081C395.889 240.181 394.688 239.381 393.388 238.58C392.188 237.88 390.987 237.08 389.787 236.38C388.887 235.88 387.986 235.379 387.086 234.779C384.986 233.579 383.685 231.478 383.685 229.078C383.585 225.977 383.485 222.876 383.385 219.875V217.474C383.385 215.774 384.085 214.174 385.386 213.073C386.686 211.973 387.986 210.873 389.487 209.772C390.287 209.172 391.087 208.572 391.987 208.072C393.088 207.272 394.288 206.471 395.388 205.571C397.989 203.571 398.389 201.97 397.089 199.069C395.188 194.668 393.088 190.167 390.987 185.766C389.887 183.465 388.186 182.665 385.586 183.165C383.685 183.565 381.785 183.965 379.984 184.465C378.184 184.865 376.383 185.265 374.583 185.666C372.182 186.366 369.581 185.566 367.881 183.765C365.88 181.764 363.78 179.764 361.679 177.863L359.779 176.063C358.278 174.662 357.578 172.762 357.878 170.761C357.978 169.361 358.178 167.961 358.378 166.66C358.578 165.66 358.678 164.76 358.878 163.759C359.178 161.959 359.578 160.058 359.779 158.158C360.079 156.357 359.078 154.557 357.478 153.857C353.077 152.156 348.275 150.456 342.074 148.255C340.473 147.655 338.673 148.255 337.772 149.756C336.772 151.156 335.872 152.556 334.972 153.957L334.371 154.857C333.871 155.657 333.371 156.457 332.771 157.258C331.971 158.458 331.271 159.658 330.47 160.759C329.67 162.159 328.17 162.959 326.569 163.059L322.568 163.259C320.167 163.359 317.767 163.459 315.366 163.659C312.465 163.959 309.564 162.559 308.064 160.058C306.764 158.158 305.263 156.257 303.963 154.357C303.163 153.357 302.362 152.256 301.662 151.256C300.762 149.856 299.162 149.255 297.561 149.756C291.659 151.456 286.058 153.957 280.956 157.358C280.356 157.858 280.056 158.658 279.956 159.358C279.856 160.659 280.056 161.959 280.356 163.159C280.756 165.06 281.157 166.96 281.557 168.761C281.857 170.261 282.257 171.762 282.557 173.262C283.057 175.063 282.657 176.963 281.457 178.363C278.756 181.264 275.555 184.665 272.054 187.966C271.054 188.766 269.753 189.167 268.453 189.167C267.253 189.167 266.052 188.966 264.852 188.766L263.752 188.566C262.751 188.466 261.851 188.266 260.851 188.066C259.05 187.766 257.15 187.366 255.349 187.166C253.249 186.866 251.248 188.166 250.548 190.167C249.848 191.867 249.148 193.668 248.447 195.468C247.547 197.969 246.747 200.37 245.947 202.87L244.946 205.771V206.771C245.647 208.772 247.347 209.872 249.148 210.973C250.948 212.073 252.549 213.173 254.249 214.274L257.85 216.574C259.25 217.474 260.151 219.075 260.251 220.775C260.351 222.076 260.351 223.376 260.451 224.776C260.551 226.977 260.651 229.078 260.751 231.278C261.151 234.679 259.45 237.88 256.55 239.581C254.149 241.181 251.548 242.982 248.547 245.182C246.347 246.783 246.047 248.083 247.047 250.484C249.248 255.885 251.048 259.986 252.749 263.787C254.449 267.388 255.449 267.889 259.45 267.088L262.751 266.288C265.052 265.788 267.353 265.288 269.553 264.688C269.853 264.788 270.554 264.688 271.254 264.688ZM321.568 258.886C302.963 258.886 288.058 243.882 288.058 225.377C288.058 216.474 291.659 207.972 297.961 201.67C304.263 195.368 312.965 191.567 321.068 191.567H321.168C340.173 191.667 355.077 206.471 355.077 225.277C355.577 233.179 352.176 241.881 346.075 248.383C339.773 255.085 330.87 258.886 321.568 258.886ZM321.068 192.868C313.266 192.868 304.963 196.469 298.862 202.57C292.76 208.572 289.359 216.774 289.359 225.277C289.359 242.982 303.663 257.386 321.368 257.486H321.468C330.37 257.586 338.973 253.885 345.074 247.383C350.976 241.181 354.177 232.879 353.677 225.277C353.677 207.272 339.373 193.068 321.168 192.968L321.068 192.868Z" fill="#231F20"/>
<path d="M274.153 96.041C274.753 94.3406 275.354 92.5401 275.954 90.8396C276.254 89.9393 276.654 89.0391 276.954 88.1388C277.354 87.0385 278.555 86.2383 279.755 86.4384C281.155 86.6384 282.556 86.9385 283.956 87.1386C284.656 87.3386 285.456 87.4386 286.257 87.4386C286.857 87.4386 287.357 87.2386 287.857 86.9385C289.458 85.4381 291.058 83.8376 292.558 82.1372C293.059 81.537 293.259 80.7368 293.059 79.9365C292.658 78.2361 292.258 76.5356 291.958 74.8351C291.758 74.1349 291.758 73.5348 291.758 72.8346C291.758 72.3344 292.058 71.8343 292.458 71.5342C295.059 69.8337 297.86 68.5334 300.861 67.7331C301.761 67.4331 302.761 67.8332 303.261 68.6334C304.362 70.1338 305.462 71.5342 306.462 73.0346C307.163 74.235 308.463 74.8351 309.763 74.7351C311.664 74.6351 313.464 74.535 315.365 74.435C316.065 74.435 316.665 74.0349 317.065 73.4347C317.765 72.4344 318.366 71.4342 318.966 70.4339C319.566 69.4336 320.066 68.7334 320.666 67.9332C321.166 67.0329 322.267 66.7329 323.267 67.0329C325.868 67.9332 328.368 68.8334 330.969 69.8337C331.969 70.2338 332.57 71.2341 332.37 72.3344C332.27 73.7348 331.869 75.1352 331.669 76.6356C331.569 77.3358 331.469 77.936 331.369 78.6362C331.269 79.5364 331.569 80.4367 332.27 81.0369C333.67 82.3372 334.97 83.6376 336.271 84.9379C337.071 85.7382 338.171 86.1383 339.272 85.8382C341.072 85.4381 342.973 84.938 344.773 84.6379C346.073 84.2378 347.374 84.8379 347.874 86.1383C348.874 88.3389 349.975 90.5395 350.875 92.7401C351.575 94.3406 351.375 95.3408 349.874 96.4412C348.874 97.2414 347.874 97.8416 346.974 98.5417C346.273 99.0419 345.573 99.6421 344.973 100.142C344.373 100.642 344.073 101.343 344.073 102.043C344.073 103.943 344.173 105.944 344.273 107.844C344.273 108.945 344.873 109.945 345.873 110.445C346.874 111.045 347.974 111.645 349.074 112.346C349.774 112.746 350.375 113.146 350.975 113.646C351.875 114.246 352.275 115.446 351.875 116.447C350.975 118.747 350.175 121.048 349.274 123.449C349.074 123.849 348.974 124.149 348.674 124.449C348.274 125.249 347.374 125.649 346.474 125.449L341.472 124.649L341.072 124.549C339.672 124.149 338.071 124.649 337.271 125.849C336.371 126.95 335.27 127.95 334.27 129.05C333.27 129.951 332.97 131.351 333.37 132.651C333.77 134.252 334.17 135.852 334.47 137.553C334.77 139.253 334.47 140.053 332.87 140.754C330.569 141.854 328.268 142.854 325.968 143.854C324.867 144.455 323.567 144.054 322.967 143.054C322.067 141.954 321.266 140.754 320.466 139.553C318.666 137.053 318.266 136.752 315.065 136.952C313.864 137.053 312.664 137.053 311.464 137.153C310.263 137.153 309.163 137.753 308.663 138.853C307.963 140.053 307.263 141.254 306.462 142.454C306.062 143.054 305.562 143.654 305.062 144.155C304.562 144.755 303.862 144.955 303.161 144.655C300.761 143.754 298.26 142.854 295.859 141.954C295.559 141.854 295.259 141.654 294.959 141.454C294.159 141.054 293.759 140.153 293.959 139.253C294.259 137.653 294.459 135.952 294.759 134.252C294.859 133.752 294.859 133.251 294.859 132.751C294.959 131.951 294.659 131.051 294.059 130.551C292.759 129.35 291.458 128.15 290.058 126.85C289.258 126.149 288.157 125.849 287.157 126.149C285.557 126.55 283.856 126.95 282.256 127.25H282.056C279.955 127.65 279.255 127.35 278.254 125.349C277.254 123.149 276.254 120.948 275.354 118.747C274.754 117.747 275.054 116.347 276.154 115.747C276.154 115.747 276.254 115.747 276.254 115.647C277.554 114.646 278.855 113.746 280.255 112.846C281.655 112.046 282.456 110.545 282.256 108.945C282.156 107.244 282.056 105.444 282.056 103.743C282.056 103.043 281.655 102.343 281.055 101.943C279.555 101.042 278.154 100.142 276.754 99.1419C275.754 98.6418 274.954 97.8415 274.453 96.7412L274.153 96.041ZM329.369 105.744C329.369 96.6412 322.067 89.2391 312.964 89.2391C312.864 89.2391 312.864 89.2391 312.764 89.2391C303.762 89.5392 296.66 96.8413 296.56 105.744C296.56 114.746 303.862 122.048 312.964 122.148C323.467 122.248 329.869 113.046 329.369 105.744Z" fill="#7A7A7A"/>
<path d="M303.462 145.254C303.162 145.254 302.861 145.154 302.561 145.054L300.661 144.354L295.259 142.353C294.959 142.253 294.659 142.053 294.359 141.853L294.259 141.753C293.259 141.153 292.759 140.053 292.959 138.852L293.359 136.652C293.459 135.752 293.659 134.751 293.859 133.851C293.959 133.351 293.959 132.851 293.959 132.451C294.059 131.851 293.859 131.15 293.359 130.75C292.159 129.65 290.958 128.55 289.858 127.449L289.458 127.049C288.858 126.449 288.057 126.249 287.257 126.549C286.157 126.849 284.956 127.049 283.856 127.349L282.156 127.749C279.655 128.15 278.655 127.749 277.654 125.549C276.554 123.148 275.554 120.747 274.754 118.847C274.053 117.447 274.554 115.746 275.954 114.946C277.454 113.745 278.755 112.845 279.955 112.045C281.055 111.445 281.756 110.144 281.556 108.844C281.455 107.744 281.456 106.643 281.355 105.643L281.255 103.643C281.255 103.143 280.955 102.642 280.555 102.342L278.755 101.242L276.254 99.6415C275.054 99.0414 274.153 98.0411 273.653 96.8408C273.653 96.7407 273.653 96.7407 273.653 96.6407V96.0405C273.653 95.9405 273.653 95.8405 273.653 95.8405L274.153 94.3401C274.554 93.1397 274.954 91.8394 275.454 90.639C275.754 89.7388 276.154 88.8385 276.554 87.9383C277.054 86.5379 278.555 85.6376 280.055 85.8377C281.055 85.9377 281.956 86.1378 282.856 86.2378L284.256 86.4378L284.856 86.5379C285.357 86.6379 285.857 86.7379 286.457 86.7379C286.857 86.7379 287.257 86.6379 287.557 86.4378C289.258 84.8374 290.858 83.1369 292.158 81.7365C292.559 81.3364 292.659 80.6362 292.459 80.1361C292.259 79.3359 292.158 78.6357 291.958 77.9355C291.758 76.9352 291.558 76.0349 291.358 75.1347C291.158 74.4345 291.158 73.6343 291.158 72.9341C291.258 72.2339 291.558 71.5337 292.158 71.1336C294.859 69.4331 297.76 68.0327 300.761 67.2325C301.961 66.8324 303.262 67.3325 303.862 68.3328L305.062 69.9332C305.762 70.9335 306.462 71.8338 307.163 72.834C307.663 73.8343 308.763 74.3345 309.863 74.2344C311.064 74.1344 312.264 74.1344 313.464 74.0344L315.465 73.9343C315.965 73.9343 316.365 73.6343 316.565 73.2342C316.965 72.634 317.366 72.0338 317.666 71.4336L318.466 70.2333L318.766 69.8332C319.266 69.133 319.666 68.4328 320.166 67.7326C320.867 66.6323 322.267 66.1322 323.567 66.6323C326.568 67.6326 329.069 68.5328 331.269 69.4331C332.57 69.9332 333.27 71.2336 333.07 72.634C332.97 73.6343 332.77 74.5345 332.67 75.5348C332.57 76.0349 332.47 76.435 332.47 76.9352C332.37 77.5354 332.27 78.2355 332.27 78.9357C332.17 79.6359 332.37 80.2361 332.87 80.7362L333.77 81.6365C334.77 82.6368 335.871 83.6371 336.871 84.6373C337.471 85.3375 338.371 85.5376 339.272 85.3375L341.972 84.7374L344.773 84.1372C346.374 83.6371 348.074 84.4373 348.674 86.0377C349.675 88.2383 350.775 90.439 351.675 92.7396C352.475 94.6401 352.175 95.9405 350.475 97.2409C349.875 97.641 349.274 98.1411 348.674 98.5412C348.274 98.8413 347.874 99.1414 347.474 99.4415C346.774 99.9416 346.074 100.542 345.473 101.042C345.073 101.342 344.873 101.842 344.873 102.442V103.643C344.873 105.143 344.973 106.744 344.973 108.244C344.973 109.044 345.473 109.844 346.174 110.244C346.574 110.545 347.074 110.745 347.474 111.045L349.274 112.145C349.975 112.545 350.675 112.945 351.275 113.445C352.375 114.246 352.875 115.746 352.375 117.046C351.475 119.347 350.675 121.748 349.775 124.048C349.575 124.448 349.374 124.749 349.174 125.149C348.574 126.149 347.474 126.749 346.274 126.549L341.272 125.749L340.872 125.649C339.672 125.349 338.471 125.749 337.771 126.749C337.071 127.549 336.371 128.35 335.671 129.05C335.371 129.35 335.07 129.65 334.77 129.95C333.97 130.75 333.67 131.851 333.97 132.951C334.37 134.551 334.77 136.152 335.07 137.852C335.471 139.953 334.97 140.953 333.07 141.853C330.969 142.854 328.769 143.854 326.168 144.954C324.768 145.654 323.167 145.254 322.267 143.954C321.467 143.054 320.766 142.053 320.166 141.053L319.666 140.453C317.966 138.152 317.766 138.052 314.965 138.152L312.964 138.252L311.364 138.352C310.464 138.352 309.563 138.853 309.063 139.653C308.863 140.053 308.563 140.453 308.363 140.853C307.863 141.653 307.363 142.453 306.863 143.254C306.462 143.954 305.962 144.554 305.362 145.054C304.862 145.054 304.162 145.354 303.462 145.254ZM287.757 125.149C288.658 125.149 289.558 125.549 290.258 126.149L290.658 126.549C291.858 127.649 292.959 128.75 294.159 129.85C294.959 130.55 295.359 131.55 295.259 132.651C295.259 133.151 295.159 133.751 295.059 134.251L294.559 137.052L294.159 139.253C294.059 139.853 294.359 140.453 294.859 140.753L294.959 140.853C295.159 141.053 295.359 141.153 295.659 141.253L301.061 143.254L302.961 143.954C303.362 144.154 303.862 143.954 304.162 143.654C304.662 143.154 305.062 142.654 305.462 142.053C305.962 141.253 306.462 140.453 306.963 139.653L307.663 138.452C308.363 137.252 309.663 136.452 311.064 136.452L312.664 136.352L314.665 136.252C317.966 136.052 318.666 136.352 320.666 139.153L321.167 139.753C321.867 140.653 322.567 141.653 323.267 142.554C323.667 143.354 324.668 143.554 325.468 143.154C328.069 142.053 330.269 141.053 332.37 140.053C333.67 139.453 333.87 139.053 333.57 137.552C333.27 135.952 332.87 134.251 332.47 132.651C331.97 131.15 332.47 129.45 333.57 128.35L334.47 127.349C335.17 126.649 335.871 125.949 336.571 125.149C337.671 123.748 339.372 123.148 341.072 123.548H341.272L346.474 124.448C347.074 124.548 347.674 124.248 347.974 123.748C348.174 123.448 348.374 123.148 348.474 122.848C349.374 120.547 350.175 118.247 351.075 115.946C351.375 115.246 351.175 114.346 350.475 113.946C349.875 113.545 349.274 113.045 348.674 112.745C348.074 112.345 347.474 112.045 346.874 111.645L345.473 110.845C344.373 110.245 343.673 109.044 343.573 107.744C343.473 106.243 343.473 104.643 343.473 103.143V101.942C343.473 101.042 343.873 100.042 344.573 99.4415C345.173 98.8413 345.873 98.3412 346.674 97.741L347.874 96.8408C348.474 96.4406 348.974 96.0405 349.575 95.6404C350.775 94.7402 350.875 94.14 350.275 92.7396C349.274 90.539 348.274 88.3384 347.274 86.1378C346.974 85.2375 345.974 84.7374 344.973 85.0375C344.073 85.2375 343.073 85.4376 342.172 85.6376C341.272 85.8377 340.372 86.0377 339.472 86.2378C338.171 86.5379 336.771 86.1378 335.771 85.1375C334.77 84.1372 333.77 83.1369 332.67 82.1366L331.77 81.2364C330.969 80.4362 330.569 79.4359 330.669 78.3356C330.769 77.6354 330.869 76.9352 330.969 76.235C331.069 75.7349 331.169 75.2347 331.269 74.7346C331.469 73.8343 331.569 72.9341 331.67 71.9338C331.77 71.2336 331.469 70.4334 330.769 70.1333C328.569 69.233 326.168 68.4328 323.067 67.3325C322.367 67.0324 321.667 67.3325 321.267 67.9327C320.766 68.6329 320.266 69.3331 319.866 70.0333L319.566 70.4334C319.266 70.8335 319.066 71.2336 318.766 71.6337C318.366 72.2339 317.966 72.834 317.566 73.4342C317.065 74.2344 316.265 74.7346 315.365 74.7346L313.364 74.8346C312.164 74.8346 310.964 74.9346 309.763 75.0347C308.163 75.2347 306.663 74.4345 305.862 73.0341C305.162 72.0338 304.462 71.1336 303.862 70.2333L302.661 68.9329C302.361 68.3328 301.661 68.1327 300.961 68.3328C298.06 69.133 295.259 70.4334 292.759 72.1339C292.559 72.3339 292.459 72.634 292.459 72.9341C292.459 73.5342 292.459 74.1344 292.659 74.7346C292.859 75.6348 293.059 76.6351 293.259 77.5354C293.459 78.3356 293.559 79.0358 293.759 79.836C294.059 80.8363 293.759 81.9366 293.159 82.7368C291.758 84.1372 290.158 85.8377 288.457 87.5382C287.857 87.9383 287.157 88.2383 286.457 88.2383C285.857 88.2383 285.257 88.1383 284.556 88.0383L284.056 87.9383L282.556 87.7382C281.656 87.5381 280.755 87.4381 279.855 87.3381C278.955 87.2381 278.155 87.7382 277.855 88.6385C277.454 89.5387 277.154 90.3389 276.854 91.2392C276.454 92.4395 275.954 93.7399 275.554 94.9402L275.054 96.3406V96.7407C275.454 97.5409 276.154 98.2412 276.954 98.6413C277.854 99.2414 278.655 99.7416 279.555 100.242L281.355 101.342C282.156 101.842 282.656 102.742 282.656 103.743L282.756 105.743C282.756 106.844 282.856 107.844 282.956 108.944C283.156 110.745 282.256 112.545 280.655 113.445C279.455 114.246 278.155 115.146 276.654 116.246C275.654 116.946 275.554 117.447 275.954 118.447C276.654 120.247 277.654 122.648 278.855 125.049C279.655 126.649 279.955 126.849 281.856 126.549L282.156 127.149L281.956 126.449L283.456 126.149C284.556 125.849 285.757 125.649 286.857 125.349C287.157 125.249 287.557 125.249 287.857 125.249L287.757 125.149ZM312.964 122.848C303.462 122.848 295.76 115.146 295.76 105.643C295.76 96.1406 303.462 88.4384 312.964 88.4384C322.467 88.4384 330.169 96.1406 330.169 105.643C330.269 110.044 328.669 114.246 325.568 117.447C322.267 120.947 317.666 122.948 312.964 122.848ZM312.664 89.9388C308.563 90.0388 304.662 91.7393 301.861 94.6401C295.659 100.742 295.659 110.645 301.761 116.846C304.662 119.847 308.663 121.448 312.864 121.448C317.266 121.448 321.467 119.647 324.468 116.546C327.268 113.645 328.769 109.744 328.669 105.743C328.669 97.0408 321.667 89.9388 312.964 89.9388C312.864 89.9388 312.864 89.9388 312.664 89.9388Z" fill="#231F20"/>
<path d="M96.4044 168.548C96.4044 168.548 128.113 167.648 135.415 139.14L112.709 137.739L79.7998 163.747L96.4044 168.548Z" fill="#7A7A7A"/>
<path d="M33.2871 312.588L21.3838 315.689L22.4841 328.092L36.6881 326.592L33.2871 312.588Z" fill="white"/>
<path d="M22.4842 328.792C22.2842 328.792 22.1841 328.692 22.0841 328.592C21.9841 328.492 21.8841 328.292 21.8841 328.092L20.8838 315.589C20.8838 315.289 21.0838 314.889 21.3839 314.889L33.1872 311.888C33.3873 311.888 33.5873 311.888 33.6874 311.988C33.8874 312.088 33.9874 312.288 33.9874 312.388L37.3884 326.292C37.3884 326.492 37.3884 326.692 37.2884 326.892C37.1883 327.092 36.9883 327.192 36.7882 327.192L22.5843 328.892L22.4842 328.792ZM22.1841 316.189L23.0844 327.392L35.7879 325.992L32.6871 313.488L22.1841 316.189Z" fill="#231F20"/>
<path d="M197.832 90.5259C190.33 87.325 181.828 87.7251 174.626 91.3261C162.423 97.5279 165.423 111.132 160.822 113.832C156.221 116.533 68.0962 150.943 59.2938 153.543C50.4913 156.144 42.089 153.544 32.0862 150.143C22.0834 146.742 15.8816 150.343 8.57959 156.444C1.27755 162.546 -1.52323 176.05 2.37786 177.25C6.27895 178.45 22.5835 164.246 24.8842 164.447C24.8842 164.447 32.5863 166.947 34.987 171.248C37.3876 175.55 38.1879 186.353 38.1879 186.353C38.1879 186.353 20.3829 198.056 20.3829 198.656C20.3829 199.256 25.5843 204.858 36.4874 201.957C47.3904 199.056 51.6916 192.154 56.8931 182.752C62.0945 173.349 80.5997 167.747 94.5036 162.646C108.407 157.545 161.322 137.239 166.124 135.839C170.925 134.438 176.226 137.039 183.128 139.039C191.231 141.74 200.233 139.44 206.135 133.338C213.537 126.036 213.837 117.733 212.337 112.532C212.337 112.532 200.233 120.734 195.032 122.335C189.83 123.935 187.029 121.435 184.129 117.233C181.228 113.032 180.328 106.53 182.528 103.229C184.729 99.9285 198.833 94.0269 198.833 93.1266C198.533 92.3264 198.333 91.4261 197.832 90.5259Z" fill="#231F20"/>
<path d="M30.386 203.557C27.0851 203.657 23.7842 202.657 21.1834 200.657C20.5833 200.256 19.683 199.356 19.683 198.656C19.683 198.256 19.683 197.656 37.488 185.952C37.2879 183.952 36.3877 175.149 34.3871 171.548C32.3866 167.947 25.6847 165.447 24.7844 165.147C23.8842 165.247 20.1832 167.847 17.2824 169.948C9.98031 175.049 4.67884 178.65 2.27817 177.95C1.57797 177.75 0.577689 177.05 0.177577 175.249C-0.822703 170.448 2.47822 160.845 8.17981 155.944C16.182 149.142 22.3838 146.141 32.3866 149.542C42.7895 153.143 50.6917 155.444 59.1941 152.943C67.7965 150.443 155.921 116.033 160.522 113.332C162.023 112.432 162.623 110.031 163.423 107.03C164.724 101.929 166.524 94.827 174.426 90.8259C181.828 87.0249 190.631 86.7248 198.333 90.0257C198.533 90.1257 198.633 90.2257 198.633 90.4258C199.033 91.326 199.333 92.3263 199.433 93.3266C199.433 94.0268 198.833 94.4269 194.132 96.8276C190.231 98.8282 184.229 101.929 183.029 103.83C181.028 106.83 181.728 113.232 184.529 117.033C187.63 121.234 190.131 123.235 194.732 121.835C199.733 120.234 211.737 112.232 211.837 112.132C212.137 111.932 212.537 112.032 212.837 112.332C212.837 112.432 212.937 112.432 212.937 112.532C213.737 115.333 215.638 124.935 206.535 133.938C200.434 140.24 191.231 142.54 182.829 139.84C181.328 139.439 179.928 138.939 178.527 138.439C173.626 136.839 169.725 135.538 166.224 136.539C163.123 137.439 138.716 146.642 119.111 154.044C108.508 158.045 99.5053 161.446 94.704 163.246C93.0035 163.846 91.203 164.547 89.3025 165.147C76.3989 169.748 61.8948 174.949 57.4936 182.952C51.9921 192.854 47.5908 199.556 36.5878 202.557C34.5872 203.157 32.4866 203.457 30.386 203.557ZM21.1834 198.856C22.1837 200.056 26.9851 203.857 36.1876 201.357C46.5905 198.556 50.8917 192.054 56.1932 182.452C60.8945 173.949 75.6987 168.648 88.8023 163.946C90.6028 163.246 92.4033 162.646 94.2039 162.046C98.9052 160.245 108.008 156.844 118.611 152.843C139.216 145.041 162.623 136.139 165.824 135.238C169.825 134.138 174.026 135.538 178.928 137.139C180.228 137.539 181.628 138.039 183.129 138.539C191.031 141.04 199.633 138.939 205.435 132.938C213.137 125.336 212.437 117.233 211.737 113.832C208.936 115.733 199.633 121.735 195.132 123.135C189.23 125.035 186.13 121.534 183.429 117.833C180.228 113.532 179.528 106.53 181.828 103.029C183.229 100.829 188.93 97.9279 193.432 95.5272C194.932 94.827 196.432 93.9268 197.933 93.0265C197.833 92.3263 197.633 91.6261 197.333 91.026C190.131 88.1252 181.928 88.4252 174.926 91.9262C167.624 95.6272 166.024 102.029 164.724 107.23C163.923 110.431 163.223 113.232 161.123 114.432C156.421 117.133 68.0966 151.643 59.4942 154.144C50.6917 156.744 42.4894 154.344 31.8864 150.743C22.6839 147.542 16.7822 150.543 9.18009 156.944C3.57853 161.746 0.777746 170.948 1.57797 174.849C1.678 175.45 1.97808 176.25 2.67828 176.45C4.67883 177.05 11.7808 171.949 16.4821 168.648C21.6836 164.947 23.8842 163.546 24.9845 163.646H25.1846C25.4846 163.746 33.1868 166.247 35.6875 170.748C38.1882 175.249 38.9884 185.652 38.9884 186.153C38.9884 186.453 38.8884 186.653 38.6883 186.753C32.6867 190.954 22.9839 197.356 21.1834 198.856Z" fill="#231F20"/>
<path d="M131.014 300.584L118.11 315.389L126.713 324.391L140.116 310.587L131.014 300.584Z" fill="white"/>
<path d="M126.714 325.091C126.513 325.091 126.313 324.991 126.213 324.891L117.611 315.889C117.411 315.589 117.411 315.189 117.611 314.989L130.515 300.184C130.615 299.984 130.815 299.984 131.015 299.984C131.215 299.984 131.415 300.084 131.515 300.184L140.617 310.187C140.917 310.487 140.917 310.887 140.617 311.188L127.214 324.991C127.114 325.091 126.914 325.091 126.714 325.091ZM119.011 315.389L126.613 323.391L139.017 310.587L130.915 301.585L119.011 315.389Z" fill="#231F20"/>
<path d="M113.909 231.465C113.909 231.465 165.124 258.873 169.825 276.278C174.526 293.683 137.116 316.789 137.116 316.789L126.513 304.286C126.513 304.286 140.517 285.48 134.615 279.779C128.713 274.077 101.006 262.674 101.006 262.674C101.006 262.674 98.3049 296.483 84.1009 311.888C68.7966 328.392 33.8869 329.293 33.8869 329.293L31.2861 310.487C31.2861 310.487 54.8927 304.386 64.8955 293.683C74.8983 282.98 65.0956 234.066 65.0956 234.066L113.909 231.465Z" fill="#231F20"/>
<path d="M33.7873 329.893C33.4873 329.893 33.1872 329.593 33.0871 329.293L30.4864 310.487C30.3864 310.087 30.6865 309.787 30.9866 309.687C31.1866 309.587 54.5932 303.485 64.2959 293.183C73.9986 282.88 64.4959 234.666 64.2959 234.166C64.2959 233.966 64.2959 233.766 64.3959 233.566C64.4959 233.366 64.696 233.266 64.896 233.266L113.71 230.765C113.81 230.765 114.01 230.765 114.11 230.865C116.21 231.965 165.624 258.673 170.426 276.078C175.227 293.683 138.917 316.389 137.416 317.289C137.116 317.489 136.716 317.389 136.516 317.189L125.913 304.686C125.713 304.386 125.713 304.086 125.913 303.786C129.714 298.684 138.617 284.48 134.115 280.179C129.014 275.178 106.308 265.575 101.606 263.574C101.006 269.276 97.7052 298.084 84.6015 312.288C76.5993 320.99 63.1956 325.292 53.3928 327.392C46.991 328.692 40.3892 329.593 33.7873 329.893ZM31.9868 310.887L34.3875 328.492C39.1889 328.292 69.6974 326.292 83.5012 311.288C97.3051 296.283 100.206 262.774 100.306 262.474C100.306 262.274 100.406 262.074 100.606 261.974C100.806 261.874 101.006 261.874 101.206 261.974C102.306 262.474 129.114 273.477 135.016 279.279C140.917 285.08 129.414 301.285 127.313 304.286L137.216 315.889C141.617 313.088 173.426 292.082 169.125 276.478C164.624 260.073 117.011 233.966 113.71 232.266L65.8963 234.766C67.1967 241.368 74.8988 284.08 65.2961 294.283C56.0936 303.886 35.7879 309.787 31.9868 310.887Z" fill="#231F20"/>
<path d="M139.417 155.444L142.618 150.242C142.618 150.242 142.318 142.24 143.718 141.14C145.119 140.04 145.519 145.841 145.819 145.841C146.119 145.841 149.52 138.039 151.12 139.239C152.721 140.44 153.321 144.641 152.821 146.241C152.321 147.842 144.718 162.046 144.718 162.046L139.417 155.444Z" fill="white"/>
<path d="M144.818 162.646C144.618 162.646 144.418 162.546 144.318 162.446L138.917 155.944C138.717 155.744 138.717 155.344 138.817 155.144L141.918 150.042C141.818 147.842 141.818 141.74 143.318 140.64C143.618 140.34 144.118 140.24 144.418 140.44C145.319 140.74 145.719 142.14 146.019 144.041C147.519 141.24 149.02 138.739 150.42 138.439C150.82 138.339 151.22 138.439 151.52 138.639C153.421 140.14 153.921 144.641 153.521 146.341C153.121 148.042 146.219 160.845 145.419 162.246C145.319 162.546 145.118 162.646 144.818 162.646ZM140.317 155.344L144.718 160.645C147.719 154.944 151.92 146.942 152.22 145.941C152.621 144.541 151.92 140.64 150.72 139.639C150.22 139.74 149.02 141.44 147.319 144.741C146.619 146.141 146.519 146.341 146.119 146.341C145.919 146.341 145.719 146.341 145.519 146.241C145.218 146.041 145.118 145.641 144.918 144.541C144.718 143.541 144.518 142.64 144.118 141.64C143.618 142.54 143.218 146.141 143.418 150.042C143.418 150.142 143.418 150.342 143.318 150.442L140.317 155.344Z" fill="#231F20"/>
<path d="M71.1971 150.943C68.4963 152.243 65.3954 152.743 62.3946 152.343C60.9942 152.243 59.7939 151.743 58.6936 150.843C57.6933 149.942 57.2932 148.442 57.8933 147.142C56.3929 147.342 54.8925 146.742 53.8922 145.641C52.8919 144.541 52.1917 143.141 51.9917 141.74C51.5916 139.84 51.6916 137.639 53.092 136.339C51.5916 135.638 49.8911 134.838 49.491 133.238C49.2909 132.438 49.2909 131.637 49.591 130.837C49.8911 129.237 50.3912 127.736 50.9914 126.236C51.2915 125.436 51.7916 124.535 52.6919 124.435C51.2915 121.534 51.7916 118.134 53.7922 115.633C54.7925 114.433 56.0928 113.532 57.5933 113.132C59.1937 113.032 60.8942 113.032 62.4946 113.132C63.795 111.232 66.8959 109.331 69.1965 109.531C71.2971 109.731 73.0976 111.032 73.9978 113.032C75.7983 112.632 77.6989 112.732 79.4994 113.132C81.2999 113.532 82.8003 114.833 83.6005 116.533C84.3007 118.234 83.8006 120.334 82.3002 121.434C84.5008 121.635 86.2013 123.535 86.2013 125.736C86.1012 127.936 84.8009 129.837 82.7003 130.637C82.4002 130.737 82.1001 130.837 81.9 131.037C81.7 131.337 81.6 131.637 81.4999 132.037C81.2999 133.238 80.1996 133.738 79.6994 134.738C79.1993 136.239 78.7992 137.739 78.4991 139.339C78.099 140.84 77.5988 142.24 77.0987 143.741C76.4985 145.341 76.1984 147.142 75.2982 148.642C74.498 149.942 73.3977 149.942 72.0973 150.543C71.7972 150.643 71.4971 150.843 71.1971 150.943Z" fill="white"/>
<path d="M64.2954 153.243C63.5952 153.243 62.9951 153.244 62.2949 153.143C60.7944 153.043 59.394 152.443 58.1937 151.443C57.2935 150.543 56.7933 149.242 56.8934 148.042C55.593 147.942 54.2926 147.242 53.3924 146.242C52.2921 145.041 51.5919 143.541 51.2918 141.94C50.7916 140.14 50.9917 138.239 51.892 136.639C50.3915 136.039 49.2912 134.938 48.6911 133.438C48.491 132.538 48.491 131.537 48.6911 130.637C48.9911 129.037 49.4913 127.436 50.0915 125.836C50.3915 125.036 50.8917 124.435 51.4918 123.935C50.3915 120.934 50.9917 117.634 52.9923 115.133C53.9925 113.732 55.493 112.832 57.1934 112.332C58.7939 112.232 60.3943 112.232 61.8948 112.332C63.3952 110.332 66.396 108.531 68.9967 108.731C71.1973 108.931 73.0979 110.231 74.0982 112.132C75.7986 111.832 77.5991 111.932 79.2996 112.332C81.3002 112.832 83.0007 114.233 83.9009 116.133C84.6011 117.734 84.401 119.534 83.4008 120.934C85.3013 121.735 86.6017 123.535 86.6017 125.636C86.6017 128.136 85.0012 130.337 82.6005 131.237C82.4005 131.337 82.2004 131.337 82.1004 131.437C82.0004 131.537 82.0004 131.737 82.0004 131.938V132.138C81.8003 132.838 81.4002 133.538 80.9001 134.038C80.6 134.338 80.3999 134.638 80.1999 135.038C79.7998 135.939 79.5997 136.939 79.3996 137.939C79.2996 138.439 79.1996 139.04 79.0996 139.44C78.6994 140.94 78.1993 142.44 77.6992 143.841C77.4991 144.341 77.2991 144.941 77.199 145.441C76.8989 146.642 76.4988 147.742 75.8987 148.842C75.2985 149.743 74.3982 150.443 73.2979 150.643C72.9978 150.743 72.6978 150.843 72.3977 150.943L71.3974 151.343C69.1968 152.643 66.7961 153.243 64.2954 153.243ZM57.9937 146.542C58.1937 146.542 58.3938 146.642 58.5938 146.842C58.6939 147.042 58.6939 147.342 58.5938 147.642C58.1937 148.642 58.3938 149.743 59.294 150.443C60.1943 151.243 61.3946 151.643 62.5949 151.743C65.4958 152.043 68.3966 151.543 70.9973 150.343L71.9976 149.943C72.2976 149.843 72.6978 149.642 72.9978 149.542C73.7981 149.342 74.3982 148.942 74.8984 148.242C75.3985 147.342 75.7986 146.342 76.0987 145.241C76.2988 144.641 76.3988 144.041 76.6989 143.541C77.199 142.14 77.6992 140.74 78.0993 139.24C78.1993 138.739 78.2993 138.239 78.3994 137.739C78.5994 136.639 78.8995 135.539 79.2996 134.538C79.4997 134.038 79.7998 133.638 80.1999 133.238C80.6 132.838 80.9001 132.438 81.0001 131.938V131.737C81.0001 131.337 81.2001 130.937 81.5002 130.537C81.8003 130.237 82.1004 130.037 82.5005 129.937C84.301 129.337 85.6014 127.636 85.6014 125.636C85.6014 123.735 84.201 122.235 82.3005 122.035C81.9003 122.035 81.6003 121.735 81.6003 121.335C81.6003 121.135 81.7003 120.934 81.9003 120.834C83.1007 119.834 83.5008 118.234 82.9006 116.733C82.2004 115.233 80.9001 114.133 79.1996 113.732C77.4991 113.332 75.6986 113.332 73.9981 113.632C73.698 113.632 73.398 113.532 73.1979 113.232C72.4977 111.532 70.8973 110.332 68.9967 110.131C66.8961 109.931 64.0954 111.732 62.9951 113.432C62.795 113.732 62.3949 113.832 62.0948 113.732C60.5944 113.632 59.094 113.632 57.6936 113.732C56.2932 114.133 55.0928 114.833 54.2926 116.033C52.4921 118.334 52.092 121.435 53.2923 124.135C53.4924 124.435 53.2923 124.936 52.9923 125.036C52.8922 125.036 52.7922 125.136 52.6922 125.136C52.192 125.136 51.7919 125.836 51.5919 126.436C50.9917 127.936 50.5916 129.437 50.1915 130.937C49.9914 131.637 49.9914 132.338 50.0915 133.038C50.4916 134.338 51.992 135.138 53.2923 135.739C53.4924 135.839 53.6925 136.039 53.6925 136.239C53.6925 136.439 53.6925 136.739 53.4924 136.839C52.092 138.139 52.3921 140.54 52.5921 141.54C52.8922 142.841 53.4924 144.141 54.3927 145.141C55.3929 146.142 56.5933 146.642 57.9937 146.542Z" fill="#231F20"/>
<path d="M82.501 132.037C82.501 132.037 88.8027 136.238 88.5027 137.739C88.2026 139.239 85.3018 139.639 85.3018 139.639" fill="white"/>
<path d="M85.3009 140.24C84.9008 140.24 84.6007 139.84 84.6007 139.54C84.6007 139.24 84.9008 138.94 85.2009 138.84C86.2012 138.74 87.7016 138.239 87.8016 137.539C87.8016 136.839 85.1009 134.538 82.1 132.538C81.7999 132.338 81.6999 131.938 81.9 131.538C82.1 131.137 82.5001 131.137 82.9003 131.337C85.401 132.938 89.5021 136.039 89.202 137.739C88.9019 139.84 85.701 140.24 85.3009 140.24Z" fill="#231F20"/>
<path d="M75.8982 119.834C76.3983 119.834 76.7984 120.034 77.0985 120.434C78.2988 121.534 79.2991 122.835 79.9993 124.235C81.4997 127.036 82.8001 129.937 84.0004 132.837C85.6009 136.739 87.1013 140.64 88.6017 144.541C89.502 147.041 83.2002 149.742 81.7998 149.542L86.9012 158.745C86.9012 158.745 84.2005 160.845 78.0988 160.645C71.9971 160.445 71.3969 159.245 71.3969 159.245L67.0957 147.842C67.0957 147.842 71.2969 146.041 71.597 140.039C71.697 139.039 71.2969 137.739 71.4969 136.839C71.797 135.738 72.6973 135.138 72.7973 133.838C72.7973 132.637 72.1971 131.437 71.2969 130.737C71.0968 130.537 70.7967 130.337 70.8968 130.137C70.8968 130.037 70.9968 129.837 71.0968 129.737C72.1971 128.336 71.9971 126.336 70.5967 125.135C72.1971 124.435 72.5972 122.435 72.6973 120.634C72.5972 121.134 75.298 119.634 75.298 119.634C75.498 119.834 75.6981 119.834 75.8982 119.834Z" fill="white"/>
<path d="M78.7993 161.446H77.9991C72.0975 161.246 70.8971 160.145 70.6971 159.645L66.2958 148.242C66.1958 147.842 66.2959 147.442 66.696 147.342C66.796 147.242 70.497 145.641 70.7971 140.14C70.7971 139.74 70.7971 139.339 70.6971 138.939C70.5971 138.239 70.5971 137.539 70.6971 136.739C70.8971 136.239 71.0972 135.738 71.3973 135.338C71.6974 134.938 71.8974 134.438 71.9974 133.938C71.9974 132.938 71.4973 132.037 70.7971 131.437C70.297 131.137 70.0969 130.737 70.0969 130.137C70.0969 129.837 70.297 129.637 70.497 129.437C70.8971 128.937 71.1972 128.236 71.0972 127.536C70.9972 126.836 70.6971 126.236 70.1969 125.836C69.9969 125.736 69.8969 125.436 69.8969 125.235C69.8969 124.935 70.0969 124.735 70.297 124.635C71.4973 124.135 71.8974 122.235 71.9974 120.734C71.9974 120.334 72.3976 120.034 72.6976 120.134C72.7977 120.134 72.8977 120.134 72.8977 120.234C73.4979 120.034 74.098 119.734 74.6982 119.334L74.8983 119.234C75.1983 119.134 75.4984 119.134 75.7985 119.134C76.3987 119.134 76.9988 119.434 77.399 119.834C78.6993 120.934 79.6996 122.335 80.4998 123.835C81.9002 126.336 83.1005 129.037 84.2009 131.737L84.601 132.638C86.2014 136.539 87.8019 140.44 89.2023 144.341C89.5023 145.241 89.2022 146.241 88.502 146.942C86.9016 148.542 85.0011 149.642 82.8005 150.142L87.4017 158.445C87.6018 158.745 87.5018 159.145 87.2017 159.345C87.1017 159.445 84.5009 161.446 78.7993 161.446ZM71.9974 159.045C72.1975 159.245 73.3978 159.945 78.0991 160.045C80.7999 160.245 83.5007 159.745 85.9013 158.545L81.1 149.942C81 149.742 81 149.442 81.1 149.142C81.3 148.942 81.5001 148.842 81.8002 148.842C83.9008 148.542 85.9013 147.542 87.4017 146.041C87.7018 145.741 87.9019 145.241 87.8019 144.841C86.4015 140.94 84.801 137.039 83.2006 133.138L82.8005 132.237C81.8002 129.637 80.5998 127.036 79.1995 124.535C78.4993 123.135 77.599 121.935 76.4987 120.934C76.0986 120.634 75.8985 120.534 75.6985 120.534C75.5985 120.534 75.4984 120.534 75.2984 120.634C74.5982 121.034 73.898 121.334 73.0977 121.634C72.9977 123.035 72.4976 124.435 71.4973 125.536C71.8974 126.136 72.1975 126.836 72.2975 127.536C72.3975 128.536 72.0975 129.637 71.4973 130.437C72.5976 131.337 73.2978 132.638 73.2978 134.138C73.2978 134.938 72.9977 135.638 72.4976 136.339C72.2975 136.639 72.0975 136.939 71.9974 137.339C71.8974 137.839 71.8974 138.439 71.9974 138.939C72.0975 139.439 72.0975 139.84 72.0975 140.34C71.7974 145.341 68.9966 147.642 67.6962 148.442L71.9974 159.045Z" fill="#231F20"/>
<path d="M87.2016 141.74C85.201 143.141 82.5003 142.841 80.7998 141.04Z" fill="white"/>
<path d="M84.5011 143.341C83.0007 143.341 81.5003 142.74 80.4 141.64C80.1999 141.34 80.2999 140.84 80.6 140.64C80.8001 140.44 81.1002 140.44 81.4003 140.64C82.8007 142.14 85.1013 142.44 86.9018 141.24C87.2019 141.04 87.602 141.04 87.9021 141.34C88.1021 141.64 88.1021 142.14 87.802 142.34C86.7017 143.04 85.6014 143.441 84.5011 143.341Z" fill="#231F20"/>
<path d="M76.1992 137.639C75.6991 136.739 74.8989 135.938 73.9986 135.438C73.3984 134.938 72.5982 134.538 71.898 134.338C71.0978 134.038 70.2976 134.138 69.4973 134.538C68.8972 134.938 68.5971 135.638 68.4971 136.339C68.4971 137.039 68.5971 137.739 68.7972 138.439C69.8975 141.44 72.5982 143.641 75.6991 144.141L75.399 144.041" fill="white"/>
<path d="M75.7981 144.941H75.6981C72.2972 144.341 69.3964 142.04 68.196 138.839C67.8959 138.039 67.7959 137.239 67.7959 136.438C67.8959 135.538 68.296 134.638 69.0963 134.138C69.9965 133.538 71.0968 133.438 71.9971 133.738C72.7973 134.038 73.5975 134.438 74.2977 134.938C75.298 135.538 76.1983 136.338 76.6984 137.439C76.8985 137.739 76.6984 138.239 76.3983 138.339C76.0982 138.539 75.5981 138.339 75.498 138.039V137.939C74.9979 137.139 74.2977 136.438 73.4975 136.038C72.8973 135.638 72.1971 135.238 71.597 134.938C70.9968 134.738 70.3966 134.738 69.8965 135.138C69.4964 135.438 69.1963 135.938 69.1963 136.438C69.1963 137.039 69.2963 137.639 69.4964 138.239C70.4967 140.84 72.5972 142.74 75.298 143.34C75.4981 143.24 75.5981 143.24 75.7981 143.34L76.0982 143.44C76.4983 143.64 76.5984 144.04 76.4983 144.341C76.2983 144.741 75.9982 144.841 75.7981 144.941Z" fill="#231F20"/>
<path d="M81.7008 149.643C81.7008 149.643 77.9997 150.043 75.499 148.442C75.499 148.442 78.1998 154.244 84.0014 153.744L81.7008 149.643Z" fill="#231F20"/>
<path d="M83.4007 154.443C77.6991 154.443 75.0983 148.942 74.9983 148.642C74.8983 148.342 74.8983 148.042 75.1984 147.842C75.3984 147.641 75.7985 147.641 75.9986 147.741C78.1992 149.142 81.7002 148.842 81.8002 148.842C82.1003 148.842 82.4004 148.942 82.5004 149.242L84.801 153.343C84.9011 153.543 84.9011 153.843 84.801 154.043C84.701 154.243 84.501 154.343 84.2009 154.443H83.4007ZM77.399 149.942C78.6993 151.643 80.6999 152.843 82.8005 153.043L81.3001 150.342C79.9997 150.342 78.5993 150.242 77.399 149.942Z" fill="#231F20"/>
<path d="M78.7588 130.521C79.0678 130.401 79.0759 129.678 78.7768 128.905C78.4778 128.133 77.9848 127.603 77.6758 127.723C77.3667 127.842 77.3586 128.566 77.6577 129.338C77.9568 130.111 78.4497 130.64 78.7588 130.521Z" fill="#231F20"/>
<path d="M91.7033 154.844C89.9028 153.743 70.2973 150.042 65.496 158.845C60.6946 167.647 57.8939 228.464 61.995 241.868L114.01 231.465C113.91 231.465 101.506 160.945 91.7033 154.844Z" fill="#7A7A7A"/>
<path d="M93.1035 180.551C93.1035 180.551 106.607 191.955 119.211 188.254C131.814 184.552 147.619 162.146 147.619 162.146L139.216 151.943C139.216 151.943 130.614 167.548 120.211 167.648C109.808 167.748 91.7031 154.944 91.7031 154.944L93.1035 180.551Z" fill="#7A7A7A"/>
<path d="M114.209 189.653C101.506 189.653 88.0018 180.251 87.2016 179.751C86.9015 179.551 86.8015 179.051 87.0015 178.75C87.2016 178.45 87.7017 178.35 88.0018 178.55C88.2019 178.75 111.008 194.555 124.612 185.252C138.416 175.75 143.017 166.947 143.117 166.847C143.317 166.547 143.717 166.447 144.118 166.647C144.418 166.847 144.518 167.147 144.418 167.547C144.218 167.947 139.616 176.65 125.512 186.453C122.111 188.653 118.21 189.754 114.209 189.653Z" fill="#231F20"/>
<path d="M114.809 167.447H114.709C111.909 166.847 96.9044 160.245 92.9033 156.844C89.3023 153.843 86.1014 154.143 86.0014 154.143C85.6013 154.143 85.3012 153.943 85.2012 153.543C85.2012 153.143 85.4012 152.843 85.8013 152.743C85.9014 152.743 89.6024 152.343 93.7035 155.744C97.6046 158.945 112.409 165.447 114.909 165.947C115.31 166.047 115.51 166.447 115.41 166.747C115.41 167.247 115.11 167.447 114.809 167.447Z" fill="#231F20"/>
<path d="M124.212 128.436C124.012 129.437 123.812 130.537 123.712 131.537C123.612 131.837 123.612 132.237 123.712 132.537C124.012 133.338 124.712 133.838 125.612 133.938C126.913 134.038 128.113 133.738 129.213 133.238C132.214 132.037 138.016 127.936 133.815 124.435C130.714 121.834 124.912 124.935 124.212 128.436Z" fill="white"/>
<path d="M126.312 134.638C126.112 134.638 125.912 134.638 125.612 134.538C124.512 134.438 123.511 133.738 123.211 132.638C123.111 132.238 123.111 131.838 123.111 131.437C123.211 130.337 123.311 129.237 123.611 128.237C124.012 126.136 126.112 124.035 128.713 123.135C130.613 122.335 132.714 122.635 134.414 123.835C135.615 124.636 136.315 126.136 136.115 127.636C135.715 130.437 132.014 132.838 129.713 133.838C128.513 134.238 127.413 134.538 126.312 134.638ZM131.014 124.135C130.313 124.135 129.713 124.235 129.113 124.535C127.012 125.236 125.312 126.936 124.912 128.637C124.712 129.637 124.512 130.637 124.512 131.637C124.512 131.838 124.512 132.138 124.512 132.338C124.712 132.838 125.212 133.138 125.812 133.238C126.912 133.238 128.113 133.038 129.113 132.538C131.214 131.637 134.414 129.537 134.715 127.436C134.815 126.436 134.314 125.536 133.514 124.936C132.714 124.335 131.914 124.035 131.014 124.135Z" fill="#231F20"/>
<path d="M118.111 315.389C118.111 315.389 110.609 322.191 111.009 323.091C111.409 323.991 126.513 342.896 128.313 340.896C130.114 338.895 126.613 324.391 126.613 324.391L118.111 315.389Z" fill="#231F20"/>
<path d="M128.014 341.796C127.914 341.796 127.814 341.796 127.714 341.796C124.113 341.196 110.809 324.391 110.409 323.391C110.209 322.891 109.809 321.991 117.711 314.889C118.011 314.589 118.411 314.589 118.711 314.889L127.314 323.891C127.414 323.991 127.414 324.091 127.514 324.191C128.414 327.692 131.015 339.295 129.014 341.396C128.614 341.696 128.314 341.796 128.014 341.796ZM111.709 322.991C113.21 325.292 125.513 340.196 127.914 340.396C128.814 339.095 127.614 331.393 126.013 324.791L118.011 316.389C115.21 318.99 112.209 322.091 111.709 322.991Z" fill="#231F20"/>
<path d="M21.3833 315.688C21.3833 315.688 11.6806 316.989 10.8804 318.989C10.0802 320.99 12.981 343.196 14.9815 342.796C16.9821 342.396 22.4836 328.192 22.4836 328.192L21.3833 315.688Z" fill="#231F20"/>
<path d="M14.8816 343.397C14.4815 343.397 14.1814 343.197 13.9813 342.896C11.9808 340.496 9.28001 320.89 10.1803 318.59C11.0805 316.289 18.8827 315.189 21.2834 314.889C21.4834 314.889 21.6835 314.889 21.7835 314.989C21.8835 315.089 21.9836 315.289 22.0836 315.489L23.0839 327.992C23.0839 328.092 23.0839 328.192 23.0839 328.292C21.3834 332.694 17.1822 342.897 15.0816 343.297L14.8816 343.397ZM20.7832 316.489C16.482 317.089 11.8807 318.39 11.5807 319.29C10.5804 321.891 13.8813 339.996 15.0816 341.996C16.282 340.996 19.4829 334.194 21.8835 328.092L20.7832 316.489Z" fill="#231F20"/>
</svg>
