<svg width="1200" height="350" viewBox="0 0 1200 350" fill="none" xmlns="http://www.w3.org/2000/svg">
<path d="M117.348 349.92C95.3455 349.92 74.471 339.765 54.6981 319.455H53.4623L48.0354 344.063H0V10.8779H60.9309V94.8056L59.695 132.364C68.8965 124.022 79.1188 117.265 90.3754 112.107C101.659 106.949 113.01 104.37 124.441 104.37C143.636 104.37 160.118 109.313 173.873 119.199C187.655 129.086 198.24 142.881 205.628 160.572C213.003 178.236 216.697 199.03 216.697 222.954C216.697 249.685 211.968 272.521 202.512 291.461C193.055 310.374 180.805 324.854 165.76 334.875C150.715 344.896 134.569 349.92 117.348 349.92ZM103.539 299.413C117.724 299.413 129.612 293.22 139.217 280.822C148.848 268.437 153.67 249.577 153.67 224.243C153.67 201.972 149.976 184.845 142.602 172.877C135.214 160.921 123.447 154.93 107.301 154.93C99.4828 154.93 91.8261 156.959 84.3038 161.002C76.8083 165.018 69.0174 171.05 60.9309 179.109V281.843C68.198 288.264 75.5725 292.791 83.068 295.437C90.5903 298.097 97.4141 299.413 103.539 299.413Z" fill="#083763"/>
<path d="M366.571 349.919C347.08 349.919 328.771 345.11 311.658 335.52C294.571 325.929 280.722 311.932 270.124 293.556C259.552 275.18 254.273 253.19 254.273 227.574C254.273 201.394 259.552 179.189 270.124 160.948C280.722 142.72 294.571 128.736 311.658 118.984C328.771 109.245 347.08 104.369 366.571 104.369C386.048 104.369 404.357 109.245 421.484 118.984C438.597 128.736 452.446 142.72 463.018 160.948C473.616 179.189 478.922 201.394 478.922 227.574C478.922 253.19 473.616 275.18 463.018 293.556C452.446 311.932 438.597 325.929 421.484 335.52C404.357 345.11 386.048 349.919 366.571 349.919ZM366.571 299.788C382.435 299.788 394.685 293.26 403.322 280.177C411.946 267.107 416.272 249.577 416.272 227.574C416.272 205.303 411.946 187.545 403.322 174.327C394.685 161.109 382.435 154.5 366.571 154.5C350.693 154.5 338.442 161.109 329.819 174.327C321.222 187.545 316.923 205.303 316.923 227.574C316.923 249.577 321.222 267.107 329.819 280.177C338.442 293.26 350.693 299.788 366.571 299.788Z" fill="#083763"/>
<path d="M615.854 349.919C588.021 349.919 568.248 341.846 556.535 325.686C544.848 309.54 539.019 288.384 539.019 262.23V158.691H506.028V113.181L541.92 110.225L549.066 47.6289H600.379V110.225H658.033V158.691H600.379V262.23C600.379 288.384 610.964 301.454 632.134 301.454C636.03 301.454 640.06 300.903 644.224 299.788C648.415 298.687 652.028 297.572 655.077 296.457L665.125 341.161C659 343.095 651.813 345.029 643.579 346.964C635.372 348.925 626.13 349.919 615.854 349.919Z" fill="#083763"/>
<path d="M791.215 349.919C763.383 349.919 743.61 341.846 731.896 325.686C720.21 309.54 714.38 288.384 714.38 262.23V158.691H681.389V113.181L717.281 110.225L724.428 47.6289H775.741V110.225H833.394V158.691H775.741V262.23C775.741 288.384 786.326 301.454 807.496 301.454C811.391 301.454 815.421 300.903 819.585 299.788C823.776 298.687 827.389 297.572 830.439 296.457L840.486 341.161C834.361 343.095 827.175 345.029 818.94 346.964C810.733 348.925 801.491 349.919 791.215 349.919Z" fill="#083763"/>
<path d="M880.984 344.062V110.225H941.915V344.062H880.984ZM911.879 72.6674C901.308 72.6674 892.536 69.4704 885.551 63.0496C878.593 56.6422 875.127 48.7034 875.127 39.2468C875.127 29.226 878.593 21.1395 885.551 15.0142C892.536 8.88883 901.308 5.82617 911.879 5.82617C922.438 5.82617 931.128 8.88883 937.939 15.0142C944.776 21.1395 948.201 29.226 948.201 39.2468C948.201 48.7034 944.776 56.6422 937.939 63.0496C931.128 69.4704 922.438 72.6674 911.879 72.6674Z" fill="#083763"/>
<path d="M1109.36 349.919C1087.65 349.919 1068.01 345.043 1050.47 335.305C1032.95 325.566 1019.03 311.582 1008.72 293.341C998.428 275.113 993.297 253.19 993.297 227.574C993.297 202.253 998.509 180.398 1008.93 162.022C1019.38 143.646 1032.9 129.448 1049.45 119.414C1065.99 109.393 1083.59 104.369 1102.26 104.369C1123.72 104.369 1141.67 109.191 1156.16 118.823C1170.62 128.427 1181.54 141.645 1188.93 158.476C1196.31 175.321 1200 194.583 1200 216.291C1200 228.541 1199.01 237.877 1197.04 244.284H1052.99C1055.49 263.493 1062.58 278.027 1074.27 287.914C1085.98 297.8 1100.46 302.744 1117.74 302.744C1127.48 302.744 1136.6 301.347 1145.09 298.553C1153.58 295.759 1161.99 291.729 1170.34 286.463L1191.19 324.021C1179.8 331.839 1166.98 338.099 1152.77 342.827C1138.59 347.555 1124.1 349.919 1109.36 349.919ZM1052.19 203.771H1147.34C1147.34 187.907 1143.72 175.321 1136.49 165.998C1129.25 156.649 1118.13 151.975 1103.12 151.975C1090.87 151.975 1079.87 156.3 1070.13 164.924C1060.38 173.561 1054.4 186.51 1052.19 203.771Z" fill="#083763"/>
<mask id="mask0_306_36" style="mask-type:luminance" maskUnits="userSpaceOnUse" x="871" y="0" width="86" height="85">
<path d="M871.429 0H956.136V84.7068H871.429V0Z" fill="white"/>
</mask>
<g mask="url(#mask0_306_36)">
<mask id="mask1_306_36" style="mask-type:luminance" maskUnits="userSpaceOnUse" x="871" y="0" width="86" height="85">
<path d="M913.783 0C890.396 0 871.429 18.967 871.429 42.3534C871.429 65.7532 890.396 84.7068 913.783 84.7068C937.182 84.7068 956.136 65.7532 956.136 42.3534C956.136 18.967 937.182 0 913.783 0Z" fill="white"/>
</mask>
<g mask="url(#mask1_306_36)">
<path d="M871.429 0H956.136V84.7068H871.429V0Z" fill="#F1C231"/>
</g>
</g>
</svg>
