<svg xmlns="http://www.w3.org/2000/svg" xmlns:xlink="http://www.w3.org/1999/xlink" width="640" zoomAndPan="magnify" viewBox="0 0 480 479.999983" height="640" preserveAspectRatio="xMidYMid meet" version="1.0"><defs><g/><clipPath id="65ae64d791"><path d="M 321.175781 188.007812 L 345.808594 188.007812 L 345.808594 212.640625 L 321.175781 212.640625 Z M 321.175781 188.007812 " clip-rule="nonzero"/></clipPath><clipPath id="6b95e8c9d2"><path d="M 333.492188 188.007812 C 326.691406 188.007812 321.175781 193.523438 321.175781 200.324219 C 321.175781 207.128906 326.691406 212.640625 333.492188 212.640625 C 340.296875 212.640625 345.808594 207.128906 345.808594 200.324219 C 345.808594 193.523438 340.296875 188.007812 333.492188 188.007812 Z M 333.492188 188.007812 " clip-rule="nonzero"/></clipPath></defs><g fill="#083763" fill-opacity="1"><g transform="translate(58.16967, 288.061212)"><g><path d="M 43.71875 1.703125 C 37.320312 1.703125 31.25 -1.25 25.5 -7.15625 L 25.140625 -7.15625 L 23.5625 0 L 9.59375 0 L 9.59375 -96.890625 L 27.3125 -96.890625 L 27.3125 -72.484375 L 26.953125 -61.5625 C 29.628906 -63.988281 32.601562 -65.953125 35.875 -67.453125 C 39.15625 -68.953125 42.457031 -69.703125 45.78125 -69.703125 C 51.363281 -69.703125 56.15625 -68.265625 60.15625 -65.390625 C 64.164062 -62.515625 67.242188 -58.503906 69.390625 -53.359375 C 71.535156 -48.222656 72.609375 -42.175781 72.609375 -35.21875 C 72.609375 -27.445312 71.234375 -20.804688 68.484375 -15.296875 C 65.734375 -9.796875 62.171875 -5.585938 57.796875 -2.671875 C 53.421875 0.242188 48.726562 1.703125 43.71875 1.703125 Z M 39.703125 -12.984375 C 43.828125 -12.984375 47.285156 -14.785156 50.078125 -18.390625 C 52.878906 -21.992188 54.28125 -27.476562 54.28125 -34.84375 C 54.28125 -41.320312 53.207031 -46.300781 51.0625 -49.78125 C 48.914062 -53.257812 45.492188 -55 40.796875 -55 C 38.523438 -55 36.296875 -54.410156 34.109375 -53.234375 C 31.929688 -52.066406 29.664062 -50.3125 27.3125 -47.96875 L 27.3125 -18.09375 C 29.425781 -16.226562 31.570312 -14.910156 33.75 -14.140625 C 35.9375 -13.367188 37.921875 -12.984375 39.703125 -12.984375 Z M 39.703125 -12.984375 "/></g></g></g><g fill="#083763" fill-opacity="1"><g transform="translate(136.362493, 288.061212)"><g><path d="M 38 1.703125 C 32.332031 1.703125 27.007812 0.304688 22.03125 -2.484375 C 17.0625 -5.273438 13.035156 -9.34375 9.953125 -14.6875 C 6.878906 -20.03125 5.34375 -26.425781 5.34375 -33.875 C 5.34375 -41.488281 6.878906 -47.945312 9.953125 -53.25 C 13.035156 -58.550781 17.0625 -62.617188 22.03125 -65.453125 C 27.007812 -68.285156 32.332031 -69.703125 38 -69.703125 C 43.664062 -69.703125 48.988281 -68.285156 53.96875 -65.453125 C 58.945312 -62.617188 62.972656 -58.550781 66.046875 -53.25 C 69.128906 -47.945312 70.671875 -41.488281 70.671875 -33.875 C 70.671875 -26.425781 69.128906 -20.03125 66.046875 -14.6875 C 62.972656 -9.34375 58.945312 -5.273438 53.96875 -2.484375 C 48.988281 0.304688 43.664062 1.703125 38 1.703125 Z M 38 -12.875 C 42.613281 -12.875 46.175781 -14.773438 48.6875 -18.578125 C 51.195312 -22.378906 52.453125 -27.476562 52.453125 -33.875 C 52.453125 -40.351562 51.195312 -45.515625 48.6875 -49.359375 C 46.175781 -53.203125 42.613281 -55.125 38 -55.125 C 33.382812 -55.125 29.820312 -53.203125 27.3125 -49.359375 C 24.8125 -45.515625 23.5625 -40.351562 23.5625 -33.875 C 23.5625 -27.476562 24.8125 -22.378906 27.3125 -18.578125 C 29.820312 -14.773438 33.382812 -12.875 38 -12.875 Z M 38 -12.875 "/></g></g></g><g fill="#083763" fill-opacity="1"><g transform="translate(212.369837, 288.061212)"><g><path d="M 34.484375 1.703125 C 26.390625 1.703125 20.640625 -0.644531 17.234375 -5.34375 C 13.835938 -10.039062 12.140625 -16.191406 12.140625 -23.796875 L 12.140625 -53.90625 L 2.546875 -53.90625 L 2.546875 -67.140625 L 12.984375 -68 L 15.0625 -86.203125 L 29.984375 -86.203125 L 29.984375 -68 L 46.75 -68 L 46.75 -53.90625 L 29.984375 -53.90625 L 29.984375 -23.796875 C 29.984375 -16.191406 33.0625 -12.390625 39.21875 -12.390625 C 40.351562 -12.390625 41.523438 -12.550781 42.734375 -12.875 C 43.953125 -13.195312 45.003906 -13.519531 45.890625 -13.84375 L 48.8125 -0.84375 C 47.03125 -0.28125 44.941406 0.28125 42.546875 0.84375 C 40.160156 1.414062 37.472656 1.703125 34.484375 1.703125 Z M 34.484375 1.703125 "/></g></g></g><g fill="#083763" fill-opacity="1"><g transform="translate(263.365183, 288.061212)"><g><path d="M 34.484375 1.703125 C 26.390625 1.703125 20.640625 -0.644531 17.234375 -5.34375 C 13.835938 -10.039062 12.140625 -16.191406 12.140625 -23.796875 L 12.140625 -53.90625 L 2.546875 -53.90625 L 2.546875 -67.140625 L 12.984375 -68 L 15.0625 -86.203125 L 29.984375 -86.203125 L 29.984375 -68 L 46.75 -68 L 46.75 -53.90625 L 29.984375 -53.90625 L 29.984375 -23.796875 C 29.984375 -16.191406 33.0625 -12.390625 39.21875 -12.390625 C 40.351562 -12.390625 41.523438 -12.550781 42.734375 -12.875 C 43.953125 -13.195312 45.003906 -13.519531 45.890625 -13.84375 L 48.8125 -0.84375 C 47.03125 -0.28125 44.941406 0.28125 42.546875 0.84375 C 40.160156 1.414062 37.472656 1.703125 34.484375 1.703125 Z M 34.484375 1.703125 "/></g></g></g><g fill="#083763" fill-opacity="1"><g transform="translate(314.360529, 288.061212)"><g><path d="M 9.59375 0 L 9.59375 -68 L 27.3125 -68 L 27.3125 0 Z M 18.578125 -78.921875 C 15.503906 -78.921875 12.953125 -79.851562 10.921875 -81.71875 C 8.898438 -83.582031 7.890625 -85.890625 7.890625 -88.640625 C 7.890625 -91.554688 8.898438 -93.90625 10.921875 -95.6875 C 12.953125 -97.46875 15.503906 -98.359375 18.578125 -98.359375 C 21.648438 -98.359375 24.175781 -97.46875 26.15625 -95.6875 C 28.144531 -93.90625 29.140625 -91.554688 29.140625 -88.640625 C 29.140625 -85.890625 28.144531 -83.582031 26.15625 -81.71875 C 24.175781 -79.851562 21.648438 -78.921875 18.578125 -78.921875 Z M 18.578125 -78.921875 "/></g></g></g><g fill="#083763" fill-opacity="1"><g transform="translate(351.271423, 288.061212)"><g><path d="M 39.09375 1.703125 C 32.78125 1.703125 27.070312 0.285156 21.96875 -2.546875 C 16.875 -5.378906 12.828125 -9.445312 9.828125 -14.75 C 6.835938 -20.050781 5.34375 -26.425781 5.34375 -33.875 C 5.34375 -41.238281 6.859375 -47.59375 9.890625 -52.9375 C 12.929688 -58.28125 16.859375 -62.410156 21.671875 -65.328125 C 26.484375 -68.242188 31.601562 -69.703125 37.03125 -69.703125 C 43.269531 -69.703125 48.492188 -68.300781 52.703125 -65.5 C 56.910156 -62.707031 60.085938 -58.863281 62.234375 -53.96875 C 64.378906 -49.070312 65.453125 -43.46875 65.453125 -37.15625 C 65.453125 -33.59375 65.164062 -30.878906 64.59375 -29.015625 L 22.703125 -29.015625 C 23.429688 -23.429688 25.492188 -19.203125 28.890625 -16.328125 C 32.296875 -13.453125 36.507812 -12.015625 41.53125 -12.015625 C 44.363281 -12.015625 47.015625 -12.421875 49.484375 -13.234375 C 51.953125 -14.046875 54.398438 -15.21875 56.828125 -16.75 L 62.890625 -5.828125 C 59.578125 -3.554688 55.851562 -1.734375 51.71875 -0.359375 C 47.59375 1.015625 43.382812 1.703125 39.09375 1.703125 Z M 22.46875 -40.796875 L 50.140625 -40.796875 C 50.140625 -45.410156 49.085938 -49.070312 46.984375 -51.78125 C 44.878906 -54.5 41.644531 -55.859375 37.28125 -55.859375 C 33.71875 -55.859375 30.519531 -54.601562 27.6875 -52.09375 C 24.851562 -49.582031 23.113281 -45.816406 22.46875 -40.796875 Z M 22.46875 -40.796875 "/></g></g></g><g clip-path="url(#65ae64d791)"><g clip-path="url(#6b95e8c9d2)"><path fill="#f1c231" d="M 321.175781 188.007812 L 345.808594 188.007812 L 345.808594 212.640625 L 321.175781 212.640625 Z M 321.175781 188.007812 " fill-opacity="1" fill-rule="nonzero"/></g></g></svg>