<svg width="152" height="306" viewBox="0 0 152 306" fill="none" xmlns="http://www.w3.org/2000/svg">
<path d="M87.8454 52.3332C90.6791 52.0088 84.8766 45.1968 74.2165 44.4669C63.5563 43.656 58.5636 40.4932 58.2937 40.8987C57.8889 41.3853 63.8262 57.28 85.5514 54.4417C85.5514 54.4417 88.385 53.7929 85.4164 53.4685C81.2333 53.063 73.5418 50.3058 71.3828 48.6839C71.5177 48.6839 81.908 53.063 87.8454 52.3332ZM101.744 232.69C87.8453 231.798 77.455 239.421 80.8285 240.313C88.1152 242.259 103.093 238.529 103.093 238.529C99.585 240.232 88.52 242.421 82.9875 242.178C79.0743 242.016 82.3128 243.394 82.3128 243.394C108.626 250.855 123.874 231.716 123.739 230.987C123.604 230.419 115.643 233.582 101.744 232.69ZM127.113 180.545C117.937 181.194 111.46 185.33 109.436 188.087C112.404 180.545 114.833 172.922 116.587 165.461C124.009 166.191 136.288 160.596 136.288 160.596C133.86 162.704 124.684 166.272 119.421 166.84C115.778 167.246 119.286 167.975 119.286 167.975C146.274 170.976 152.346 151.27 151.941 150.702C151.537 150.215 145.599 154.189 132.645 155.406C125.223 156.135 119.961 159.136 117.262 161.65C117.667 159.947 117.937 158.244 118.207 156.541C119.151 150.945 119.556 145.269 119.826 139.673C127.113 139.835 138.178 133.672 138.178 133.672C136.154 135.862 127.787 139.916 122.795 140.808C119.286 141.457 122.93 141.944 122.93 141.944C149.782 143.16 152.481 123.616 151.941 123.048C151.537 122.562 146.409 126.86 133.86 128.806C126.843 129.942 122.12 133.185 119.961 135.78C119.961 129.131 119.556 122.643 118.611 116.155C118.746 116.155 118.881 116.155 119.016 116.155C126.033 115.182 133.725 107.316 133.725 107.316C132.78 109.749 126.843 115.02 122.525 116.723C119.556 117.939 123.199 117.777 123.199 117.777C149.243 114.371 142.496 95.3949 141.686 94.9894C141.011 94.5839 138.313 99.5308 127.382 103.586C121.985 105.532 119.151 108.776 117.937 111.452C115.238 95.9626 110.11 81.1221 102.824 67.3358C103.228 67.498 103.633 67.5791 103.903 67.4169C110.11 65.3085 113.619 56.6312 113.619 56.6312C113.889 59.0641 110.65 64.9841 107.412 67.3358C105.118 68.9578 108.491 68.2279 108.491 68.2279C131.296 60.686 116.183 43.9803 115.373 43.737C114.563 43.4938 114.158 48.6028 105.792 54.1984C101.474 57.1178 100.26 60.7671 100.53 63.5244C96.7513 56.8745 92.5682 50.5491 87.9803 44.4669C87.9803 44.4669 87.9802 44.4669 88.1152 44.4669C93.5127 42.7639 96.8862 35.3842 96.8862 35.3842C97.0211 37.4927 94.0525 42.5206 91.0838 44.3858C89.0598 45.7644 92.0284 45.1968 92.0284 45.1968C111.864 39.1146 99.7199 24.5985 98.9103 24.3552C98.2356 24.1119 97.6959 28.4911 90.2742 33.1135C86.361 35.6275 85.2814 38.8713 85.4164 41.2231C80.4236 35.0598 75.1611 29.302 69.3587 23.9497C74.3514 21.4358 75.1611 13.4073 75.1611 13.4073C76.1056 15.5969 74.7562 21.1925 72.4623 23.6254C70.843 25.3284 73.6768 24.3552 73.6768 24.3552C92.2983 15.4347 74.3514 1.81065 73.4069 1.64846C72.5972 1.48627 73.6768 6.10872 67.6045 11.9476C64.7708 14.7048 64.5008 17.8676 65.1755 20.2193C62.0719 17.6243 58.9683 15.0292 55.7298 12.6775C55.9997 12.4342 55.9997 11.9476 55.9997 11.9476C54.1105 -1.43317 26.9878 -0.135638 26.3131 0.188744C25.7734 0.513126 32.2504 2.37832 36.7034 8.2983C41.1564 14.2183 53.5708 15.5158 53.3009 13.8128C52.6262 10.1635 42.6408 5.45995 42.6408 5.45995C45.6094 6.10872 51.1419 9.02816 53.7057 11.2988L53.3009 13.8128C59.1033 18.273 64.6358 23.0577 69.7635 28.3289C66.9298 26.6259 62.8816 25.004 57.619 24.7607C46.1492 24.193 40.6167 20.8681 40.3468 21.3547C40.0769 21.9223 47.3636 38.7091 70.4382 35.1409C70.4382 35.1409 73.4069 34.33 70.3033 34.0867C65.7154 33.7623 57.484 31.005 55.0551 29.302C55.0551 29.302 66.39 33.7623 72.7322 32.7891C73.2719 32.7081 73.4069 32.4648 73.4069 32.0593C83.3924 42.845 91.8935 54.9282 98.5055 68.1468C95.8067 66.9304 92.5682 65.9572 88.655 65.7139C76.2406 64.8219 70.4382 61.0915 70.0334 61.5781C69.6286 62.1457 76.5104 80.7166 101.879 77.3917C101.879 77.3917 102.284 77.3106 102.554 77.1484C104.983 82.744 106.872 88.5018 108.626 94.3407C106.602 93.2053 104.038 92.1511 100.934 91.5834C88.9248 89.3127 84.3369 85.0958 83.7972 85.5012C83.2574 86.0689 84.4719 105.045 110.515 104.478C110.515 104.478 110.785 104.478 111.055 104.397C112.134 109.587 112.944 114.858 113.484 120.21C111.73 117.615 108.221 114.696 102.419 113.074C90.6791 109.911 86.9007 105.289 86.361 105.694C85.6863 106.181 83.1225 125.481 109.571 126.86C109.571 126.86 113.214 126.698 109.975 125.725C105.387 124.346 98.2356 119.642 96.8862 117.291C96.8862 117.291 106.062 124.508 113.349 124.914C113.484 124.914 113.754 124.914 113.889 124.833C114.158 130.266 114.293 135.78 113.889 141.295C111.864 139.105 108.761 136.916 104.038 135.618C92.2983 132.374 88.5201 127.671 87.8454 128.076C87.1707 128.563 84.2019 148.107 111.055 149.648C111.055 149.648 114.833 149.486 111.46 148.512C106.872 147.134 99.72 142.268 98.3706 139.916C98.3706 139.916 106.332 146.242 113.349 147.458C112.944 151.026 112.539 154.595 111.864 158.244C111.19 161.812 110.38 165.38 109.436 168.949C107.951 166.678 105.387 164.326 101.339 162.704C90.4092 158.244 87.8454 153.135 87.1707 153.459C86.361 153.865 77.9948 173.247 104.443 177.464C104.443 177.464 108.221 177.707 105.252 176.409C100.934 174.544 95.132 168.949 94.4573 166.435C94.4573 166.435 100.8 173.571 107.412 175.598C105.522 181.518 103.228 187.357 100.53 193.196C99.7199 190.358 97.2911 187.033 92.2983 184.6C81.6381 179.572 79.749 174.139 78.9393 174.463C77.9948 174.869 66.9298 194.413 93.6477 199.927C93.6477 199.927 97.561 200.333 94.5923 198.873C90.4092 196.764 85.1465 190.763 84.7417 188.087C84.7417 188.087 90.949 196.602 97.9658 198.386C95.267 203.739 92.2983 209.01 89.0598 214.281C88.1152 211.929 85.9562 209.415 82.3128 207.469C72.0574 202.036 70.708 196.602 69.8984 196.927C68.9538 197.332 56.1346 216.471 82.3128 222.877C82.3128 222.877 82.8525 222.958 83.3923 222.958C80.0188 227.905 76.5105 232.69 72.7322 237.393C72.0575 236.096 70.9779 234.798 69.4936 233.663C61.1274 226.932 61.6671 221.255 60.7226 221.417C59.643 221.661 40.4817 238.772 63.0165 248.665C59.5081 252.558 55.8648 256.288 52.2214 259.938C51.8166 257.829 50.6021 255.721 48.3082 253.774C39.9419 246.8 40.7516 240.961 39.807 241.205C38.7275 241.448 18.0818 259.127 42.101 269.426C37.5131 273.481 32.6553 277.373 27.7975 281.023C27.7975 278.995 27.1227 276.806 25.6384 274.697C19.2963 266.425 21.9951 260.424 20.9155 260.586C19.7011 260.668 -7.82643 276.725 14.0337 290.43C14.0337 290.43 14.1686 290.43 14.1686 290.511C9.44573 293.511 4.72287 296.269 0 298.782L2.42889 306C12.4144 301.053 22.265 294.809 31.8457 287.51C32.1155 287.754 32.3854 287.916 32.3854 287.916C58.0238 299.026 80.5586 280.455 80.5586 279.644C80.5586 278.995 71.1129 281.428 56.5395 278.833C51.6817 277.941 46.8239 278.103 42.6408 278.833C48.4432 273.886 53.9756 268.615 59.2383 263.019C66.525 265.047 81.3682 263.019 81.3682 263.019C77.455 264.398 65.7153 265.452 60.0479 264.641C56.1346 264.074 59.1033 265.777 59.1033 265.777C83.5272 275.995 104.173 258.235 104.173 257.505C104.173 256.856 95.4019 259.289 81.6381 256.937C74.7562 255.802 68.1443 256.856 63.5563 258.397C75.9707 244.773 87.1706 229.77 96.0766 214.119C96.2115 214.2 96.3465 214.281 96.6164 214.281C104.038 215.578 117.937 210.794 117.937 210.794C114.968 212.74 104.848 215.741 99.3152 215.903C95.4019 216.065 99.0453 217.119 99.0453 217.119C126.033 222.228 136.423 202.522 136.154 201.873C135.884 201.306 129.002 204.955 115.373 205.279C107.411 205.442 101.204 208.28 98.1007 210.794C102.014 203.82 105.387 196.764 108.221 189.628C108.221 190.033 108.491 190.277 109.031 190.358C116.587 191.331 129.811 185.816 129.811 185.816C127.113 187.925 117.397 191.331 111.999 191.817C108.221 192.142 111.864 193.034 111.864 193.034C139.527 196.764 147.218 176.653 146.679 176.085C146.949 175.679 140.606 179.653 127.113 180.545ZM102.284 76.4185C97.291 75.932 88.3851 72.6882 85.9562 70.823C85.9562 70.823 95.132 74.7155 102.149 75.121C102.284 75.6076 102.554 76.0131 102.824 76.4996C102.554 76.4185 102.554 76.4185 102.284 76.4185ZM111.325 103.586C106.602 102.612 98.7754 98.4765 96.8862 96.287C96.8862 96.287 104.578 100.909 111.19 102.207C111.325 102.694 111.325 103.18 111.46 103.586H111.325ZM16.3277 289.7C14.0337 286.294 13.8988 278.914 15.653 276.157C15.653 276.157 15.1132 283.618 18.2168 288.402C17.677 288.808 17.0024 289.294 16.3277 289.7ZM56.6744 285.402C52.3563 286.861 39.942 287.835 34.0047 286.861C33.8697 286.861 33.7348 286.861 33.5999 286.78C34.1396 286.294 34.8143 285.807 35.354 285.321C43.5853 286.861 56.6744 285.402 56.6744 285.402ZM43.9902 268.534C41.0215 265.533 38.7275 258.884 39.5371 256.288C39.5371 256.288 40.8865 263.425 45.2046 267.399C44.9347 267.723 44.395 268.128 43.9902 268.534ZM65.1755 247.449C62.4768 244.286 60.4527 238.61 61.1274 236.258C61.1274 236.258 62.4768 242.259 66.2551 246.152C65.9852 246.557 65.5804 246.962 65.1755 247.449ZM84.6068 222.472C84.4718 222.391 84.3369 222.228 84.067 222.066C80.0188 219.795 75.4309 213.632 75.1611 211.037C75.1611 211.037 79.6141 218.174 85.5514 221.093C85.2815 221.498 84.8767 221.985 84.6068 222.472ZM114.428 90.5292C121.04 89.0694 126.978 80.8788 126.978 80.8788C126.573 83.3117 121.715 88.8262 117.937 90.7725C115.238 92.1511 118.746 91.7456 118.746 91.7456C143.305 86.6366 133.05 68.6334 132.24 68.2279C131.566 67.9035 129.811 72.9314 119.961 77.5539C110.245 82.4196 111.325 91.259 114.428 90.5292Z" fill="#F1C231"/>
</svg>
