<svg width="152" height="306" viewBox="0 0 152 306" fill="none" xmlns="http://www.w3.org/2000/svg">
<path d="M67.2563 53.4203C64.2685 53.6633 67.1205 54.3924 67.1205 54.3924C89.1213 57.2276 94.961 41.3503 94.6894 40.8642C94.4177 40.4592 89.3929 43.6185 78.6641 44.4285C67.9353 45.2386 62.0956 51.9622 64.9476 52.2862C70.9231 53.0153 81.3803 48.6409 81.3803 48.6409C79.2073 50.261 71.6021 53.0153 67.2563 53.4203ZM69.9724 243.058C69.9724 243.058 73.3676 241.68 69.2934 241.842C63.7253 242.085 52.5891 239.898 49.0581 238.197C49.0581 238.197 64.1327 242.004 71.4663 239.979C74.8615 239.088 64.5402 231.474 50.4162 232.284C36.4281 233.175 28.4154 230.015 28.2796 230.583C28.1438 231.393 43.49 250.51 69.9724 243.058ZM33.5761 91.6556C33.5761 91.6556 37.1071 92.0606 34.391 90.6835C30.5884 88.7393 25.6993 83.1499 25.2919 80.8007C25.2919 80.8007 31.1316 88.9824 37.9219 90.4405C41.0455 91.0885 42.2678 82.2588 32.3539 77.5604C22.4399 72.862 20.8102 67.8395 19.9954 68.1636C19.3164 68.5686 8.85921 86.4711 33.5761 91.6556ZM137.876 290.447C138.012 290.366 138.012 290.366 138.012 290.366C160.013 276.675 132.444 260.717 131.086 260.555C129.999 260.474 132.715 266.388 126.332 274.65C124.703 276.756 124.16 278.863 124.16 280.888C119.27 277.243 114.517 273.354 109.764 269.304C133.938 259.016 113.159 241.356 112.073 241.113C111.122 240.87 111.801 246.703 103.517 253.669C101.208 255.614 99.9858 257.801 99.5784 259.826C95.7758 256.181 92.2448 252.454 88.7138 248.566C111.394 238.683 92.2448 221.591 91.1584 221.348C90.2077 221.105 90.7509 226.775 82.3309 233.58C80.837 234.795 79.7506 236.01 79.0715 237.306C75.2689 232.608 71.7379 227.828 68.3428 222.887C68.886 222.887 69.4292 222.806 69.4292 222.806C95.7758 216.406 82.8741 197.289 81.9235 196.884C81.1086 196.56 79.7506 201.987 69.4292 207.415C65.7624 209.359 63.5895 211.87 62.6389 214.219C59.3795 209.035 56.3917 203.688 53.8114 198.342C60.8734 196.479 67.1205 188.054 67.1205 188.054C66.7131 190.646 61.4166 196.722 57.2066 198.828C54.2188 200.286 58.1572 199.881 58.1572 199.881C85.047 194.372 73.9109 174.85 73.096 174.445C72.2812 174.121 70.3799 179.467 59.6511 184.571C54.6262 186.92 52.1817 190.322 51.3669 193.157C48.6507 187.325 46.342 181.492 44.4407 175.579C51.0952 173.635 57.4782 166.425 57.4782 166.425C56.6633 168.936 50.9594 174.526 46.6136 176.389C43.49 177.685 47.4285 177.442 47.4285 177.442C74.1825 173.23 65.7624 153.95 64.9476 153.464C64.2685 153.059 61.6882 158.243 50.6878 162.699C46.6136 164.319 43.8975 166.668 42.5394 168.936C41.5887 165.372 40.7739 161.808 40.0949 158.243C39.4158 154.679 38.8726 151.034 38.601 147.469C45.663 146.254 53.6756 139.936 53.6756 139.936C52.3175 142.285 45.1197 147.145 40.3665 148.522C37.1071 149.495 40.7739 149.657 40.7739 149.657C67.7995 148.198 64.8118 128.676 64.1327 128.109C63.5895 127.704 59.7869 132.402 47.8359 135.642C43.0826 136.938 39.9591 139.126 37.9219 141.232C37.6503 135.723 37.6503 130.215 37.9219 124.787C38.0578 124.868 38.1936 124.868 38.4652 124.868C45.663 124.463 55.0337 117.254 55.0337 117.254C53.5398 119.603 46.4778 124.301 41.8604 125.679C38.601 126.651 42.2678 126.813 42.2678 126.813C68.886 125.516 66.4415 106.156 65.6266 105.67C65.0834 105.265 61.145 109.882 49.4656 113.041C43.6259 114.581 40.0949 117.578 38.3294 120.089C38.8726 114.743 39.6874 109.477 40.7739 104.293C41.0455 104.374 41.3171 104.374 41.3171 104.374C67.5279 104.941 68.886 85.9851 68.207 85.4181C67.6637 84.932 63.0463 89.2254 50.9594 91.4126C47.8359 91.9796 45.2555 92.9517 43.2184 94.1668C44.8481 88.3343 47.021 82.5828 49.3298 76.9933C49.7372 77.0743 50.0088 77.2363 50.0088 77.2363C75.6763 80.5576 82.6025 62.007 82.1951 61.44C81.7877 60.9539 75.948 64.6803 63.4537 65.5713C59.5153 65.8144 56.2559 66.7865 53.5398 68.0016C60.1943 54.8784 68.7502 42.7274 78.7999 32.0345C78.7999 32.4395 78.9357 32.6825 79.4789 32.7635C85.8619 33.6546 97.2697 29.2802 97.2697 29.2802C94.961 30.9814 86.5409 33.7356 81.9235 34.0596C78.6641 34.3027 81.7877 35.0317 81.7877 35.0317C105.011 38.596 112.344 21.8276 112.073 21.2605C111.801 20.7745 106.233 24.0958 94.6894 24.6628C89.5287 24.9058 85.3187 26.526 82.4667 28.2271C87.6274 23.0427 93.1955 18.1823 99.0352 13.8079L98.6278 11.2967C101.208 9.02849 106.776 6.11224 109.764 5.46418C109.764 5.46418 99.5784 10.1626 99.0352 13.8079C98.7636 15.509 111.258 14.2129 115.739 8.29942C120.221 2.38592 126.74 0.522755 126.197 0.198727C125.518 -0.1253 98.2203 -1.50242 96.319 11.8637C96.319 11.8637 96.319 12.3498 96.5907 12.5928C93.3313 15.023 90.2077 17.5342 87.0842 20.1264C87.899 17.6962 87.6274 14.618 84.6396 11.8637C78.7999 6.11224 79.8864 1.49484 79.0715 1.65685C78.1209 1.81887 60.0585 15.428 78.6641 24.3388C78.6641 24.3388 81.5161 25.3109 79.8864 23.6097C77.5776 21.1795 76.2196 15.59 77.1702 13.4029C77.1702 13.4029 78.1209 21.4225 83.0099 23.9338C77.1702 29.2802 71.7379 35.0317 66.8489 41.1882C67.1205 38.758 66.034 35.5178 61.9598 33.0876C54.4904 28.3891 54.083 24.0958 53.404 24.2578C52.5891 24.5008 40.2307 39.0011 60.3301 45.1576C60.3301 45.1576 63.3179 45.7246 61.2808 44.3475C58.4288 42.4033 55.4411 37.3809 55.5769 35.2747C55.5769 35.2747 58.9721 42.6464 64.4044 44.3475C64.4044 44.3475 64.4044 44.3475 64.5402 44.3475C59.7869 50.504 55.5769 56.8226 51.7743 63.4652C52.0459 60.7109 50.9594 57.0656 46.6136 54.1494C38.1936 48.5599 37.7861 43.4564 36.9713 43.6995C36.0206 44.0235 20.8102 60.6299 43.7617 68.2446C43.7617 68.2446 47.1568 68.9736 44.8481 67.3535C41.5887 65.0853 38.3294 59.0908 38.601 56.6606C38.601 56.6606 42.132 65.3283 48.3791 67.4345C48.7865 67.5965 49.1939 67.5155 49.6014 67.3535C42.2678 81.1247 37.1071 95.9489 34.391 111.421C33.1687 108.748 30.3167 105.589 24.8845 103.564C13.8841 99.5133 11.1679 94.6528 10.4889 94.9769C9.67405 95.3819 2.88369 114.338 29.0945 117.74C29.0945 117.74 32.7613 117.902 29.7735 116.687C25.4277 114.986 19.4522 109.72 18.5015 107.29C18.5015 107.29 26.1067 115.148 33.3045 116.12C33.4403 116.12 33.5761 116.12 33.7119 116.12C32.7613 122.6 32.3539 129.162 32.3539 135.723C30.1809 133.05 25.5635 129.81 18.3657 128.676C5.73564 126.651 0.710778 122.438 0.167549 122.843C-0.37568 123.41 2.20466 142.933 29.2303 141.718C29.2303 141.718 32.8971 141.232 29.3661 140.584C24.3412 139.693 15.9212 135.642 13.8841 133.455C13.8841 133.455 25.0203 139.612 32.3539 139.45C32.4897 145.039 33.0329 150.629 33.9835 156.299C34.2552 158 34.5268 159.701 34.9342 161.403C32.3539 158.891 26.9216 155.813 19.4522 155.165C6.27887 153.95 0.439164 149.9 0.0317419 150.467C-0.511487 151.115 5.73564 170.718 32.8971 167.802C32.8971 167.802 36.5639 167.073 32.7613 166.587C27.6006 166.02 18.2299 162.456 15.7854 160.349C15.7854 160.349 28.2796 165.939 35.6132 165.291C37.3787 172.744 39.6874 180.358 42.6752 187.892C40.6381 185.138 34.2552 181.006 25.0203 180.358C11.4395 179.386 5.05661 175.417 4.64919 175.984C4.24177 176.632 11.9828 196.722 39.6874 192.995C39.6874 192.995 43.3542 192.104 39.5516 191.78C34.1193 191.294 24.3412 187.892 21.6251 185.786C21.6251 185.786 34.9342 191.294 42.5394 190.322C43.0826 190.241 43.3542 189.998 43.3542 189.593C46.2062 196.722 49.6014 203.769 53.5398 210.736C50.4162 208.306 44.1691 205.389 36.1565 205.227C22.4399 204.903 15.5138 201.258 15.2421 201.825C14.9705 202.473 25.2919 222.158 52.4533 217.135C52.4533 217.135 55.9843 216.082 52.0459 215.92C46.6136 215.677 36.4281 212.761 33.4403 210.817C33.4403 210.817 47.4285 215.677 54.8978 214.381C55.1695 214.3 55.3053 214.3 55.4411 214.219C64.4043 229.853 75.5406 244.921 88.0348 258.449C83.4174 256.91 76.7628 255.857 69.8366 256.991C55.9843 259.259 47.1568 256.91 47.1568 257.477C47.1568 258.206 67.9353 275.946 92.5164 265.74C92.5164 265.74 95.5042 264.038 91.5658 264.605C85.9977 265.416 74.1825 264.362 70.1083 262.985C70.1083 262.985 85.047 265.091 92.3806 263.066C97.8129 268.656 103.381 273.921 109.085 278.863C104.875 278.215 99.9858 277.972 95.0968 278.863C80.4296 281.455 70.9231 279.025 70.9231 279.673C70.9231 280.402 93.6029 299.033 119.406 287.935C119.406 287.935 119.678 287.773 119.95 287.53C129.592 294.821 139.506 301.059 149.555 306L152 298.79C147.383 296.198 142.629 293.444 137.876 290.447ZM50.4162 74.9682C57.4782 74.5631 66.7131 70.6748 66.7131 70.6748C64.2685 72.6189 55.3053 75.7782 50.2804 76.2643C50.1446 76.2643 50.0088 76.2643 49.7372 76.3453C50.0088 75.8592 50.2804 75.3732 50.4162 74.9682ZM41.3171 102.024C47.9717 100.728 55.7127 96.111 55.7127 96.111C53.8114 98.2982 45.9346 102.43 41.1813 103.402C41.1813 103.402 41.0455 103.402 41.0455 103.483C41.0455 102.916 41.1813 102.511 41.3171 102.024ZM66.8489 220.781C72.8244 217.945 77.4418 210.817 77.4418 210.817C77.1702 213.409 72.5528 219.647 68.4786 221.834C68.207 221.996 68.0711 222.077 67.7995 222.239C67.3921 221.672 67.1205 221.267 66.8489 220.781ZM87.22 247.108C86.8125 246.703 86.4051 246.217 85.9977 245.812C89.8003 241.923 91.2942 235.929 91.2942 235.929C91.9732 238.278 90.0719 243.949 87.22 247.108ZM108.542 268.17C108.134 267.765 107.727 267.441 107.319 267.036C111.665 263.066 113.023 255.938 113.023 255.938C113.702 258.611 111.529 265.172 108.542 268.17ZM118.591 286.558C112.616 287.53 100.122 286.477 95.7758 285.1C95.7758 285.1 108.949 286.558 117.233 285.1C117.777 285.586 118.456 286.072 118.999 286.558C118.863 286.558 118.727 286.558 118.591 286.558ZM134.345 288.097C137.469 283.399 137.061 275.865 137.061 275.865C138.827 278.539 138.691 285.91 136.382 289.394C135.703 288.989 135.024 288.502 134.345 288.097Z" fill="#F1C231"/>
</svg>
